<svg width="15" height="15" viewBox="0 0 15 15" fill="none" xmlns="http://www.w3.org/2000/svg">
<path d="M10.3814 12.8681C10.2871 12.8685 10.194 12.8462 10.11 12.8032L7.10083 11.2278L4.09165 12.8032C3.8923 12.908 3.65066 12.8902 3.46883 12.7573C3.287 12.6244 3.19671 12.3995 3.2361 12.1778L3.82614 8.85588L1.39519 6.49574C1.24063 6.34151 1.18389 6.11453 1.24768 5.90571C1.31745 5.69177 1.50283 5.53615 1.72561 5.50448L5.08881 5.01475L6.5698 1.98787C6.66839 1.78432 6.87466 1.65503 7.10083 1.65503C7.327 1.65503 7.53327 1.78432 7.63186 1.98787L9.13055 5.00885L12.4938 5.49858C12.7165 5.53025 12.9019 5.68587 12.9717 5.89981C13.0355 6.10863 12.9787 6.33561 12.8242 6.48984L10.3932 8.84998L10.9833 12.1719C11.0263 12.3977 10.9342 12.628 10.7472 12.7619C10.6404 12.8368 10.5118 12.8741 10.3814 12.8681V12.8681Z" fill="#FFC107"/>
</svg>
