<svg width="398" height="392" viewBox="0 0 398 392" fill="none" xmlns="http://www.w3.org/2000/svg">
<path d="M352.826 42.4067L346.174 52.841L352.826 53.1211M352.826 42.4067V53.1211M352.826 42.4067L360.476 30.4072M352.826 53.1211L360.476 53.4431M360.476 30.4072V53.4431M360.476 30.4072L368.791 17.3643M360.476 53.4431L368.791 53.7932M368.791 17.3643L372.782 11.1038L377.999 21.0638M368.791 17.3643V53.7932M368.791 53.7932L377.999 54.181M377.999 21.0638V54.181M377.999 21.0638L386.868 37.9958M377.999 54.181L386.868 54.5544M386.868 37.9958L395.737 54.9278L386.868 54.5544M386.868 37.9958V54.5544" stroke="#CCD9F5" stroke-width="2.08686"/>
<path d="M13.3263 351.911L2.29059 352.858L5.70967 357.739M13.3263 351.911L5.70967 357.739M13.3263 351.911L26.0174 350.822M5.70967 357.739L9.64162 363.352M26.0174 350.822L9.64162 363.352M26.0174 350.822L39.812 349.639M9.64162 363.352L13.9155 369.454M39.812 349.639L46.4334 349.071L42.1909 358.197M39.812 349.639L13.9155 369.454M13.9155 369.454L18.6486 376.211M42.1909 358.197L18.6486 376.211M42.1909 358.197L34.9785 373.712M18.6486 376.211L23.2073 382.719M34.9785 373.712L27.7661 389.227L23.2073 382.719M34.9785 373.712L23.2073 382.719" stroke="#CCD9F5" stroke-width="1.86796"/>
<rect x="70.8245" y="0.876465" width="299.738" height="369.755" rx="18.8811" fill="#EFF3F4"/>
</svg>
