<svg width="182" height="202" viewBox="0 0 182 202" fill="none" xmlns="http://www.w3.org/2000/svg">
<g opacity="0.8" filter="url(#filter0_b_887_2708)">
<path d="M0.954102 20.6493C0.954102 14.132 6.23745 8.84863 12.7548 8.84863H168.524C175.041 8.84863 180.325 14.132 180.325 20.6493V189.006C180.325 195.523 175.041 200.807 168.524 200.807H12.7548C6.23746 200.807 0.954102 195.523 0.954102 189.006V20.6493Z" fill="white" fill-opacity="0.8"/>
<path d="M168.524 8.45528H12.7548C6.02021 8.45528 0.560745 13.9148 0.560745 20.6493V189.006C0.560745 195.741 6.02022 201.2 12.7548 201.2H168.524C175.259 201.2 180.718 195.741 180.718 189.006V20.6493C180.718 13.9147 175.259 8.45528 168.524 8.45528Z" stroke="#ECEDF1" stroke-width="0.786713"/>
</g>
<g filter="url(#filter1_d_887_2708)">
<rect x="21.4084" y="152.069" width="137.675" height="0.400218" fill="#919EAB" fill-opacity="0.24"/>
<rect x="13.5413" y="163.044" width="4.80261" height="4.80261" rx="2.40131" fill="#3449F1"/>
<path d="M24.371 166.429H22.7243V168.044H21.9673V164.283H22.7243V165.792H24.371V164.283H25.1306V168.044H24.371V166.429ZM26.9587 168.096C26.6951 168.096 26.4653 168.04 26.2693 167.927C26.0751 167.815 25.9242 167.655 25.8167 167.449C25.7109 167.242 25.658 166.998 25.658 166.715C25.658 166.432 25.7109 166.185 25.8167 165.974C25.9242 165.762 26.0751 165.597 26.2693 165.479C26.4653 165.362 26.696 165.303 26.9613 165.303C27.2267 165.303 27.4564 165.361 27.6507 165.477C27.8449 165.591 27.9949 165.754 28.1007 165.966C28.2065 166.177 28.2594 166.427 28.2594 166.715C28.2594 166.986 28.2074 167.225 28.1033 167.433C28.001 167.639 27.8527 167.802 27.6585 167.92C27.466 168.037 27.2327 168.096 26.9587 168.096ZM26.9613 167.532C27.0949 167.532 27.2024 167.493 27.2839 167.415C27.3654 167.337 27.4244 167.235 27.4608 167.108C27.4989 166.98 27.518 166.84 27.518 166.689C27.518 166.547 27.5007 166.412 27.466 166.286C27.433 166.159 27.3758 166.057 27.2943 165.979C27.2128 165.901 27.1018 165.862 26.9613 165.862C26.8278 165.862 26.7194 165.899 26.6361 165.974C26.5546 166.047 26.4948 166.146 26.4566 166.273C26.4185 166.398 26.3994 166.536 26.3994 166.689C26.3994 166.83 26.4167 166.965 26.4514 167.095C26.4861 167.223 26.5442 167.328 26.6257 167.41C26.7072 167.491 26.8191 167.532 26.9613 167.532ZM28.7658 168.044V165.355H29.5098V165.734C29.5914 165.616 29.7006 165.515 29.8376 165.43C29.9764 165.345 30.1507 165.303 30.3605 165.303C30.4524 165.303 30.5461 165.319 30.6415 165.352C30.7368 165.385 30.8262 165.433 30.9094 165.498C30.9944 165.56 31.0629 165.639 31.1149 165.734C31.2016 165.611 31.3152 165.509 31.4557 165.427C31.5979 165.344 31.7557 165.303 31.9292 165.303C32.0297 165.303 32.1312 165.319 32.2335 165.352C32.3376 165.385 32.433 165.439 32.5197 165.513C32.6064 165.588 32.6758 165.688 32.7278 165.812C32.7816 165.936 32.8084 166.088 32.8084 166.27V168.044H32.0488V166.364C32.0488 166.256 32.0271 166.171 31.9838 166.106C31.9422 166.04 31.8884 165.994 31.8225 165.966C31.7583 165.936 31.6898 165.922 31.617 165.922C31.5494 165.922 31.4808 165.936 31.4115 165.963C31.3421 165.989 31.2831 166.032 31.2346 166.091C31.186 166.15 31.1617 166.227 31.1617 166.322V168.044H30.4047V166.296C30.4047 166.215 30.3831 166.146 30.3397 166.091C30.2963 166.035 30.2417 165.994 30.1758 165.966C30.1116 165.936 30.0457 165.922 29.9781 165.922C29.9087 165.922 29.8394 165.936 29.77 165.966C29.7006 165.994 29.6425 166.038 29.5957 166.099C29.5489 166.158 29.5255 166.232 29.5255 166.322V168.044H28.7658ZM34.0494 166.874C34.0476 167.011 34.0693 167.13 34.1144 167.233C34.1595 167.333 34.2245 167.411 34.3095 167.467C34.3962 167.521 34.5003 167.548 34.6217 167.548C34.7517 167.548 34.8653 167.52 34.9624 167.464C35.0613 167.409 35.1298 167.318 35.168 167.191H35.8521C35.8227 167.382 35.7463 167.545 35.6232 167.68C35.5018 167.816 35.3544 167.919 35.181 167.99C35.0075 168.061 34.8272 168.096 34.6399 168.096C34.3745 168.096 34.1404 168.041 33.9375 167.93C33.7363 167.817 33.5794 167.659 33.4666 167.454C33.3539 167.249 33.2975 167.008 33.2975 166.731C33.2975 166.462 33.3487 166.22 33.451 166.005C33.5533 165.788 33.7016 165.617 33.8959 165.492C34.0918 165.366 34.3268 165.303 34.6009 165.303C34.8749 165.303 35.1047 165.361 35.2902 165.477C35.4775 165.591 35.618 165.752 35.7117 165.958C35.807 166.163 35.8547 166.399 35.8547 166.668V166.874H34.0494ZM34.0468 166.421H35.1445C35.1445 166.314 35.1246 166.215 35.0847 166.125C35.0448 166.034 34.9841 165.963 34.9026 165.911C34.8228 165.859 34.7223 165.833 34.6009 165.833C34.4829 165.833 34.3823 165.862 34.2991 165.919C34.2176 165.975 34.1551 166.047 34.1118 166.138C34.0684 166.228 34.0468 166.322 34.0468 166.421ZM36.3821 168.044V165.355H37.1261V165.734C37.2076 165.616 37.3169 165.515 37.4539 165.43C37.5926 165.345 37.7669 165.303 37.9768 165.303C38.0687 165.303 38.1623 165.319 38.2577 165.352C38.3531 165.385 38.4424 165.433 38.5257 165.498C38.6106 165.56 38.6791 165.639 38.7312 165.734C38.8179 165.611 38.9315 165.509 39.072 165.427C39.2142 165.344 39.372 165.303 39.5454 165.303C39.646 165.303 39.7475 165.319 39.8498 165.352C39.9538 165.385 40.0492 165.439 40.1359 165.513C40.2226 165.588 40.292 165.688 40.344 165.812C40.3978 165.936 40.4247 166.088 40.4247 166.27V168.044H39.6651V166.364C39.6651 166.256 39.6434 166.171 39.6 166.106C39.5584 166.04 39.5047 165.994 39.4388 165.966C39.3746 165.936 39.3061 165.922 39.2332 165.922C39.1656 165.922 39.0971 165.936 39.0277 165.963C38.9584 165.989 38.8994 166.032 38.8508 166.091C38.8023 166.15 38.778 166.227 38.778 166.322V168.044H38.021V166.296C38.021 166.215 37.9993 166.146 37.9559 166.091C37.9126 166.035 37.858 165.994 37.7921 165.966C37.7279 165.936 37.662 165.922 37.5943 165.922C37.525 165.922 37.4556 165.936 37.3862 165.966C37.3169 165.994 37.2588 166.038 37.2119 166.099C37.1651 166.158 37.1417 166.232 37.1417 166.322V168.044H36.3821Z" fill="#212B36"/>
<path d="M23.5756 186.125V179.735H22.0533V178.761C22.5411 178.761 22.9344 178.716 23.2334 178.626C23.5363 178.531 23.7625 178.397 23.9119 178.224C24.0614 178.047 24.1499 177.837 24.1775 177.593H25.3221V186.125H23.5756ZM28.0036 177.593H33.4851L33.4202 179.003H29.3666L29.2014 181.062C29.5161 180.885 29.8151 180.758 30.0983 180.679C30.3854 180.6 30.7001 180.561 31.0423 180.561C31.6127 180.561 32.1221 180.669 32.5705 180.885C33.0229 181.098 33.3808 181.41 33.6444 181.824C33.9079 182.237 34.0397 182.74 34.0397 183.334C34.0397 183.936 33.904 184.455 33.6326 184.892C33.3612 185.328 32.9757 185.665 32.4761 185.901C31.9805 186.137 31.3924 186.255 30.7119 186.255C30.1533 186.255 29.6341 186.168 29.1542 185.995C28.6743 185.822 28.2593 185.586 27.9092 185.287C27.5592 184.984 27.2936 184.638 27.1127 184.249L28.458 183.452C28.6114 183.72 28.7845 183.961 28.9772 184.178C29.1699 184.39 29.3922 184.559 29.6439 184.685C29.8996 184.807 30.1966 184.868 30.5349 184.868C31.0463 184.868 31.4573 184.732 31.7681 184.461C32.0788 184.19 32.2342 183.836 32.2342 183.399C32.2342 183.124 32.1634 182.878 32.0218 182.661C31.8841 182.441 31.6933 182.268 31.4495 182.142C31.2056 182.016 30.9204 181.953 30.5939 181.953C30.4208 181.953 30.2556 181.969 30.0983 182.001C29.9449 182.028 29.7875 182.083 29.6262 182.166C29.4689 182.244 29.2939 182.358 29.1011 182.508C29.046 182.532 29.0067 182.543 28.9831 182.543C28.9634 182.543 28.9241 182.53 28.8651 182.502L27.6142 181.924L28.0036 177.593ZM37.2649 177.463C37.67 177.463 38.0339 177.571 38.3565 177.788C38.679 178.004 38.9347 178.297 39.1235 178.667C39.3123 179.037 39.4067 179.45 39.4067 179.906C39.4067 180.358 39.3143 180.765 39.1294 181.127C38.9445 181.489 38.6888 181.776 38.3624 181.989C38.0398 182.197 37.674 182.301 37.2649 182.301C36.8558 182.301 36.488 182.197 36.1615 181.989C35.835 181.776 35.5774 181.489 35.3886 181.127C35.1998 180.765 35.1054 180.358 35.1054 179.906C35.1054 179.45 35.1998 179.037 35.3886 178.667C35.5813 178.297 35.8409 178.004 36.1674 177.788C36.4939 177.571 36.8597 177.463 37.2649 177.463ZM37.2531 181.428C37.5638 181.428 37.7881 181.294 37.9257 181.027C38.0673 180.756 38.1381 180.382 38.1381 179.906C38.1381 179.414 38.0654 179.029 37.9198 178.749C37.7743 178.47 37.552 178.331 37.2531 178.331C37.0564 178.331 36.8932 178.395 36.7634 178.525C36.6336 178.651 36.5352 178.832 36.4683 179.068C36.4054 179.304 36.3739 179.583 36.3739 179.906C36.3739 180.378 36.4447 180.75 36.5864 181.021C36.728 181.292 36.9502 181.428 37.2531 181.428ZM42.8643 181.393C43.2695 181.393 43.6333 181.503 43.9559 181.723C44.2824 181.94 44.54 182.233 44.7288 182.602C44.9176 182.972 45.0121 183.383 45.0121 183.836C45.0121 184.288 44.9196 184.697 44.7347 185.063C44.5499 185.425 44.2942 185.712 43.9677 185.924C43.6451 186.137 43.2773 186.243 42.8643 186.243C42.4513 186.243 42.0815 186.137 41.7551 185.924C41.4286 185.712 41.1709 185.425 40.9821 185.063C40.7933 184.697 40.6989 184.288 40.6989 183.836C40.6989 183.383 40.7933 182.972 40.9821 182.602C41.1749 182.233 41.4345 181.94 41.761 181.723C42.0914 181.503 42.4592 181.393 42.8643 181.393ZM42.8525 185.352C43.0531 185.352 43.2183 185.291 43.3482 185.169C43.478 185.047 43.5743 184.874 43.6373 184.65C43.7041 184.422 43.7376 184.154 43.7376 183.847C43.7376 183.521 43.7041 183.242 43.6373 183.009C43.5704 182.773 43.4721 182.593 43.3423 182.467C43.2124 182.337 43.0492 182.272 42.8525 182.272C42.6558 182.272 42.4926 182.337 42.3628 182.467C42.2369 182.593 42.1405 182.773 42.0737 183.009C42.0107 183.246 41.9793 183.525 41.9793 183.847C41.9793 184.154 42.0107 184.422 42.0737 184.65C42.1366 184.874 42.233 185.047 42.3628 185.169C42.4926 185.291 42.6558 185.352 42.8525 185.352ZM43.3541 177.499L37.6189 186.172L36.6041 186.154L42.3569 177.499H43.3541Z" fill="black"/>
<rect x="75.6541" y="163.044" width="4.80261" height="4.80261" rx="2.40131" fill="#77BCFB"/>
<path d="M84.0801 168.044V164.283H85.1831L86.0442 166.965L86.9131 164.283H88.0135V168.044H87.246V165.167L86.3407 168.044H85.745L84.8449 165.18V168.044H84.0801ZM89.751 168.096C89.6262 168.096 89.503 168.077 89.3816 168.039C89.262 168.001 89.1527 167.945 89.0539 167.87C88.955 167.796 88.8752 167.704 88.8145 167.594C88.7556 167.485 88.7261 167.359 88.7261 167.215V165.355H89.4857V167.118C89.4857 167.243 89.5265 167.346 89.608 167.425C89.6895 167.505 89.8091 167.545 89.967 167.545C90.1161 167.545 90.234 167.507 90.3208 167.43C90.4092 167.352 90.4534 167.244 90.4534 167.105V165.355H91.2052V168.044H90.6329L90.5445 167.511C90.5133 167.669 90.4543 167.79 90.3676 167.875C90.2826 167.959 90.1846 168.016 90.0736 168.047C89.9644 168.08 89.8568 168.096 89.751 168.096ZM92.6974 168.091C92.4997 168.091 92.3427 168.068 92.2265 168.021C92.1103 167.974 92.0245 167.913 91.969 167.836C91.9135 167.758 91.8779 167.672 91.8623 167.579C91.8467 167.483 91.8389 167.387 91.8389 167.29V164.179H92.5829V167.196C92.5829 167.295 92.6037 167.376 92.6454 167.438C92.6887 167.499 92.7694 167.536 92.8873 167.55L93.0148 167.558V168.026C92.9627 168.044 92.9098 168.058 92.8561 168.07C92.8023 168.084 92.7494 168.091 92.6974 168.091ZM93.5105 168.044V164.179H94.2649V165.742C94.3083 165.68 94.3629 165.618 94.4288 165.557C94.4947 165.495 94.5771 165.443 94.676 165.401C94.7748 165.36 94.8954 165.339 95.0376 165.339C95.2093 165.339 95.3653 165.373 95.5058 165.44C95.648 165.506 95.7616 165.603 95.8466 165.729C95.9333 165.856 95.9767 166.01 95.9767 166.192V168.044H95.2145V166.304C95.2145 166.183 95.1702 166.09 95.0818 166.026C94.9951 165.96 94.8893 165.927 94.7644 165.927C94.6829 165.927 94.604 165.942 94.5277 165.971C94.4514 166.001 94.3889 166.046 94.3404 166.106C94.2936 166.165 94.2701 166.239 94.2701 166.327V168.044H93.5105ZM97.219 166.874C97.2172 167.011 97.2389 167.13 97.284 167.233C97.3291 167.333 97.3941 167.411 97.4791 167.467C97.5658 167.521 97.6699 167.548 97.7913 167.548C97.9214 167.548 98.0349 167.52 98.1321 167.464C98.2309 167.409 98.2994 167.318 98.3376 167.191H99.0218C98.9923 167.382 98.916 167.545 98.7928 167.68C98.6714 167.816 98.524 167.919 98.3506 167.99C98.1772 168.061 97.9968 168.096 97.8095 168.096C97.5441 168.096 97.31 168.041 97.1071 167.93C96.9059 167.817 96.749 167.659 96.6363 167.454C96.5235 167.249 96.4672 167.008 96.4672 166.731C96.4672 166.462 96.5183 166.22 96.6206 166.005C96.723 165.788 96.8712 165.617 97.0655 165.492C97.2615 165.366 97.4965 165.303 97.7705 165.303C98.0445 165.303 98.2743 165.361 98.4598 165.477C98.6471 165.591 98.7876 165.752 98.8813 165.958C98.9767 166.163 99.0244 166.399 99.0244 166.668V166.874H97.219ZM97.2164 166.421H98.3142C98.3142 166.314 98.2942 166.215 98.2543 166.125C98.2144 166.034 98.1537 165.963 98.0722 165.911C97.9925 165.859 97.8919 165.833 97.7705 165.833C97.6525 165.833 97.552 165.862 97.4687 165.919C97.3872 165.975 97.3248 166.047 97.2814 166.138C97.238 166.228 97.2164 166.322 97.2164 166.421ZM99.5517 168.044V165.355H100.283V165.992C100.326 165.855 100.387 165.735 100.465 165.633C100.545 165.529 100.641 165.448 100.754 165.391C100.866 165.332 100.994 165.303 101.136 165.303C101.16 165.303 101.183 165.304 101.204 165.308C101.226 165.309 101.243 165.313 101.253 165.318V166.041C101.237 166.034 101.218 166.03 101.196 166.028C101.175 166.027 101.156 166.025 101.139 166.023C100.989 166.011 100.862 166.015 100.756 166.036C100.65 166.057 100.565 166.093 100.499 166.143C100.433 166.193 100.385 166.255 100.356 166.327C100.326 166.4 100.311 166.482 100.311 166.572V168.044H99.5517Z" fill="#212B36"/>
<path d="M85.6884 186.125V179.735H84.1661V178.761C84.6539 178.761 85.0472 178.716 85.3462 178.626C85.6491 178.531 85.8753 178.397 86.0247 178.224C86.1742 178.047 86.2627 177.837 86.2902 177.593H87.4349V186.125H85.6884ZM90.1164 177.593H95.5979L95.533 179.003H91.4794L91.3142 181.062C91.6289 180.885 91.9278 180.758 92.2111 180.679C92.4982 180.6 92.8129 180.561 93.1551 180.561C93.7255 180.561 94.2349 180.669 94.6833 180.885C95.1357 181.098 95.4936 181.41 95.7572 181.824C96.0207 182.237 96.1525 182.74 96.1525 183.334C96.1525 183.936 96.0168 184.455 95.7454 184.892C95.474 185.328 95.0885 185.665 94.5889 185.901C94.0933 186.137 93.5052 186.255 92.8247 186.255C92.2661 186.255 91.7469 186.168 91.267 185.995C90.7871 185.822 90.3721 185.586 90.022 185.287C89.6719 184.984 89.4064 184.638 89.2255 184.249L90.5708 183.452C90.7242 183.72 90.8973 183.961 91.09 184.178C91.2827 184.39 91.505 184.559 91.7567 184.685C92.0124 184.807 92.3094 184.868 92.6477 184.868C93.1591 184.868 93.5701 184.732 93.8809 184.461C94.1916 184.19 94.347 183.836 94.347 183.399C94.347 183.124 94.2762 182.878 94.1346 182.661C93.9969 182.441 93.8061 182.268 93.5622 182.142C93.3184 182.016 93.0332 181.953 92.7067 181.953C92.5336 181.953 92.3684 181.969 92.2111 182.001C92.0577 182.028 91.9003 182.083 91.739 182.166C91.5817 182.244 91.4067 182.358 91.2139 182.508C91.1588 182.532 91.1195 182.543 91.0959 182.543C91.0762 182.543 91.0369 182.53 90.9779 182.502L89.727 181.924L90.1164 177.593ZM99.3777 177.463C99.7828 177.463 100.147 177.571 100.469 177.788C100.792 178.004 101.047 178.297 101.236 178.667C101.425 179.037 101.52 179.45 101.52 179.906C101.52 180.358 101.427 180.765 101.242 181.127C101.057 181.489 100.802 181.776 100.475 181.989C100.153 182.197 99.7868 182.301 99.3777 182.301C98.9686 182.301 98.6008 182.197 98.2743 181.989C97.9478 181.776 97.6902 181.489 97.5014 181.127C97.3126 180.765 97.2182 180.358 97.2182 179.906C97.2182 179.45 97.3126 179.037 97.5014 178.667C97.6941 178.297 97.9537 178.004 98.2802 177.788C98.6067 177.571 98.9725 177.463 99.3777 177.463ZM99.3659 181.428C99.6766 181.428 99.9008 181.294 100.039 181.027C100.18 180.756 100.251 180.382 100.251 179.906C100.251 179.414 100.178 179.029 100.033 178.749C99.8871 178.47 99.6648 178.331 99.3659 178.331C99.1692 178.331 99.006 178.395 98.8762 178.525C98.7463 178.651 98.648 178.832 98.5811 179.068C98.5182 179.304 98.4867 179.583 98.4867 179.906C98.4867 180.378 98.5575 180.75 98.6991 181.021C98.8408 181.292 99.063 181.428 99.3659 181.428ZM104.977 181.393C105.382 181.393 105.746 181.503 106.069 181.723C106.395 181.94 106.653 182.233 106.842 182.602C107.03 182.972 107.125 183.383 107.125 183.836C107.125 184.288 107.032 184.697 106.848 185.063C106.663 185.425 106.407 185.712 106.08 185.924C105.758 186.137 105.39 186.243 104.977 186.243C104.564 186.243 104.194 186.137 103.868 185.924C103.541 185.712 103.284 185.425 103.095 185.063C102.906 184.697 102.812 184.288 102.812 183.836C102.812 183.383 102.906 182.972 103.095 182.602C103.288 182.233 103.547 181.94 103.874 181.723C104.204 181.503 104.572 181.393 104.977 181.393ZM104.965 185.352C105.166 185.352 105.331 185.291 105.461 185.169C105.591 185.047 105.687 184.874 105.75 184.65C105.817 184.422 105.85 184.154 105.85 183.847C105.85 183.521 105.817 183.242 105.75 183.009C105.683 182.773 105.585 182.593 105.455 182.467C105.325 182.337 105.162 182.272 104.965 182.272C104.769 182.272 104.605 182.337 104.476 182.467C104.35 182.593 104.253 182.773 104.186 183.009C104.124 183.246 104.092 183.525 104.092 183.847C104.092 184.154 104.124 184.422 104.186 184.65C104.249 184.874 104.346 185.047 104.476 185.169C104.605 185.291 104.769 185.352 104.965 185.352ZM105.467 177.499L99.7317 186.172L98.7168 186.154L104.47 177.499H105.467Z" fill="black"/>
<rect x="137.767" y="163.044" width="4.80261" height="4.80261" rx="2.40131" fill="#E2E7E8"/>
<path d="M147.756 168.096C147.401 168.096 147.093 168.019 146.833 167.865C146.574 167.709 146.374 167.488 146.232 167.202C146.091 166.914 146.021 166.57 146.021 166.171C146.021 165.771 146.092 165.426 146.235 165.136C146.378 164.846 146.581 164.624 146.841 164.467C147.101 164.31 147.406 164.231 147.756 164.231C148.105 164.231 148.408 164.309 148.667 164.465C148.925 164.621 149.125 164.844 149.265 165.133C149.407 165.423 149.479 165.769 149.479 166.171C149.479 166.569 149.408 166.911 149.268 167.199C149.129 167.487 148.93 167.709 148.672 167.865C148.414 168.019 148.108 168.096 147.756 168.096ZM147.756 167.472C147.94 167.472 148.099 167.429 148.232 167.342C148.368 167.254 148.472 167.115 148.545 166.926C148.617 166.735 148.654 166.487 148.654 166.182C148.654 165.868 148.617 165.614 148.542 165.42C148.469 165.225 148.365 165.083 148.23 164.993C148.096 164.901 147.938 164.855 147.756 164.855C147.574 164.855 147.416 164.901 147.28 164.993C147.145 165.083 147.04 165.226 146.966 165.422C146.891 165.616 146.854 165.87 146.854 166.182C146.854 166.489 146.891 166.737 146.966 166.926C147.04 167.115 147.145 167.254 147.28 167.342C147.416 167.429 147.574 167.472 147.756 167.472ZM151.046 168.096C150.921 168.096 150.798 168.077 150.676 168.039C150.557 168.001 150.447 167.945 150.349 167.87C150.25 167.796 150.17 167.704 150.109 167.594C150.05 167.485 150.021 167.359 150.021 167.215V165.355H150.78V167.118C150.78 167.243 150.821 167.346 150.903 167.425C150.984 167.505 151.104 167.545 151.262 167.545C151.411 167.545 151.529 167.507 151.616 167.43C151.704 167.352 151.748 167.244 151.748 167.105V165.355H152.5V168.044H151.928L151.839 167.511C151.808 167.669 151.749 167.79 151.662 167.875C151.577 167.959 151.479 168.016 151.368 168.047C151.259 168.08 151.152 168.096 151.046 168.096ZM154.757 165.883H154.159L154.164 167.316C154.164 167.382 154.172 167.431 154.188 167.464C154.205 167.496 154.231 167.516 154.266 167.527C154.302 167.535 154.348 167.54 154.404 167.54H154.765V168.008C154.73 168.024 154.676 168.038 154.601 168.052C154.528 168.066 154.426 168.073 154.294 168.073C154.058 168.073 153.875 168.043 153.745 167.982C153.617 167.921 153.528 167.836 153.477 167.727C153.427 167.618 153.402 167.491 153.402 167.347V165.883H152.965V165.355H153.428L153.618 164.543H154.159V165.352H154.757V165.883ZM155.318 168.044V165.355H156.049V165.992C156.093 165.855 156.154 165.735 156.232 165.633C156.311 165.529 156.408 165.448 156.52 165.391C156.633 165.332 156.761 165.303 156.903 165.303C156.927 165.303 156.95 165.304 156.97 165.308C156.993 165.309 157.009 165.313 157.02 165.318V166.041C157.004 166.034 156.985 166.03 156.963 166.028C156.942 166.027 156.923 166.025 156.905 166.023C156.756 166.011 156.629 166.015 156.523 166.036C156.417 166.057 156.331 166.093 156.265 166.143C156.199 166.193 156.152 166.255 156.122 166.327C156.093 166.4 156.078 166.482 156.078 166.572V168.044H155.318ZM158.577 168.096C158.313 168.096 158.084 168.04 157.888 167.927C157.693 167.815 157.542 167.655 157.435 167.449C157.329 167.242 157.276 166.998 157.276 166.715C157.276 166.432 157.329 166.185 157.435 165.974C157.542 165.762 157.693 165.597 157.888 165.479C158.084 165.362 158.314 165.303 158.58 165.303C158.845 165.303 159.075 165.361 159.269 165.477C159.463 165.591 159.613 165.754 159.719 165.966C159.825 166.177 159.878 166.427 159.878 166.715C159.878 166.986 159.826 167.225 159.722 167.433C159.619 167.639 159.471 167.802 159.277 167.92C159.084 168.037 158.851 168.096 158.577 168.096ZM158.58 167.532C158.713 167.532 158.821 167.493 158.902 167.415C158.984 167.337 159.043 167.235 159.079 167.108C159.117 166.98 159.136 166.84 159.136 166.689C159.136 166.547 159.119 166.412 159.084 166.286C159.051 166.159 158.994 166.057 158.913 165.979C158.831 165.901 158.72 165.862 158.58 165.862C158.446 165.862 158.338 165.899 158.254 165.974C158.173 166.047 158.113 166.146 158.075 166.273C158.037 166.398 158.018 166.536 158.018 166.689C158.018 166.83 158.035 166.965 158.07 167.095C158.104 167.223 158.162 167.328 158.244 167.41C158.326 167.491 158.437 167.532 158.58 167.532ZM161.443 168.096C161.256 168.096 161.075 168.066 160.902 168.005C160.728 167.943 160.582 167.846 160.462 167.714C160.343 167.581 160.266 167.408 160.233 167.196H160.892C160.914 167.292 160.955 167.367 161.014 167.423C161.074 167.478 161.143 167.518 161.219 167.542C161.296 167.565 161.368 167.576 161.438 167.576C161.583 167.576 161.701 167.554 161.789 167.509C161.879 167.462 161.924 167.391 161.924 167.295C161.924 167.222 161.897 167.164 161.844 167.121C161.792 167.078 161.705 167.045 161.583 167.022L161.11 166.923C160.872 166.873 160.682 166.788 160.538 166.668C160.394 166.547 160.32 166.375 160.317 166.153C160.317 165.992 160.359 165.847 160.444 165.719C160.531 165.59 160.658 165.489 160.826 165.414C160.995 165.34 161.201 165.303 161.446 165.303C161.777 165.303 162.041 165.375 162.239 165.521C162.438 165.667 162.54 165.872 162.543 166.138H161.909C161.89 166.034 161.838 165.954 161.753 165.898C161.669 165.841 161.564 165.812 161.438 165.812C161.306 165.812 161.198 165.836 161.113 165.883C161.028 165.929 160.985 166.001 160.985 166.096C160.985 166.167 161.02 166.223 161.089 166.265C161.159 166.305 161.266 166.34 161.412 166.369L161.849 166.468C162 166.504 162.122 166.555 162.216 166.619C162.311 166.681 162.385 166.75 162.437 166.824C162.489 166.899 162.524 166.974 162.543 167.051C162.564 167.125 162.575 167.193 162.575 167.254C162.575 167.432 162.527 167.585 162.432 167.711C162.336 167.836 162.203 167.932 162.034 167.998C161.864 168.064 161.667 168.096 161.443 168.096Z" fill="#212B36"/>
<path d="M147.801 186.125V179.735H146.279V178.761C146.767 178.761 147.16 178.716 147.459 178.626C147.762 178.531 147.988 178.397 148.138 178.224C148.287 178.047 148.376 177.837 148.403 177.593H149.548V186.125H147.801ZM152.229 177.593H157.711L157.646 179.003H153.592L153.427 181.062C153.742 180.885 154.041 180.758 154.324 180.679C154.611 180.6 154.926 180.561 155.268 180.561C155.838 180.561 156.348 180.669 156.796 180.885C157.248 181.098 157.606 181.41 157.87 181.824C158.134 182.237 158.265 182.74 158.265 183.334C158.265 183.936 158.13 184.455 157.858 184.892C157.587 185.328 157.201 185.665 156.702 185.901C156.206 186.137 155.618 186.255 154.937 186.255C154.379 186.255 153.86 186.168 153.38 185.995C152.9 185.822 152.485 185.586 152.135 185.287C151.785 184.984 151.519 184.638 151.338 184.249L152.684 183.452C152.837 183.72 153.01 183.961 153.203 184.178C153.396 184.39 153.618 184.559 153.87 184.685C154.125 184.807 154.422 184.868 154.76 184.868C155.272 184.868 155.683 184.732 155.994 184.461C156.304 184.19 156.46 183.836 156.46 183.399C156.46 183.124 156.389 182.878 156.247 182.661C156.11 182.441 155.919 182.268 155.675 182.142C155.431 182.016 155.146 181.953 154.819 181.953C154.646 181.953 154.481 181.969 154.324 182.001C154.17 182.028 154.013 182.083 153.852 182.166C153.694 182.244 153.519 182.358 153.327 182.508C153.272 182.532 153.232 182.543 153.209 182.543C153.189 182.543 153.15 182.53 153.091 182.502L151.84 181.924L152.229 177.593ZM161.49 177.463C161.896 177.463 162.259 177.571 162.582 177.788C162.905 178.004 163.16 178.297 163.349 178.667C163.538 179.037 163.632 179.45 163.632 179.906C163.632 180.358 163.54 180.765 163.355 181.127C163.17 181.489 162.914 181.776 162.588 181.989C162.265 182.197 161.9 182.301 161.49 182.301C161.081 182.301 160.714 182.197 160.387 181.989C160.061 181.776 159.803 181.489 159.614 181.127C159.425 180.765 159.331 180.358 159.331 179.906C159.331 179.45 159.425 179.037 159.614 178.667C159.807 178.297 160.067 178.004 160.393 177.788C160.719 177.571 161.085 177.463 161.49 177.463ZM161.479 181.428C161.789 181.428 162.014 181.294 162.151 181.027C162.293 180.756 162.364 180.382 162.364 179.906C162.364 179.414 162.291 179.029 162.145 178.749C162 178.47 161.778 178.331 161.479 178.331C161.282 178.331 161.119 178.395 160.989 178.525C160.859 178.651 160.761 178.832 160.694 179.068C160.631 179.304 160.6 179.583 160.6 179.906C160.6 180.378 160.67 180.75 160.812 181.021C160.954 181.292 161.176 181.428 161.479 181.428ZM167.09 181.393C167.495 181.393 167.859 181.503 168.181 181.723C168.508 181.94 168.766 182.233 168.954 182.602C169.143 182.972 169.238 183.383 169.238 183.836C169.238 184.288 169.145 184.697 168.96 185.063C168.775 185.425 168.52 185.712 168.193 185.924C167.871 186.137 167.503 186.243 167.09 186.243C166.677 186.243 166.307 186.137 165.981 185.924C165.654 185.712 165.397 185.425 165.208 185.063C165.019 184.697 164.924 184.288 164.924 183.836C164.924 183.383 165.019 182.972 165.208 182.602C165.4 182.233 165.66 181.94 165.987 181.723C166.317 181.503 166.685 181.393 167.09 181.393ZM167.078 185.352C167.279 185.352 167.444 185.291 167.574 185.169C167.704 185.047 167.8 184.874 167.863 184.65C167.93 184.422 167.963 184.154 167.963 183.847C167.963 183.521 167.93 183.242 167.863 183.009C167.796 182.773 167.698 182.593 167.568 182.467C167.438 182.337 167.275 182.272 167.078 182.272C166.881 182.272 166.718 182.337 166.588 182.467C166.463 182.593 166.366 182.773 166.299 183.009C166.236 183.246 166.205 183.525 166.205 183.847C166.205 184.154 166.236 184.422 166.299 184.65C166.362 184.874 166.459 185.047 166.588 185.169C166.718 185.291 166.881 185.352 167.078 185.352ZM167.58 177.499L161.844 186.172L160.83 186.154L166.582 177.499H167.58Z" fill="black"/>
<path d="M54.4504 94.6461C54.4504 114.415 70.4766 130.442 90.2459 130.442" stroke="#77BCFB" stroke-width="15.7343"/>
<path d="M90.2461 130.442C110.015 130.442 126.042 114.415 126.042 94.6461C126.042 89.2321 124.653 82.6797 122.501 78.0795" stroke="#E2E7E8" stroke-width="15.7343"/>
<path d="M90.2461 130.442C101.625 130.442 111.765 125.132 118.321 116.854" stroke="#77BCFB" stroke-width="15.7343"/>
<path d="M54.4504 94.6461C54.4504 74.8768 70.4766 58.8506 90.2459 58.8506C104.507 58.8506 116.821 67.1906 122.575 79.2594" stroke="#3449F1" stroke-width="20.4545"/>
<path d="M84.5157 82.5241V81.9798H88.0184V82.5241H86.6064V86.6095H86.0109V82.5241H84.5157ZM89.5323 86.6735C89.227 86.6735 88.9602 86.6084 88.7318 86.4782C88.5035 86.3459 88.3263 86.1527 88.2004 85.8987C88.0744 85.6447 88.0115 85.3341 88.0115 84.967C88.0115 84.6212 88.0702 84.3181 88.1876 84.0577C88.3049 83.7973 88.4768 83.5956 88.703 83.4526C88.9314 83.3074 89.2078 83.2349 89.5323 83.2349C89.8375 83.2349 90.1022 83.3021 90.3263 83.4366C90.5526 83.5689 90.7276 83.7642 90.8514 84.0225C90.9752 84.2808 91.0371 84.5956 91.0371 84.967C91.0371 85.3043 90.9795 85.6009 90.8642 85.8571C90.7511 86.1132 90.5825 86.3139 90.3583 86.459C90.1363 86.602 89.861 86.6735 89.5323 86.6735ZM89.5323 86.2061C89.7308 86.2061 89.8983 86.1559 90.035 86.0556C90.1716 85.9553 90.2751 85.8112 90.3455 85.6234C90.416 85.4355 90.4512 85.2125 90.4512 84.9542C90.4512 84.7173 90.4202 84.5049 90.3583 84.3171C90.2964 84.1271 90.1972 83.9766 90.0606 83.8656C89.9261 83.7546 89.75 83.6991 89.5323 83.6991C89.3316 83.6991 89.1619 83.7493 89.0232 83.8496C88.8845 83.9478 88.7788 84.0908 88.7062 84.2786C88.6358 84.4665 88.6006 84.6917 88.6006 84.9542C88.6006 85.1869 88.6326 85.3982 88.6966 85.5881C88.7607 85.7781 88.861 85.9286 88.9976 86.0396C89.1342 86.1506 89.3124 86.2061 89.5323 86.2061ZM93.3877 83.7311H92.6417V85.7899C92.6417 85.9072 92.6535 85.9937 92.6769 86.0492C92.7026 86.1026 92.7442 86.1367 92.8018 86.1516C92.8616 86.1666 92.9427 86.1741 93.0451 86.1741H93.4069V86.5711C93.3664 86.586 93.3045 86.5988 93.2212 86.6095C93.1401 86.6202 93.0387 86.6255 92.9171 86.6255C92.6887 86.6255 92.5115 86.5946 92.3856 86.5327C92.2596 86.4708 92.1711 86.379 92.1198 86.2573C92.0707 86.1356 92.0462 85.9862 92.0462 85.8091V83.7311H91.5083V83.2989H92.0622L92.2063 82.3352H92.6417V83.2957H93.3877V83.7311ZM95.1353 86.6735C94.9219 86.6735 94.733 86.6362 94.5686 86.5615C94.4043 86.4846 94.2751 86.3747 94.1812 86.2317C94.0894 86.0887 94.0435 85.9158 94.0435 85.713C94.0435 85.3459 94.1716 85.0727 94.4277 84.8934C94.6839 84.7141 95.0948 84.618 95.6604 84.6052L96.2527 84.5892V84.3299C96.2527 84.1271 96.1919 83.967 96.0702 83.8496C95.9486 83.7301 95.7597 83.6703 95.5035 83.6703C95.3136 83.6724 95.146 83.7173 95.0009 83.8048C94.8578 83.8923 94.765 84.0353 94.7223 84.2338H94.2004C94.2132 84.0182 94.2741 83.8368 94.3829 83.6895C94.4918 83.5401 94.6433 83.427 94.8376 83.3501C95.0339 83.2733 95.2655 83.2349 95.5323 83.2349C95.8205 83.2349 96.0596 83.2754 96.2495 83.3565C96.4416 83.4376 96.5847 83.5572 96.6786 83.7151C96.7746 83.8731 96.8226 84.0673 96.8226 84.2978V86.6095H96.3168L96.2751 85.9884C96.1471 86.2466 95.9838 86.4259 95.7853 86.5263C95.5889 86.6244 95.3723 86.6735 95.1353 86.6735ZM95.3146 86.2477C95.4256 86.2477 95.5355 86.2274 95.6444 86.1869C95.7554 86.1463 95.8568 86.0919 95.9486 86.0236C96.0404 85.9531 96.1129 85.8752 96.1663 85.7899C96.2218 85.7023 96.2506 85.6127 96.2527 85.5209V84.9542L95.7597 84.9638C95.5078 84.9681 95.2965 84.9937 95.1257 85.0406C94.9571 85.0876 94.8301 85.1612 94.7447 85.2616C94.6615 85.3619 94.6198 85.4932 94.6198 85.6554C94.6198 85.8411 94.6839 85.9862 94.812 86.0908C94.9422 86.1954 95.1097 86.2477 95.3146 86.2477ZM98.6698 86.6511C98.4905 86.6511 98.3453 86.6266 98.2343 86.5775C98.1255 86.5284 98.0411 86.4622 97.9814 86.379C97.9237 86.2957 97.8843 86.2007 97.8629 86.094C97.8437 85.9852 97.8341 85.8731 97.8341 85.7578V81.8517H98.4168V85.7002C98.4168 85.8667 98.4488 85.9916 98.5129 86.0748C98.579 86.1581 98.6708 86.2039 98.7882 86.2125L98.9675 86.2157V86.5999C98.9184 86.6148 98.8672 86.6266 98.8138 86.6351C98.7605 86.6458 98.7124 86.6511 98.6698 86.6511Z" fill="#637381"/>
<path d="M71.2425 103.609V102.886V102.508C71.2425 102.034 71.33 101.624 71.505 101.279C71.6843 100.933 71.9191 100.632 72.2094 100.376C72.504 100.115 72.8241 99.8827 73.1699 99.6778C73.52 99.4728 73.8679 99.2765 74.2137 99.0886C74.5637 98.8965 74.8839 98.698 75.1742 98.4931C75.4645 98.2839 75.6972 98.0491 75.8722 97.7887C76.0515 97.5241 76.1411 97.2124 76.1411 96.8538C76.1411 96.3842 75.9746 96.0022 75.6417 95.7076C75.313 95.413 74.8668 95.2658 74.3033 95.2658C73.6971 95.2658 73.2105 95.4365 72.8433 95.778C72.4762 96.1196 72.2692 96.5742 72.2222 97.142H71.044C71.0568 96.6084 71.1891 96.1217 71.441 95.682C71.6929 95.238 72.0621 94.8837 72.5488 94.619C73.0354 94.3543 73.6352 94.222 74.3482 94.222C74.9672 94.222 75.5051 94.333 75.9618 94.555C76.4186 94.7727 76.7708 95.0801 77.0184 95.4771C77.2703 95.8698 77.3962 96.3287 77.3962 96.8538C77.3962 97.332 77.3087 97.7418 77.1337 98.0833C76.9586 98.4248 76.726 98.7215 76.4357 98.9734C76.1497 99.221 75.8359 99.443 75.4944 99.6393C75.1529 99.8357 74.8092 100.026 74.4634 100.209C74.1176 100.389 73.8017 100.579 73.5157 100.779C73.2297 100.976 72.9992 101.202 72.8241 101.458C72.6491 101.714 72.5616 102.019 72.5616 102.374V102.559H77.4474V103.609H71.2425ZM78.814 97.0459C78.814 96.4483 78.9591 95.9403 79.2494 95.5219C79.5397 95.0993 79.9261 94.777 80.4085 94.555C80.8951 94.333 81.4309 94.222 82.0157 94.222C82.6561 94.222 83.2217 94.3159 83.7127 94.5037C84.2036 94.6873 84.5878 94.9563 84.8653 95.3106C85.1428 95.6649 85.2815 96.0982 85.2815 96.6105C85.2815 97.0673 85.1364 97.4814 84.8461 97.8528C84.5558 98.2199 84.1118 98.5081 83.5141 98.7172C83.9197 98.8282 84.274 98.9905 84.5771 99.2039C84.8802 99.4174 85.115 99.6799 85.2815 99.9915C85.448 100.299 85.5312 100.653 85.5312 101.055C85.5312 101.477 85.4416 101.857 85.2623 102.194C85.0873 102.527 84.8397 102.811 84.5195 103.046C84.1993 103.277 83.8215 103.454 83.3861 103.577C82.9506 103.697 82.4768 103.755 81.9645 103.75C81.3284 103.746 80.7671 103.629 80.2804 103.398C79.798 103.168 79.4181 102.845 79.1406 102.431C78.8631 102.013 78.7137 101.518 78.6923 100.946H79.877C79.9666 101.522 80.2014 101.964 80.5814 102.271C80.9613 102.579 81.4373 102.732 82.0093 102.732C82.4618 102.732 82.8567 102.662 83.194 102.521C83.5312 102.376 83.7916 102.177 83.9752 101.925C84.1588 101.674 84.2505 101.379 84.2505 101.042C84.2505 100.67 84.1481 100.357 83.9432 100.1C83.7383 99.8442 83.4587 99.65 83.1043 99.5177C82.75 99.3811 82.3551 99.3106 81.9197 99.3064L81.0872 99.2871V98.2818L81.8813 98.2626C82.2868 98.2541 82.6497 98.1772 82.9699 98.0321C83.29 97.8826 83.5419 97.6884 83.7255 97.4493C83.9133 97.206 84.0072 96.9392 84.0072 96.6489C84.0072 96.3928 83.9282 96.1558 83.7703 95.9381C83.6123 95.7161 83.3839 95.539 83.0851 95.4066C82.7906 95.2743 82.432 95.2081 82.0093 95.2081C81.6763 95.2081 81.3583 95.2743 81.0552 95.4066C80.7521 95.5347 80.5024 95.7332 80.306 96.0022C80.1096 96.2711 80.005 96.619 79.9922 97.0459H78.814ZM86.7016 105.217L87.4188 103.635L86.8617 103.603V102.188H88.3409V103.417L87.2523 105.217H86.7016ZM92.9541 103.75C92.4418 103.75 91.9637 103.654 91.5197 103.462C91.08 103.266 90.7107 102.988 90.4119 102.63C90.1173 102.271 89.9359 101.842 89.8676 101.343H91.0202C91.127 101.765 91.3489 102.109 91.6862 102.374C92.0234 102.634 92.4333 102.764 92.9157 102.764C93.4621 102.764 93.9295 102.621 94.318 102.335C94.7108 102.049 95.0032 101.607 95.1953 101.01C95.3874 100.412 95.46 99.6457 95.413 98.7108C95.3063 99.0353 95.1377 99.3213 94.9071 99.5689C94.6766 99.8122 94.3991 100.004 94.0747 100.145C93.7502 100.286 93.3917 100.357 92.9989 100.357C92.3884 100.357 91.8505 100.237 91.3852 99.9979C90.9199 99.7589 90.557 99.4174 90.2966 98.9734C90.0405 98.5294 89.9124 97.9979 89.9124 97.3789C89.9124 96.7599 90.0405 96.2135 90.2966 95.7396C90.5528 95.2658 90.9199 94.8944 91.398 94.6254C91.8762 94.3565 92.4439 94.222 93.1014 94.222C93.8186 94.222 94.4397 94.4077 94.9648 94.7791C95.4899 95.1462 95.8954 95.6756 96.1814 96.3672C96.4675 97.0545 96.6105 97.8805 96.6105 98.8453C96.6105 99.8827 96.4675 100.766 96.1814 101.496C95.8997 102.226 95.4856 102.786 94.9392 103.174C94.397 103.558 93.7353 103.75 92.9541 103.75ZM93.127 99.3512C93.4685 99.3512 93.7929 99.2722 94.1003 99.1143C94.4077 98.9563 94.6574 98.7471 94.8495 98.4867C95.0459 98.222 95.1441 97.9339 95.1441 97.6222C95.1483 97.1441 95.0672 96.7236 94.9007 96.3608C94.7342 95.9936 94.4973 95.7076 94.19 95.5027C93.8826 95.2935 93.524 95.1889 93.1142 95.1889C92.7385 95.1889 92.4055 95.2786 92.1152 95.4579C91.8292 95.6372 91.6029 95.8869 91.4365 96.2071C91.2742 96.5272 91.1931 96.8986 91.1931 97.3213C91.1931 97.9403 91.3575 98.4333 91.6862 98.8005C92.0149 99.1676 92.4952 99.3512 93.127 99.3512ZM100.871 103.75C100.359 103.75 99.8805 103.654 99.4365 103.462C98.9968 103.266 98.6275 102.988 98.3287 102.63C98.0341 102.271 97.8527 101.842 97.7844 101.343H98.937C99.0438 101.765 99.2657 102.109 99.603 102.374C99.9402 102.634 100.35 102.764 100.832 102.764C101.379 102.764 101.846 102.621 102.235 102.335C102.628 102.049 102.92 101.607 103.112 101.01C103.304 100.412 103.377 99.6457 103.33 98.7108C103.223 99.0353 103.054 99.3213 102.824 99.5689C102.593 99.8122 102.316 100.004 101.991 100.145C101.667 100.286 101.308 100.357 100.916 100.357C100.305 100.357 99.7674 100.237 99.302 99.9979C98.8367 99.7589 98.4738 99.4174 98.2134 98.9734C97.9573 98.5294 97.8292 97.9979 97.8292 97.3789C97.8292 96.7599 97.9573 96.2135 98.2134 95.7396C98.4696 95.2658 98.8367 94.8944 99.3148 94.6254C99.793 94.3565 100.361 94.222 101.018 94.222C101.735 94.222 102.356 94.4077 102.882 94.7791C103.407 95.1462 103.812 95.6756 104.098 96.3672C104.384 97.0545 104.527 97.8805 104.527 98.8453C104.527 99.8827 104.384 100.766 104.098 101.496C103.816 102.226 103.402 102.786 102.856 103.174C102.314 103.558 101.652 103.75 100.871 103.75ZM101.044 99.3512C101.385 99.3512 101.71 99.2722 102.017 99.1143C102.324 98.9563 102.574 98.7471 102.766 98.4867C102.963 98.222 103.061 97.9339 103.061 97.6222C103.065 97.1441 102.984 96.7236 102.818 96.3608C102.651 95.9936 102.414 95.7076 102.107 95.5027C101.799 95.2935 101.441 95.1889 101.031 95.1889C100.655 95.1889 100.322 95.2786 100.032 95.4579C99.746 95.6372 99.5198 95.8869 99.3533 96.2071C99.191 96.5272 99.1099 96.8986 99.1099 97.3213C99.1099 97.9403 99.2743 98.4333 99.603 98.8005C99.9317 99.1676 100.412 99.3512 101.044 99.3512ZM110.029 94.3501H111.233V100.203H112.769V101.247H111.233V103.609H110.074V101.247H105.713V100.164L110.029 94.3501ZM106.846 100.203H110.048V95.9061L106.846 100.203Z" fill="#212B36"/>
</g>
<defs>
<filter id="filter0_b_887_2708" x="-4.5528" y="3.34161" width="190.385" height="202.972" filterUnits="userSpaceOnUse" color-interpolation-filters="sRGB">
<feFlood flood-opacity="0" result="BackgroundImageFix"/>
<feGaussianBlur in="BackgroundImageFix" stdDeviation="2.36014"/>
<feComposite in2="SourceAlpha" operator="in" result="effect1_backgroundBlur_887_2708"/>
<feBlend mode="normal" in="SourceGraphic" in2="effect1_backgroundBlur_887_2708" result="shape"/>
</filter>
<filter id="filter1_d_887_2708" x="5.53691" y="-3.00692" width="173.239" height="208.113" filterUnits="userSpaceOnUse" color-interpolation-filters="sRGB">
<feFlood flood-opacity="0" result="BackgroundImageFix"/>
<feColorMatrix in="SourceAlpha" type="matrix" values="0 0 0 0 0 0 0 0 0 0 0 0 0 0 0 0 0 0 127 0" result="hardAlpha"/>
<feMorphology radius="1.60087" operator="erode" in="SourceAlpha" result="effect1_dropShadow_887_2708"/>
<feOffset dy="4.80261"/>
<feGaussianBlur stdDeviation="4.80261"/>
<feColorMatrix type="matrix" values="0 0 0 0 0.568627 0 0 0 0 0.619608 0 0 0 0 0.670588 0 0 0 0.12 0"/>
<feBlend mode="normal" in2="BackgroundImageFix" result="effect1_dropShadow_887_2708"/>
<feBlend mode="normal" in="SourceGraphic" in2="effect1_dropShadow_887_2708" result="shape"/>
</filter>
</defs>
</svg>
