<svg width="331" height="224" viewBox="0 0 331 224" fill="none" xmlns="http://www.w3.org/2000/svg">
<g filter="url(#filter0_b_887_2738)">
<rect x="5.75488" y="1.55823" width="322.552" height="221.066" rx="5.50699" fill="white" fill-opacity="0.8"/>
<rect x="5.36153" y="1.16487" width="323.339" height="221.853" rx="5.90035" stroke="#ECEDF1" stroke-width="0.786713"/>
</g>
<g filter="url(#filter1_d_887_2738)">
<path d="M24.3669 23.1058C23.6169 23.1058 22.967 22.9451 22.4171 22.6237C21.8707 22.2987 21.4476 21.8399 21.1476 21.2471C20.8476 20.6543 20.6977 19.9526 20.6977 19.142C20.6977 18.3242 20.8494 17.6172 21.153 17.0208C21.4565 16.4245 21.8832 15.9638 22.4332 15.6388C22.9867 15.3103 23.6312 15.146 24.3669 15.146C25.1025 15.146 25.7417 15.3103 26.2845 15.6388C26.8308 15.9638 27.254 16.4245 27.554 17.0208C27.8575 17.6172 28.0093 18.3242 28.0093 19.142C28.0093 19.9526 27.8611 20.6543 27.5647 21.2471C27.2683 21.8399 26.8469 22.2987 26.3006 22.6237C25.7542 22.9451 25.1096 23.1058 24.3669 23.1058ZM24.3669 21.6274C24.699 21.6274 24.99 21.547 25.24 21.3864C25.4899 21.2221 25.6828 20.9596 25.8185 20.5989C25.9577 20.2383 26.0274 19.7615 26.0274 19.1688C26.0274 18.5581 25.9577 18.0671 25.8185 17.6957C25.6792 17.3208 25.4846 17.0494 25.2346 16.8815C24.9846 16.7101 24.6954 16.6244 24.3669 16.6244C24.0348 16.6244 23.7437 16.7101 23.4938 16.8815C23.2438 17.0529 23.0474 17.3261 22.9045 17.7011C22.7653 18.0725 22.6956 18.5617 22.6956 19.1688C22.6956 19.7615 22.7653 20.2383 22.9045 20.5989C23.0474 20.9596 23.2438 21.2221 23.4938 21.3864C23.7437 21.547 24.0348 21.6274 24.3669 21.6274ZM34.0668 17.46L31.9456 22.9987H30.7083L28.5925 17.46H30.2262L31.3189 20.6364H31.3403L32.4063 17.46H34.0668ZM36.0477 20.6472C36.0441 20.9007 36.0834 21.115 36.1655 21.2899C36.2477 21.4613 36.3637 21.5917 36.5137 21.681C36.6637 21.7702 36.8387 21.8149 37.0386 21.8149C37.2672 21.8149 37.469 21.7684 37.6439 21.6756C37.8225 21.5792 37.9528 21.4131 38.035 21.1774H39.6633C39.6026 21.581 39.4419 21.9274 39.1812 22.2166C38.9241 22.5023 38.6099 22.7219 38.2385 22.8755C37.8671 23.029 37.4832 23.1058 37.0869 23.1058C36.5226 23.1058 36.0263 22.9897 35.5978 22.7576C35.1728 22.5255 34.8407 22.1988 34.6014 21.7774C34.3658 21.356 34.2479 20.8614 34.2479 20.2936C34.2479 19.7544 34.3568 19.2634 34.5747 18.8206C34.7925 18.3742 35.1067 18.0189 35.5174 17.7546C35.9281 17.4868 36.4227 17.3529 37.0012 17.3529C37.5868 17.3529 38.076 17.4761 38.4688 17.7225C38.8616 17.9653 39.1562 18.301 39.3527 18.7295C39.5526 19.1545 39.6526 19.6419 39.6526 20.1919V20.6472H36.0477ZM36.0423 19.5973H37.96C37.96 19.4152 37.9243 19.2491 37.8528 19.0991C37.7814 18.9456 37.6743 18.8242 37.5314 18.7349C37.3886 18.6456 37.2118 18.601 37.0012 18.601C36.8083 18.601 36.6405 18.6492 36.4976 18.7456C36.3548 18.8384 36.2423 18.9616 36.1602 19.1152C36.0781 19.2652 36.0388 19.4259 36.0423 19.5973ZM40.6252 22.9987V17.46H42.3822V18.8795C42.4679 18.5903 42.5911 18.3314 42.7518 18.1028C42.916 17.8707 43.1178 17.6886 43.3571 17.5565C43.5963 17.4208 43.8731 17.3529 44.1873 17.3529C44.2266 17.3529 44.2605 17.3547 44.2891 17.3583C44.3212 17.3583 44.3409 17.3618 44.348 17.369V19.0991C44.3301 19.092 44.3069 19.0866 44.2784 19.0831C44.2534 19.0795 44.2266 19.0777 44.198 19.0777C43.8481 19.042 43.5588 19.0474 43.3303 19.0938C43.1053 19.1402 42.9267 19.2152 42.7946 19.3187C42.6661 19.4223 42.575 19.5455 42.5214 19.6883C42.4714 19.8312 42.4464 19.9865 42.4464 20.1544V22.9987H40.6252ZM50.2618 17.46L48.1406 22.9987H46.9033L44.7875 17.46H46.4212L47.5139 20.6364H47.5354L48.6013 17.46H50.2618ZM52.7563 17.46V22.9987H51.0154V17.46H52.7563ZM52.7616 15.2532V16.8387H51.0101V15.2532H52.7616ZM55.5696 20.6472C55.566 20.9007 55.6053 21.115 55.6874 21.2899C55.7696 21.4613 55.8856 21.5917 56.0356 21.681C56.1856 21.7702 56.3606 21.8149 56.5606 21.8149C56.7891 21.8149 56.9909 21.7684 57.1658 21.6756C57.3444 21.5792 57.4747 21.4131 57.5569 21.1774H59.1852C59.1245 21.581 58.9638 21.9274 58.7032 22.2166C58.446 22.5023 58.1318 22.7219 57.7604 22.8755C57.389 23.029 57.0051 23.1058 56.6088 23.1058C56.0445 23.1058 55.5482 22.9897 55.1197 22.7576C54.6947 22.5255 54.3626 22.1988 54.1234 21.7774C53.8877 21.356 53.7698 20.8614 53.7698 20.2936C53.7698 19.7544 53.8787 19.2634 54.0966 18.8206C54.3144 18.3742 54.6286 18.0189 55.0393 17.7546C55.45 17.4868 55.9446 17.3529 56.5231 17.3529C57.1087 17.3529 57.5979 17.4761 57.9907 17.7225C58.3835 17.9653 58.6782 18.301 58.8746 18.7295C59.0745 19.1545 59.1745 19.6419 59.1745 20.1919V20.6472H55.5696ZM55.5642 19.5973H57.4819C57.4819 19.4152 57.4462 19.2491 57.3747 19.0991C57.3033 18.9456 57.1962 18.8242 57.0534 18.7349C56.9105 18.6456 56.7337 18.601 56.5231 18.601C56.3302 18.601 56.1624 18.6492 56.0195 18.7456C55.8767 18.8384 55.7642 18.9616 55.6821 19.1152C55.6 19.2652 55.5607 19.4259 55.5642 19.5973ZM67.6951 17.46L65.8096 22.9987H64.4384L63.5063 19.9776L62.5582 22.9987H61.2352L59.4033 17.46H61.0049L61.969 20.524H61.9851L62.9011 17.46H64.1866L65.0919 20.5293H65.1133L66.056 17.46H67.6951Z" fill="#212B36"/>
<path d="M22.0889 32.2026C21.876 32.6018 21.7051 33.0368 21.5761 33.5077C21.4471 33.9764 21.3827 34.4544 21.3827 34.9416C21.3827 35.4063 21.441 35.8557 21.5577 36.2896C21.6744 36.7216 21.8432 37.1689 22.0643 37.6315H21.4349C21.2649 37.3449 21.1155 37.0614 20.9865 36.7809C20.8576 36.5025 20.7573 36.2129 20.6856 35.9119C20.616 35.611 20.5812 35.2855 20.5812 34.9355C20.5812 34.4258 20.6611 33.9386 20.8207 33.4739C20.9825 33.0071 21.1933 32.5834 21.4533 32.2026H22.0889ZM25.5188 34.1924V34.8464H22.6171V34.1924H25.5188ZM24.398 35.9672H23.744V33.0655H24.398V35.9672ZM28.1649 32.3132H29.0461V35.0184H29.7309V35.7707H29.0461V36.7533H28.1833L28.1864 35.7707H26.1413V35.0338L28.1649 32.3132ZM26.9704 35.0184H28.1864V33.391L26.9704 35.0184ZM30.2053 33.6796C30.2053 33.3603 30.28 33.0952 30.4294 32.8843C30.5809 32.6735 30.7846 32.5158 31.0405 32.4114C31.2964 32.305 31.5809 32.2518 31.8941 32.2518C32.2258 32.2518 32.5205 32.2948 32.7785 32.3807C33.0384 32.4667 33.2432 32.5977 33.3926 32.7738C33.542 32.9498 33.6167 33.173 33.6167 33.4432C33.6167 33.6622 33.5533 33.8557 33.4264 34.0235C33.2994 34.1893 33.0927 34.3214 32.8061 34.4196C32.9699 34.4647 33.1214 34.5332 33.2606 34.6254C33.3998 34.7175 33.5113 34.8352 33.5952 34.9785C33.6792 35.1218 33.7211 35.2937 33.7211 35.4943C33.7211 35.7113 33.673 35.9027 33.5768 36.0685C33.4806 36.2344 33.3476 36.3736 33.1776 36.4862C33.0077 36.5987 32.8112 36.6827 32.5881 36.7379C32.365 36.7932 32.1265 36.8208 31.8726 36.8208C31.5164 36.8188 31.2125 36.7605 30.9607 36.6458C30.7109 36.5291 30.5185 36.3633 30.3834 36.1484C30.2503 35.9334 30.1818 35.6776 30.1777 35.3807H31.0405C31.0835 35.6325 31.1817 35.8147 31.3353 35.9273C31.4888 36.0399 31.671 36.0962 31.8818 36.0962C32.0661 36.0962 32.2237 36.0696 32.3547 36.0163C32.4878 35.9631 32.5891 35.8894 32.6587 35.7953C32.7304 35.6991 32.7662 35.5895 32.7662 35.4667C32.7662 35.3398 32.7293 35.2303 32.6556 35.1382C32.584 35.046 32.4837 34.9744 32.3547 34.9232C32.2258 34.87 32.0784 34.8413 31.9126 34.8372L31.4888 34.8219V34.1095L31.8696 34.088C32.0292 34.0819 32.1684 34.0522 32.2872 33.999C32.4059 33.9457 32.498 33.8751 32.5635 33.7871C32.6311 33.697 32.6649 33.5957 32.6649 33.4831C32.6649 33.3746 32.6311 33.2804 32.5635 33.2006C32.496 33.1208 32.4028 33.0583 32.2841 33.0133C32.1654 32.9683 32.0292 32.9457 31.8757 32.9457C31.7345 32.9457 31.6045 32.9693 31.4857 33.0164C31.367 33.0634 31.2698 33.1412 31.194 33.2497C31.1183 33.3562 31.0743 33.4995 31.062 33.6796H30.2053ZM35.401 32.2456C35.6119 32.2456 35.8012 32.3019 35.9691 32.4145C36.1369 32.5271 36.27 32.6796 36.3683 32.872C36.4665 33.0645 36.5156 33.2794 36.5156 33.5169C36.5156 33.7523 36.4675 33.9642 36.3713 34.1525C36.2751 34.3408 36.142 34.4903 35.9721 34.6008C35.8043 34.7093 35.6139 34.7635 35.401 34.7635C35.1881 34.7635 34.9967 34.7093 34.8268 34.6008C34.6569 34.4903 34.5228 34.3408 34.4246 34.1525C34.3263 33.9642 34.2772 33.7523 34.2772 33.5169C34.2772 33.2794 34.3263 33.0645 34.4246 32.872C34.5249 32.6796 34.66 32.5271 34.8299 32.4145C34.9998 32.3019 35.1902 32.2456 35.401 32.2456ZM35.3949 34.3091C35.5566 34.3091 35.6733 34.2395 35.7449 34.1003C35.8186 33.959 35.8555 33.7646 35.8555 33.5169C35.8555 33.261 35.8176 33.0604 35.7418 32.915C35.6661 32.7697 35.5504 32.697 35.3949 32.697C35.2925 32.697 35.2076 32.7308 35.14 32.7983C35.0725 32.8639 35.0213 32.958 34.9865 33.0808C34.9537 33.2037 34.9373 33.349 34.9373 33.5169C34.9373 33.7625 34.9742 33.956 35.0479 34.0972C35.1216 34.2385 35.2372 34.3091 35.3949 34.3091ZM38.315 34.2907C38.5259 34.2907 38.7152 34.348 38.8831 34.4626C39.053 34.5752 39.1871 34.7277 39.2853 34.9201C39.3836 35.1126 39.4327 35.3265 39.4327 35.5619C39.4327 35.7973 39.3846 36.0102 39.2884 36.2006C39.1922 36.3889 39.0591 36.5384 38.8892 36.6489C38.7214 36.7594 38.53 36.8147 38.315 36.8147C38.1001 36.8147 37.9077 36.7594 37.7377 36.6489C37.5678 36.5384 37.4338 36.3889 37.3355 36.2006C37.2372 36.0102 37.1881 35.7973 37.1881 35.5619C37.1881 35.3265 37.2372 35.1126 37.3355 34.9201C37.4358 34.7277 37.5709 34.5752 37.7408 34.4626C37.9128 34.348 38.1042 34.2907 38.315 34.2907ZM38.3089 36.351C38.4133 36.351 38.4993 36.3193 38.5668 36.2559C38.6344 36.1924 38.6845 36.1023 38.7173 35.9856C38.7521 35.8669 38.7695 35.7277 38.7695 35.568C38.7695 35.3981 38.7521 35.2528 38.7173 35.132C38.6825 35.0092 38.6313 34.915 38.5637 34.8495C38.4962 34.782 38.4112 34.7482 38.3089 34.7482C38.2065 34.7482 38.1216 34.782 38.054 34.8495C37.9885 34.915 37.9384 35.0092 37.9036 35.132C37.8708 35.2548 37.8544 35.4002 37.8544 35.568C37.8544 35.7277 37.8708 35.8669 37.9036 35.9856C37.9363 36.1023 37.9865 36.1924 38.054 36.2559C38.1216 36.3193 38.2065 36.351 38.3089 36.351ZM38.5699 32.2641L35.5852 36.7779L35.0571 36.7686L38.0509 32.2641H38.5699ZM39.8316 32.2026C40.0445 32.6018 40.2154 33.0368 40.3444 33.5077C40.4734 33.9764 40.5379 34.4544 40.5379 34.9416C40.5379 35.4063 40.4795 35.8557 40.3628 36.2896C40.2461 36.7216 40.0773 37.1689 39.8562 37.6315H40.4857C40.6556 37.3449 40.805 37.0614 40.934 36.7809C41.0629 36.5025 41.1622 36.2129 41.2318 35.9119C41.3035 35.611 41.3393 35.2855 41.3393 34.9355C41.3393 34.4258 41.2584 33.9386 41.0967 33.4739C40.937 33.0071 40.7272 32.5834 40.4672 32.2026H39.8316ZM44.6584 36.8147C44.2326 36.8147 43.901 36.6683 43.6635 36.3756C43.4261 36.0808 43.3074 35.6714 43.3074 35.1474C43.3074 34.8157 43.3555 34.5281 43.4517 34.2845C43.5479 34.0409 43.6902 33.8526 43.8785 33.7195C44.0668 33.5844 44.2971 33.5169 44.5694 33.5169C44.684 33.5169 44.7905 33.5302 44.8887 33.5568C44.989 33.5814 45.0801 33.6162 45.162 33.6612C45.2439 33.7062 45.3155 33.7584 45.377 33.8178C45.4384 33.8772 45.4885 33.9406 45.5274 34.0082V32.1904H46.4271V36.7533H45.7761L45.6748 36.1023C45.6461 36.1904 45.6062 36.2763 45.555 36.3603C45.5039 36.4442 45.4384 36.521 45.3585 36.5906C45.2787 36.6581 45.1804 36.7124 45.0637 36.7533C44.9491 36.7942 44.814 36.8147 44.6584 36.8147ZM44.8549 36.1699C45.0801 36.1699 45.248 36.0911 45.3585 35.9334C45.4711 35.7758 45.5274 35.5097 45.5274 35.1351C45.5254 34.9181 45.4998 34.738 45.4506 34.5947C45.4015 34.4514 45.3278 34.3449 45.2296 34.2753C45.1333 34.2037 45.0105 34.1678 44.8611 34.1678C44.6666 34.1678 44.5049 34.2426 44.3759 34.392C44.247 34.5394 44.1825 34.7871 44.1825 35.1351C44.1825 35.4892 44.2429 35.7502 44.3636 35.9181C44.4844 36.0859 44.6482 36.1699 44.8549 36.1699ZM48.561 36.8147C48.2498 36.8147 47.9786 36.7482 47.7473 36.6151C47.518 36.4821 47.3399 36.2937 47.213 36.0501C47.0881 35.8065 47.0257 35.5179 47.0257 35.1842C47.0257 34.8505 47.0881 34.5588 47.213 34.3091C47.3399 34.0593 47.518 33.8649 47.7473 33.7257C47.9786 33.5865 48.2509 33.5169 48.5641 33.5169C48.8773 33.5169 49.1485 33.5854 49.3778 33.7226C49.607 33.8577 49.7841 34.0501 49.909 34.2999C50.0339 34.5496 50.0963 34.8444 50.0963 35.1842C50.0963 35.5036 50.0349 35.7861 49.9121 36.0317C49.7913 36.2753 49.6163 36.4667 49.387 36.6059C49.1598 36.7451 48.8844 36.8147 48.561 36.8147ZM48.5641 36.1484C48.7217 36.1484 48.8486 36.1023 48.9448 36.0102C49.041 35.9181 49.1106 35.7973 49.1536 35.6479C49.1986 35.4964 49.2212 35.3316 49.2212 35.1535C49.2212 34.9856 49.2007 34.827 49.1598 34.6776C49.1209 34.5281 49.0533 34.4073 48.9571 34.3152C48.8609 34.2231 48.7299 34.1771 48.5641 34.1771C48.4064 34.1771 48.2785 34.2211 48.1802 34.3091C48.084 34.3951 48.0134 34.5128 47.9684 34.6622C47.9233 34.8096 47.9008 34.9734 47.9008 35.1535C47.9008 35.3193 47.9213 35.479 47.9622 35.6325C48.0032 35.784 48.0717 35.9079 48.1679 36.0041C48.2642 36.1003 48.3962 36.1484 48.5641 36.1484ZM54.8801 37.742H53.9834V36.2774C53.9405 36.3531 53.8883 36.4237 53.8268 36.4892C53.7654 36.5527 53.6958 36.609 53.618 36.6581C53.5423 36.7072 53.4594 36.7451 53.3693 36.7717C53.2793 36.8004 53.183 36.8147 53.0807 36.8147C52.8432 36.8147 52.6242 36.7584 52.4236 36.6458C52.225 36.5332 52.0664 36.3541 51.9476 36.1085C51.8289 35.8608 51.7695 35.5384 51.7695 35.1412C51.7695 34.783 51.8197 34.4841 51.92 34.2446C52.0203 34.0031 52.1626 33.8219 52.3468 33.7011C52.531 33.5783 52.747 33.5169 52.9947 33.5169C53.1012 33.5169 53.2035 33.5302 53.3018 33.5568C53.4 33.5814 53.4911 33.6172 53.5751 33.6643C53.659 33.7113 53.7347 33.7666 53.8023 33.8301C53.8719 33.8915 53.9302 33.9601 53.9773 34.0358L53.9834 33.5783H54.8801V37.742ZM53.2987 36.1576C53.4522 36.1576 53.5802 36.1105 53.6825 36.0163C53.7849 35.9222 53.8606 35.7983 53.9098 35.6448C53.9609 35.4913 53.9865 35.3255 53.9865 35.1474C53.9865 34.869 53.9302 34.6366 53.8176 34.4503C53.705 34.262 53.5321 34.1678 53.2987 34.1678C53.1063 34.1678 52.9435 34.2507 52.8105 34.4166C52.6774 34.5803 52.6109 34.8239 52.6109 35.1474C52.6109 35.481 52.6733 35.7328 52.7982 35.9027C52.9251 36.0726 53.0919 36.1576 53.2987 36.1576ZM56.8177 36.8147C56.6703 36.8147 56.525 36.7922 56.3817 36.7472C56.2404 36.7021 56.1115 36.6356 55.9948 36.5476C55.8781 36.4595 55.7839 36.351 55.7123 36.2221C55.6427 36.0931 55.6079 35.9437 55.6079 35.7738V33.5783H56.5045V35.6602C56.5045 35.8075 56.5526 35.9283 56.6488 36.0225C56.745 36.1167 56.8863 36.1637 57.0726 36.1637C57.2486 36.1637 57.3878 36.1187 57.4902 36.0286C57.5946 35.9365 57.6468 35.8086 57.6468 35.6448V33.5783H58.5342V36.7533H57.8587L57.7543 36.1238C57.7174 36.3101 57.6478 36.4534 57.5455 36.5537C57.4451 36.652 57.3295 36.7195 57.1985 36.7564C57.0695 36.7953 56.9426 36.8147 56.8177 36.8147ZM60.0011 35.3715C59.9991 35.5332 60.0247 35.6745 60.0779 35.7953C60.1311 35.914 60.2079 36.0061 60.3082 36.0716C60.4105 36.1351 60.5334 36.1668 60.6767 36.1668C60.8302 36.1668 60.9643 36.1341 61.0789 36.0685C61.1956 36.003 61.2765 35.8956 61.3215 35.7461H62.1291C62.0943 35.9713 62.0042 36.1637 61.8589 36.3234C61.7156 36.4831 61.5416 36.6049 61.3368 36.6888C61.1321 36.7727 60.9192 36.8147 60.6982 36.8147C60.385 36.8147 60.1086 36.7492 59.8691 36.6182C59.6316 36.4851 59.4464 36.2978 59.3133 36.0563C59.1803 35.8147 59.1137 35.5302 59.1137 35.2026C59.1137 34.8853 59.1741 34.5998 59.2949 34.3459C59.4157 34.0901 59.5907 33.8884 59.82 33.741C60.0513 33.5916 60.3287 33.5169 60.6521 33.5169C60.9755 33.5169 61.2468 33.5854 61.4658 33.7226C61.6869 33.8577 61.8527 34.0471 61.9633 34.2907C62.0758 34.5322 62.1321 34.8116 62.1321 35.1289V35.3715H60.0011ZM59.9981 34.8372H61.2939C61.2939 34.7103 61.2703 34.5936 61.2232 34.4872C61.1762 34.3807 61.1045 34.2968 61.0083 34.2354C60.9141 34.174 60.7954 34.1433 60.6521 34.1433C60.5129 34.1433 60.3942 34.1771 60.2959 34.2446C60.1997 34.3101 60.126 34.3961 60.0748 34.5025C60.0236 34.609 59.9981 34.7206 59.9981 34.8372ZM65.3654 36.8147C65.0542 36.8147 64.783 36.7482 64.5517 36.6151C64.3224 36.4821 64.1443 36.2937 64.0174 36.0501C63.8925 35.8065 63.8301 35.5179 63.8301 35.1842C63.8301 34.8505 63.8925 34.5588 64.0174 34.3091C64.1443 34.0593 64.3224 33.8649 64.5517 33.7257C64.783 33.5865 65.0553 33.5169 65.3685 33.5169C65.6817 33.5169 65.9529 33.5854 66.1822 33.7226C66.4114 33.8577 66.5885 34.0501 66.7134 34.2999C66.8383 34.5496 66.9007 34.8444 66.9007 35.1842C66.9007 35.5036 66.8393 35.7861 66.7165 36.0317C66.5957 36.2753 66.4207 36.4667 66.1914 36.6059C65.9642 36.7451 65.6888 36.8147 65.3654 36.8147ZM65.3685 36.1484C65.5261 36.1484 65.653 36.1023 65.7492 36.0102C65.8454 35.9181 65.915 35.7973 65.958 35.6479C66.0031 35.4964 66.0256 35.3316 66.0256 35.1535C66.0256 34.9856 66.0051 34.827 65.9642 34.6776C65.9253 34.5281 65.8577 34.4073 65.7615 34.3152C65.6653 34.2231 65.5343 34.1771 65.3685 34.1771C65.2108 34.1771 65.0829 34.2211 64.9846 34.3091C64.8884 34.3951 64.8178 34.5128 64.7728 34.6622C64.7277 34.8096 64.7052 34.9734 64.7052 35.1535C64.7052 35.3193 64.7257 35.479 64.7666 35.6325C64.8076 35.784 64.8761 35.9079 64.9724 36.0041C65.0686 36.1003 65.2006 36.1484 65.3685 36.1484ZM69.9518 36.8147C69.8044 36.8147 69.6591 36.7922 69.5158 36.7472C69.3745 36.7021 69.2455 36.6356 69.1289 36.5476C69.0122 36.4595 68.918 36.351 68.8464 36.2221C68.7768 36.0931 68.742 35.9437 68.742 35.7738V33.5783H69.6386V35.6602C69.6386 35.8075 69.6867 35.9283 69.7829 36.0225C69.8791 36.1167 70.0204 36.1637 70.2066 36.1637C70.3827 36.1637 70.5219 36.1187 70.6243 36.0286C70.7287 35.9365 70.7809 35.8086 70.7809 35.6448V33.5783H71.6683V36.7533H70.9927L70.8883 36.1238C70.8515 36.3101 70.7819 36.4534 70.6795 36.5537C70.5792 36.652 70.4636 36.7195 70.3325 36.7564C70.2036 36.7953 70.0767 36.8147 69.9518 36.8147ZM73.4295 36.8086C73.1962 36.8086 73.0109 36.7809 72.8738 36.7257C72.7366 36.6704 72.6353 36.5977 72.5698 36.5076C72.5043 36.4155 72.4623 36.3142 72.4439 36.2037C72.4255 36.0911 72.4162 35.9775 72.4162 35.8628V32.1904H73.2944V35.7523C73.2944 35.869 73.319 35.9641 73.3681 36.0378C73.4193 36.1095 73.5145 36.1535 73.6537 36.1699L73.8042 36.1791V36.7318C73.7427 36.7523 73.6803 36.7697 73.6168 36.784C73.5534 36.8004 73.491 36.8086 73.4295 36.8086ZM76.1679 34.2016H75.4617L75.4678 35.8935C75.4678 35.9713 75.477 36.0297 75.4954 36.0685C75.5159 36.1054 75.5466 36.13 75.5876 36.1422C75.6305 36.1525 75.6848 36.1576 75.7503 36.1576H76.1771V36.7103C76.1362 36.7287 76.0717 36.7461 75.9837 36.7625C75.8977 36.7789 75.7769 36.7871 75.6213 36.7871C75.3429 36.7871 75.127 36.7512 74.9734 36.6796C74.822 36.608 74.7165 36.5076 74.6572 36.3787C74.5978 36.2497 74.5681 36.1003 74.5681 35.9304V34.2016H74.0523V33.5783H74.5988L74.823 32.6203H75.4617V33.5752H76.1679V34.2016ZM77.733 33.5783V36.7533H76.8763V33.5783H77.733ZM77.7422 32.3163V33.1238H76.8702V32.3163H77.7422ZM78.5635 36.7533V33.5783H79.4417V34.0266C79.5379 33.8874 79.6668 33.7676 79.8286 33.6673C79.9923 33.567 80.1981 33.5169 80.4458 33.5169C80.5542 33.5169 80.6648 33.5363 80.7774 33.5752C80.89 33.6141 80.9954 33.6714 81.0936 33.7472C81.194 33.8209 81.2748 33.914 81.3362 34.0266C81.4386 33.8812 81.5727 33.7605 81.7385 33.6643C81.9063 33.566 82.0926 33.5169 82.2973 33.5169C82.4161 33.5169 82.5358 33.5363 82.6566 33.5752C82.7794 33.6141 82.892 33.6776 82.9944 33.7656C83.0967 33.8536 83.1786 33.9713 83.24 34.1187C83.3035 34.2641 83.3352 34.4442 83.3352 34.6591V36.7533H82.4386V34.7697C82.4386 34.6428 82.413 34.5414 82.3618 34.4657C82.3127 34.3879 82.2492 34.3326 82.1714 34.2999C82.0957 34.2651 82.0148 34.2477 81.9289 34.2477C81.849 34.2477 81.7682 34.2641 81.6863 34.2968C81.6044 34.3275 81.5348 34.3777 81.4775 34.4473C81.4202 34.5169 81.3915 34.608 81.3915 34.7205V36.7533H80.498V34.6898C80.498 34.5936 80.4724 34.5128 80.4212 34.4473C80.37 34.3818 80.3055 34.3326 80.2277 34.2999C80.152 34.2651 80.0742 34.2477 79.9944 34.2477C79.9125 34.2477 79.8306 34.2651 79.7487 34.2999C79.6668 34.3326 79.5983 34.3848 79.543 34.4565C79.4877 34.5261 79.4601 34.6141 79.4601 34.7205V36.7533H78.5635ZM85.4263 36.8147C85.1152 36.8147 84.8439 36.7482 84.6126 36.6151C84.3833 36.4821 84.2053 36.2937 84.0783 36.0501C83.9535 35.8065 83.891 35.5179 83.891 35.1842C83.891 34.8505 83.9535 34.5588 84.0783 34.3091C84.2053 34.0593 84.3833 33.8649 84.6126 33.7257C84.8439 33.5865 85.1162 33.5169 85.4294 33.5169C85.7426 33.5169 86.0138 33.5854 86.2431 33.7226C86.4724 33.8577 86.6495 34.0501 86.7743 34.2999C86.8992 34.5496 86.9616 34.8444 86.9616 35.1842C86.9616 35.5036 86.9002 35.7861 86.7774 36.0317C86.6566 36.2753 86.4816 36.4667 86.2523 36.6059C86.0251 36.7451 85.7498 36.8147 85.4263 36.8147ZM85.4294 36.1484C85.587 36.1484 85.7139 36.1023 85.8102 36.0102C85.9064 35.9181 85.976 35.7973 86.019 35.6479C86.064 35.4964 86.0865 35.3316 86.0865 35.1535C86.0865 34.9856 86.066 34.827 86.0251 34.6776C85.9862 34.5281 85.9187 34.4073 85.8224 34.3152C85.7262 34.2231 85.5952 34.1771 85.4294 34.1771C85.2718 34.1771 85.1438 34.2211 85.0456 34.3091C84.9494 34.3951 84.8787 34.5128 84.8337 34.6622C84.7887 34.8096 84.7662 34.9734 84.7662 35.1535C84.7662 35.3193 84.7866 35.479 84.8276 35.6325C84.8685 35.784 84.9371 35.9079 85.0333 36.0041C85.1295 36.1003 85.2615 36.1484 85.4294 36.1484ZM89.764 36.8147C89.5613 36.8147 89.3792 36.7768 89.2174 36.7011C89.0557 36.6254 88.9278 36.5158 88.8336 36.3725C88.7394 36.2272 88.6924 36.0511 88.6924 35.8444C88.6924 35.4964 88.8223 35.2323 89.0823 35.0522C89.3423 34.87 89.7527 34.7758 90.3136 34.7697L90.7098 34.7635V34.5732C90.7098 34.4278 90.6668 34.3163 90.5808 34.2385C90.4969 34.1586 90.3658 34.1197 90.1877 34.1218C90.0567 34.1238 89.9319 34.1545 89.8131 34.2139C89.6964 34.2733 89.6166 34.3766 89.5736 34.524H88.8275C88.8397 34.2948 88.9063 34.1064 89.0271 33.959C89.1478 33.8096 89.3116 33.6991 89.5184 33.6274C89.7272 33.5537 89.9636 33.5169 90.2277 33.5169C90.5532 33.5169 90.8142 33.5578 91.0107 33.6397C91.2072 33.7195 91.3495 33.8352 91.4375 33.9867C91.5255 34.1361 91.5695 34.3142 91.5695 34.521V36.7533H90.8203L90.7466 36.2067C90.6381 36.436 90.502 36.5946 90.3382 36.6827C90.1765 36.7707 89.9851 36.8147 89.764 36.8147ZM90.0649 36.2252C90.1468 36.2252 90.2256 36.2108 90.3014 36.1822C90.3791 36.1515 90.4477 36.1115 90.5071 36.0624C90.5685 36.0112 90.6176 35.9539 90.6545 35.8905C90.6913 35.827 90.7098 35.7615 90.7098 35.6939V35.2241L90.3873 35.2303C90.2379 35.2323 90.0987 35.2507 89.9697 35.2855C89.8408 35.3183 89.7364 35.3725 89.6565 35.4483C89.5787 35.524 89.5398 35.6264 89.5398 35.7553C89.5398 35.9027 89.591 36.0184 89.6934 36.1023C89.7957 36.1842 89.9196 36.2252 90.0649 36.2252ZM92.3632 36.7533V33.5783H93.2445V34.0266C93.2936 33.9488 93.3571 33.8741 93.4349 33.8024C93.5147 33.7287 93.615 33.6684 93.7358 33.6213C93.8566 33.5742 93.9999 33.5506 94.1657 33.5506C94.3601 33.5506 94.5413 33.5885 94.7092 33.6643C94.8791 33.74 95.0162 33.8598 95.1206 34.0235C95.225 34.1852 95.2772 34.3971 95.2772 34.6591V36.7533H94.3806V34.7697C94.3806 34.5977 94.3294 34.4688 94.2271 34.3828C94.1247 34.2968 93.9999 34.2538 93.8525 34.2538C93.7542 34.2538 93.659 34.2712 93.5669 34.306C93.4768 34.3408 93.4031 34.393 93.3458 34.4626C93.2885 34.5322 93.2598 34.6182 93.2598 34.7205V36.7533H92.3632ZM97.3669 36.8147C97.0558 36.8147 96.7845 36.7482 96.5532 36.6151C96.324 36.4821 96.1459 36.2937 96.0189 36.0501C95.8941 35.8065 95.8316 35.5179 95.8316 35.1842C95.8316 34.8505 95.8941 34.5588 96.0189 34.3091C96.1459 34.0593 96.324 33.8649 96.5532 33.7257C96.7845 33.5865 97.0568 33.5169 97.37 33.5169C97.6832 33.5169 97.9544 33.5854 98.1837 33.7226C98.413 33.8577 98.5901 34.0501 98.7149 34.2999C98.8398 34.5496 98.9022 34.8444 98.9022 35.1842C98.9022 35.5036 98.8408 35.7861 98.718 36.0317C98.5972 36.2753 98.4222 36.4667 98.1929 36.6059C97.9657 36.7451 97.6904 36.8147 97.3669 36.8147ZM97.37 36.1484C97.5276 36.1484 97.6546 36.1023 97.7508 36.0102C97.847 35.9181 97.9166 35.7973 97.9596 35.6479C98.0046 35.4964 98.0271 35.3316 98.0271 35.1535C98.0271 34.9856 98.0066 34.827 97.9657 34.6776C97.9268 34.5281 97.8593 34.4073 97.763 34.3152C97.6668 34.2231 97.5358 34.1771 97.37 34.1771C97.2124 34.1771 97.0844 34.2211 96.9862 34.3091C96.89 34.3951 96.8193 34.5128 96.7743 34.6622C96.7293 34.8096 96.7068 34.9734 96.7068 35.1535C96.7068 35.3193 96.7272 35.479 96.7682 35.6325C96.8091 35.784 96.8777 35.9079 96.9739 36.0041C97.0701 36.1003 97.2021 36.1484 97.37 36.1484Z" fill="#637381"/>
<rect x="195.11" y="57.1099" width="5.26391" height="5.26391" rx="2.63195" fill="#2D99FF"/>
<path d="M207.77 57.6189L206.347 61.7418H205.403L203.992 57.6189H204.787L205.876 60.7752L206.974 57.6189H207.77ZM209.071 58.7936V61.7418H208.275V58.7936H209.071ZM209.079 57.6217V58.3716H208.27V57.6217H209.079ZM210.51 60.4587C210.508 60.6089 210.531 60.7401 210.581 60.8522C210.63 60.9625 210.702 61.048 210.795 61.1088C210.89 61.1678 211.004 61.1972 211.137 61.1972C211.279 61.1972 211.404 61.1668 211.51 61.106C211.619 61.0452 211.694 60.9454 211.736 60.8066H212.486C212.453 61.0157 212.37 61.1944 212.235 61.3426C212.102 61.4909 211.94 61.604 211.75 61.6819C211.56 61.7599 211.362 61.7988 211.157 61.7988C210.866 61.7988 210.609 61.738 210.387 61.6164C210.167 61.4928 209.995 61.3189 209.871 61.0946C209.747 60.8703 209.686 60.6061 209.686 60.3019C209.686 60.0073 209.742 59.7421 209.854 59.5064C209.966 59.2688 210.129 59.0816 210.341 58.9447C210.556 58.8059 210.814 58.7366 211.114 58.7366C211.414 58.7366 211.666 58.8002 211.87 58.9276C212.075 59.0531 212.229 59.2289 212.332 59.4551C212.436 59.6794 212.488 59.9389 212.488 60.2335V60.4587H210.51ZM210.507 59.9626H211.71C211.71 59.8448 211.688 59.7364 211.644 59.6376C211.601 59.5387 211.534 59.4608 211.445 59.4038C211.357 59.3467 211.247 59.3182 211.114 59.3182C210.985 59.3182 210.875 59.3496 210.783 59.4123C210.694 59.4732 210.626 59.553 210.578 59.6518C210.531 59.7507 210.507 59.8543 210.507 59.9626ZM217.01 58.7936L216.04 61.7418H215.379L214.829 59.9569L214.281 61.7418H213.637L212.682 58.7936H213.417L213.982 60.6213H214.005L214.546 58.7936H215.139L215.687 60.6213H215.71L216.257 58.7936H217.01ZM218.532 61.7988C218.327 61.7988 218.129 61.7656 217.939 61.6991C217.749 61.6306 217.588 61.5242 217.457 61.3797C217.326 61.2333 217.242 61.0442 217.206 60.8123H217.927C217.952 60.9168 217.997 60.9995 218.061 61.0604C218.128 61.1212 218.203 61.1649 218.287 61.1915C218.37 61.2162 218.45 61.2286 218.526 61.2286C218.686 61.2286 218.814 61.2039 218.911 61.1545C219.01 61.1031 219.059 61.0252 219.059 60.9207C219.059 60.8408 219.03 60.7771 218.971 60.7296C218.914 60.6821 218.819 60.646 218.686 60.6213L218.167 60.5129C217.906 60.4578 217.697 60.3647 217.54 60.2335C217.382 60.1004 217.301 59.9122 217.297 59.6689C217.297 59.4922 217.344 59.3334 217.437 59.1928C217.532 59.0521 217.672 58.9409 217.856 58.8592C218.04 58.7774 218.267 58.7366 218.535 58.7366C218.898 58.7366 219.188 58.8164 219.404 58.9761C219.623 59.1357 219.734 59.361 219.738 59.6518H219.042C219.021 59.5378 218.964 59.4503 218.871 59.3895C218.78 59.3268 218.665 59.2954 218.526 59.2954C218.382 59.2954 218.263 59.3211 218.17 59.3724C218.077 59.4237 218.03 59.5017 218.03 59.6062C218.03 59.6841 218.068 59.7459 218.144 59.7915C218.22 59.8353 218.338 59.8733 218.498 59.9056L218.977 60.0139C219.142 60.0539 219.276 60.109 219.379 60.1793C219.483 60.2477 219.564 60.3228 219.621 60.4046C219.678 60.4863 219.717 60.569 219.738 60.6526C219.761 60.7344 219.772 60.8085 219.772 60.875C219.772 61.0708 219.72 61.2381 219.615 61.3769C219.511 61.5137 219.365 61.6183 219.179 61.6905C218.993 61.7627 218.777 61.7988 218.532 61.7988Z" fill="#212B36"/>
<rect x="231.411" y="57.1099" width="5.26391" height="5.26391" rx="2.63195" fill="#FFE700"/>
<path d="M242.326 57.5618C242.635 57.5618 242.911 57.6246 243.153 57.75C243.396 57.8736 243.592 58.0428 243.74 58.2576C243.89 58.4723 243.978 58.7147 244.005 58.9846H243.133C243.106 58.8421 243.057 58.7157 242.987 58.6054C242.917 58.4933 242.825 58.4058 242.711 58.3431C242.597 58.2785 242.46 58.2461 242.3 58.2461C242.108 58.2461 241.943 58.2927 241.804 58.3859C241.665 58.479 241.559 58.6292 241.485 58.8364C241.41 59.0436 241.373 59.3173 241.373 59.6575C241.373 60.1708 241.455 60.5424 241.619 60.7724C241.784 61.0005 242.011 61.1145 242.3 61.1145C242.46 61.1145 242.597 61.0784 242.711 61.0062C242.825 60.9321 242.917 60.8351 242.987 60.7154C243.057 60.5937 243.106 60.4606 243.133 60.3162H244.005C243.98 60.512 243.933 60.6992 243.862 60.8779C243.792 61.0547 243.692 61.2124 243.563 61.3512C243.434 61.49 243.268 61.5993 243.064 61.6791C242.861 61.7589 242.615 61.7988 242.326 61.7988C241.942 61.7988 241.61 61.7095 241.331 61.5308C241.051 61.3521 240.835 61.1012 240.683 60.7781C240.533 60.4549 240.458 60.0776 240.458 59.6461C240.458 59.2127 240.533 58.8411 240.683 58.5313C240.833 58.2195 241.048 57.98 241.328 57.8128C241.607 57.6455 241.94 57.5618 242.326 57.5618ZM245.575 61.7931C245.358 61.7931 245.186 61.7675 245.059 61.7162C244.931 61.6648 244.837 61.5974 244.776 61.5137C244.716 61.4282 244.677 61.3341 244.66 61.2314C244.642 61.1269 244.634 61.0214 244.634 60.9149V57.5048H245.449V60.8123C245.449 60.9207 245.472 61.009 245.518 61.0775C245.565 61.144 245.654 61.1849 245.783 61.2001L245.923 61.2086V61.7219C245.866 61.7409 245.808 61.757 245.749 61.7703C245.69 61.7855 245.632 61.7931 245.575 61.7931ZM247.304 58.7936V61.7418H246.509V58.7936H247.304ZM247.313 57.6217V58.3716H246.503V57.6217H247.313ZM250.787 62.6599H249.955V61.2999C249.915 61.3702 249.866 61.4358 249.809 61.4966C249.752 61.5555 249.688 61.6078 249.616 61.6534C249.545 61.6991 249.468 61.7342 249.385 61.7589C249.301 61.7855 249.212 61.7988 249.117 61.7988C248.896 61.7988 248.693 61.7466 248.506 61.642C248.322 61.5375 248.175 61.3712 248.064 61.1431C247.954 60.913 247.899 60.6137 247.899 60.2449C247.899 59.9122 247.946 59.6347 248.039 59.4123C248.132 59.188 248.264 59.0198 248.435 58.9076C248.606 58.7936 248.807 58.7366 249.037 58.7366C249.136 58.7366 249.231 58.7489 249.322 58.7736C249.413 58.7964 249.498 58.8297 249.576 58.8734C249.654 58.9171 249.724 58.9685 249.787 59.0274C249.851 59.0844 249.905 59.1481 249.949 59.2184L249.955 58.7936H250.787V62.6599ZM249.319 61.1887C249.462 61.1887 249.58 61.145 249.675 61.0575C249.77 60.9701 249.841 60.8551 249.886 60.7125C249.934 60.5699 249.958 60.416 249.958 60.2506C249.958 59.9921 249.905 59.7763 249.801 59.6034C249.696 59.4285 249.536 59.341 249.319 59.341C249.14 59.341 248.989 59.418 248.866 59.572C248.742 59.7241 248.68 59.9503 248.68 60.2506C248.68 60.5604 248.738 60.7942 248.854 60.952C248.972 61.1098 249.127 61.1887 249.319 61.1887ZM252.587 61.7988C252.45 61.7988 252.315 61.7779 252.182 61.7361C252.051 61.6943 251.931 61.6325 251.823 61.5508C251.714 61.469 251.627 61.3683 251.56 61.2485C251.496 61.1288 251.463 60.99 251.463 60.8323V58.7936H252.296V60.7268C252.296 60.8636 252.341 60.9758 252.43 61.0632C252.519 61.1507 252.65 61.1944 252.823 61.1944C252.987 61.1944 253.116 61.1526 253.211 61.0689C253.308 60.9834 253.357 60.8646 253.357 60.7125V58.7936H254.181V61.7418H253.553L253.456 61.1573C253.422 61.3303 253.357 61.4633 253.262 61.5565C253.169 61.6477 253.062 61.7105 252.94 61.7447C252.821 61.7808 252.703 61.7988 252.587 61.7988ZM255.543 60.4587C255.541 60.6089 255.565 60.7401 255.614 60.8522C255.663 60.9625 255.735 61.048 255.828 61.1088C255.923 61.1678 256.037 61.1972 256.17 61.1972C256.313 61.1972 256.437 61.1668 256.544 61.106C256.652 61.0452 256.727 60.9454 256.769 60.8066H257.519C257.486 61.0157 257.403 61.1944 257.268 61.3426C257.135 61.4909 256.973 61.604 256.783 61.6819C256.593 61.7599 256.395 61.7988 256.19 61.7988C255.899 61.7988 255.643 61.738 255.42 61.6164C255.2 61.4928 255.028 61.3189 254.904 61.0946C254.78 60.8703 254.719 60.6061 254.719 60.3019C254.719 60.0073 254.775 59.7421 254.887 59.5064C254.999 59.2688 255.162 59.0816 255.374 58.9447C255.589 58.8059 255.847 58.7366 256.147 58.7366C256.448 58.7366 256.699 58.8002 256.903 58.9276C257.108 59.0531 257.262 59.2289 257.365 59.4551C257.469 59.6794 257.522 59.9389 257.522 60.2335V60.4587H255.543ZM255.54 59.9626H256.743C256.743 59.8448 256.721 59.7364 256.678 59.6376C256.634 59.5387 256.567 59.4608 256.478 59.4038C256.391 59.3467 256.28 59.3182 256.147 59.3182C256.018 59.3182 255.908 59.3496 255.816 59.4123C255.727 59.4732 255.659 59.553 255.611 59.6518C255.564 59.7507 255.54 59.8543 255.54 59.9626ZM259.26 61.7988C259.055 61.7988 258.857 61.7656 258.667 61.6991C258.477 61.6306 258.316 61.5242 258.185 61.3797C258.054 61.2333 257.97 61.0442 257.934 60.8123H258.656C258.68 60.9168 258.725 60.9995 258.79 61.0604C258.856 61.1212 258.931 61.1649 259.015 61.1915C259.099 61.2162 259.178 61.2286 259.254 61.2286C259.414 61.2286 259.542 61.2039 259.639 61.1545C259.738 61.1031 259.788 61.0252 259.788 60.9207C259.788 60.8408 259.758 60.7771 259.699 60.7296C259.642 60.6821 259.547 60.646 259.414 60.6213L258.895 60.5129C258.635 60.4578 258.426 60.3647 258.268 60.2335C258.11 60.1004 258.029 59.9122 258.026 59.6689C258.026 59.4922 258.072 59.3334 258.165 59.1928C258.26 59.0521 258.4 58.9409 258.584 58.8592C258.769 58.7774 258.995 58.7366 259.263 58.7366C259.626 58.7366 259.916 58.8164 260.133 58.9761C260.351 59.1357 260.462 59.361 260.466 59.6518H259.771C259.75 59.5378 259.693 59.4503 259.599 59.3895C259.508 59.3268 259.393 59.2954 259.254 59.2954C259.11 59.2954 258.991 59.3211 258.898 59.3724C258.805 59.4237 258.758 59.5017 258.758 59.6062C258.758 59.6841 258.796 59.7459 258.872 59.7915C258.948 59.8353 259.066 59.8733 259.226 59.9056L259.705 60.0139C259.87 60.0539 260.004 60.109 260.107 60.1793C260.212 60.2477 260.292 60.3228 260.349 60.4046C260.406 60.4863 260.445 60.569 260.466 60.6526C260.489 60.7344 260.5 60.8085 260.5 60.875C260.5 61.0708 260.448 61.2381 260.344 61.3769C260.239 61.5137 260.094 61.6183 259.907 61.6905C259.721 61.7627 259.505 61.7988 259.26 61.7988Z" fill="#212B36"/>
<rect x="271.712" y="57.1099" width="5.26391" height="5.26391" rx="2.63195" fill="#00AB55"/>
<path d="M282.496 61.7988C282.292 61.7988 282.093 61.7732 281.897 61.7219C281.701 61.6705 281.522 61.5936 281.361 61.4909C281.199 61.3883 281.065 61.26 280.959 61.106C280.854 60.952 280.791 60.7714 280.77 60.5642H281.623C281.652 60.6897 281.706 60.7952 281.786 60.8807C281.865 60.9663 281.966 61.0319 282.088 61.0775C282.209 61.1231 282.344 61.1459 282.493 61.1459C282.645 61.1459 282.783 61.1269 282.909 61.0889C283.034 61.0509 283.135 60.9938 283.211 60.9178C283.287 60.8399 283.325 60.7429 283.325 60.627C283.325 60.5224 283.294 60.4369 283.231 60.3704C283.17 60.3038 283.088 60.2496 282.983 60.2078C282.879 60.166 282.76 60.1318 282.627 60.1052L281.914 59.9598C281.602 59.9008 281.355 59.7773 281.173 59.5891C280.99 59.399 280.896 59.1462 280.89 58.8307C280.888 58.5721 280.957 58.3488 281.096 58.1606C281.236 57.9705 281.426 57.8242 281.666 57.7215C281.907 57.6189 282.177 57.5675 282.476 57.5675C282.831 57.5675 283.129 57.6236 283.371 57.7358C283.614 57.846 283.799 57.9962 283.924 58.1863C284.051 58.3745 284.117 58.5845 284.121 58.8164H283.285C283.27 58.6719 283.226 58.5569 283.154 58.4714C283.082 58.3859 282.989 58.3241 282.875 58.2861C282.763 58.248 282.634 58.229 282.49 58.229C282.38 58.229 282.279 58.2414 282.188 58.2661C282.098 58.2908 282.022 58.326 281.959 58.3716C281.897 58.4153 281.848 58.4676 281.814 58.5284C281.78 58.5893 281.763 58.6577 281.763 58.7337C281.763 58.8535 281.803 58.9504 281.882 59.0245C281.962 59.0987 282.112 59.1595 282.33 59.207L283.037 59.3524C283.29 59.4019 283.491 59.4751 283.639 59.572C283.789 59.6689 283.901 59.7782 283.975 59.8999C284.051 60.0215 284.101 60.1461 284.124 60.2734C284.148 60.3989 284.161 60.5148 284.161 60.6213C284.161 60.8437 284.09 61.0442 283.95 61.2229C283.811 61.3997 283.617 61.5403 283.368 61.6449C283.119 61.7475 282.828 61.7988 282.496 61.7988ZM285.447 60.4587C285.445 60.6089 285.468 60.7401 285.518 60.8522C285.567 60.9625 285.639 61.048 285.732 61.1088C285.827 61.1678 285.941 61.1972 286.074 61.1972C286.216 61.1972 286.341 61.1668 286.447 61.106C286.556 61.0452 286.631 60.9454 286.673 60.8066H287.423C287.39 61.0157 287.307 61.1944 287.172 61.3426C287.039 61.4909 286.877 61.604 286.687 61.6819C286.497 61.7599 286.299 61.7988 286.094 61.7988C285.803 61.7988 285.546 61.738 285.324 61.6164C285.103 61.4928 284.931 61.3189 284.808 61.0946C284.684 60.8703 284.623 60.6061 284.623 60.3019C284.623 60.0073 284.679 59.7421 284.791 59.5064C284.903 59.2688 285.065 59.0816 285.278 58.9447C285.493 58.8059 285.751 58.7366 286.051 58.7366C286.351 58.7366 286.603 58.8002 286.807 58.9276C287.012 59.0531 287.166 59.2289 287.269 59.4551C287.373 59.6794 287.425 59.9389 287.425 60.2335V60.4587H285.447ZM285.444 59.9626H286.647C286.647 59.8448 286.625 59.7364 286.581 59.6376C286.538 59.5387 286.471 59.4608 286.382 59.4038C286.294 59.3467 286.184 59.3182 286.051 59.3182C285.922 59.3182 285.812 59.3496 285.72 59.4123C285.631 59.4732 285.563 59.553 285.515 59.6518C285.467 59.7507 285.444 59.8543 285.444 59.9626ZM289.33 62.717C288.806 62.717 288.406 62.6504 288.133 62.5174C287.861 62.3843 287.725 62.2094 287.725 61.9927C287.725 61.892 287.752 61.8074 287.805 61.739C287.858 61.6705 287.92 61.6164 287.99 61.5764C288.062 61.5346 288.128 61.5033 288.187 61.4824C288.248 61.4595 288.285 61.4443 288.298 61.4367C288.268 61.4196 288.224 61.3949 288.167 61.3626C288.11 61.3284 288.057 61.2828 288.007 61.2257C287.96 61.1668 287.936 61.0908 287.936 60.9976C287.936 60.8931 287.985 60.7961 288.084 60.7068C288.185 60.6175 288.337 60.5557 288.54 60.5215C288.346 60.4302 288.199 60.3067 288.098 60.1508C287.998 59.9949 287.947 59.8353 287.947 59.6718C287.947 59.4779 288.008 59.3116 288.13 59.1728C288.251 59.0341 288.417 58.9286 288.626 58.8563C288.837 58.7841 289.075 58.748 289.342 58.748C289.545 58.748 289.711 58.7698 289.841 58.8136C289.97 58.8554 290.09 58.9105 290.2 58.9789C290.244 58.9618 290.302 58.94 290.374 58.9133C290.446 58.8848 290.524 58.8544 290.608 58.8221C290.691 58.7879 290.773 58.7546 290.853 58.7223C290.933 58.6881 291.004 58.6577 291.067 58.6311L291.064 59.2755L290.553 59.3581C290.574 59.4095 290.59 59.4646 290.602 59.5235C290.613 59.5824 290.619 59.6309 290.619 59.6689C290.619 59.84 290.569 59.9997 290.468 60.148C290.369 60.2962 290.22 60.416 290.02 60.5072C289.822 60.5985 289.577 60.6441 289.285 60.6441C289.248 60.6441 289.2 60.6431 289.139 60.6412C289.08 60.6393 289.032 60.6365 288.994 60.6327C288.882 60.6384 288.805 60.6526 288.763 60.6754C288.721 60.6983 288.7 60.7249 288.7 60.7553C288.7 60.8009 288.743 60.8313 288.828 60.8465C288.914 60.8598 289.043 60.8722 289.216 60.8836C289.277 60.8874 289.362 60.8921 289.47 60.8978C289.578 60.9035 289.698 60.9111 289.829 60.9207C290.19 60.9454 290.459 61.0347 290.636 61.1887C290.815 61.3407 290.904 61.5327 290.904 61.7646C290.904 62.0403 290.773 62.2674 290.511 62.4461C290.25 62.6267 289.857 62.717 289.33 62.717ZM289.464 62.2522C289.696 62.2522 289.861 62.2237 289.96 62.1667C290.059 62.1096 290.109 62.0279 290.109 61.9215C290.109 61.8321 290.071 61.7599 289.995 61.7048C289.918 61.6477 289.807 61.6145 289.661 61.605L288.985 61.5593C288.898 61.5555 288.82 61.5688 288.751 61.5993C288.685 61.6297 288.633 61.6715 288.595 61.7247C288.558 61.7779 288.54 61.835 288.54 61.8958C288.54 62.0193 288.615 62.1096 288.766 62.1667C288.916 62.2237 289.149 62.2522 289.464 62.2522ZM289.307 60.1793C289.465 60.1793 289.592 60.1365 289.687 60.051C289.784 59.9636 289.832 59.8457 289.832 59.6975C289.832 59.5435 289.784 59.4199 289.687 59.3268C289.592 59.2336 289.465 59.1871 289.307 59.1871C289.151 59.1871 289.024 59.2336 288.925 59.3268C288.828 59.4199 288.78 59.5435 288.78 59.6975C288.78 59.8438 288.826 59.9607 288.92 60.0482C289.015 60.1356 289.144 60.1793 289.307 60.1793ZM292.581 61.7988C292.445 61.7988 292.31 61.7779 292.177 61.7361C292.045 61.6943 291.926 61.6325 291.817 61.5508C291.709 61.469 291.621 61.3683 291.555 61.2485C291.49 61.1288 291.458 60.99 291.458 60.8323V58.7936H292.291V60.7268C292.291 60.8636 292.335 60.9758 292.425 61.0632C292.514 61.1507 292.645 61.1944 292.818 61.1944C292.982 61.1944 293.111 61.1526 293.206 61.0689C293.303 60.9834 293.351 60.8646 293.351 60.7125V58.7936H294.175V61.7418H293.548L293.451 61.1573C293.417 61.3303 293.352 61.4633 293.257 61.5565C293.164 61.6477 293.057 61.7105 292.935 61.7447C292.815 61.7808 292.697 61.7988 292.581 61.7988ZM295.708 58.7936V61.7418H294.913V58.7936H295.708ZM295.717 57.6217V58.3716H294.907V57.6217H295.717ZM297.557 61.7988C297.162 61.7988 296.854 61.6629 296.634 61.3911C296.413 61.1174 296.303 60.7372 296.303 60.2506C296.303 59.9427 296.348 59.6756 296.437 59.4494C296.526 59.2232 296.658 59.0483 296.833 58.9248C297.008 58.7993 297.222 58.7366 297.475 58.7366C297.581 58.7366 297.68 58.7489 297.771 58.7736C297.864 58.7964 297.949 58.8288 298.025 58.8706C298.101 58.9124 298.168 58.9609 298.225 59.016C298.282 59.0711 298.328 59.13 298.364 59.1928V57.5048H299.2V61.7418H298.595L298.501 61.1373C298.475 61.2191 298.438 61.2989 298.39 61.3769C298.343 61.4548 298.282 61.5261 298.208 61.5907C298.133 61.6534 298.042 61.7038 297.934 61.7418C297.827 61.7798 297.702 61.7988 297.557 61.7988ZM297.74 61.2001C297.949 61.2001 298.105 61.1269 298.208 60.9805C298.312 60.8342 298.364 60.5871 298.364 60.2392C298.362 60.0377 298.339 59.8704 298.293 59.7374C298.247 59.6043 298.179 59.5055 298.088 59.4408C297.998 59.3743 297.884 59.341 297.746 59.341C297.565 59.341 297.415 59.4104 297.295 59.5492C297.175 59.686 297.116 59.916 297.116 60.2392C297.116 60.568 297.172 60.8104 297.284 60.9663C297.396 61.1221 297.548 61.2001 297.74 61.2001ZM301.181 61.7988C300.892 61.7988 300.64 61.7371 300.426 61.6135C300.213 61.49 300.047 61.3151 299.93 61.0889C299.814 60.8627 299.756 60.5947 299.756 60.2848C299.756 59.975 299.814 59.7041 299.93 59.4722C300.047 59.2403 300.213 59.0597 300.426 58.9305C300.64 58.8012 300.893 58.7366 301.184 58.7366C301.475 58.7366 301.727 58.8002 301.94 58.9276C302.153 59.0531 302.317 59.2317 302.433 59.4636C302.549 59.6956 302.607 59.9693 302.607 60.2848C302.607 60.5813 302.55 60.8437 302.436 61.0718C302.324 61.298 302.161 61.4757 301.948 61.605C301.737 61.7342 301.482 61.7988 301.181 61.7988ZM301.184 61.1801C301.33 61.1801 301.448 61.1373 301.538 61.0518C301.627 60.9663 301.692 60.8541 301.732 60.7154C301.773 60.5747 301.794 60.4217 301.794 60.2563C301.794 60.1004 301.775 59.9531 301.737 59.8144C301.701 59.6756 301.638 59.5634 301.549 59.4779C301.46 59.3924 301.338 59.3496 301.184 59.3496C301.038 59.3496 300.919 59.3905 300.828 59.4722C300.738 59.552 300.673 59.6613 300.631 59.8001C300.589 59.937 300.568 60.089 300.568 60.2563C300.568 60.4103 300.587 60.5585 300.625 60.7011C300.663 60.8418 300.727 60.9568 300.816 61.0461C300.906 61.1354 301.028 61.1801 301.184 61.1801ZM303.162 61.7418V58.7936H303.963V59.4922C304.011 59.342 304.077 59.2108 304.163 59.0987C304.25 58.9846 304.356 58.8962 304.479 58.8335C304.603 58.7689 304.743 58.7366 304.898 58.7366C304.925 58.7366 304.95 58.7385 304.973 58.7423C304.997 58.7442 305.015 58.748 305.027 58.7537V59.5463C305.01 59.5387 304.989 59.534 304.964 59.5321C304.941 59.5302 304.92 59.5283 304.901 59.5264C304.738 59.5131 304.598 59.5178 304.482 59.5406C304.366 59.5634 304.272 59.6024 304.2 59.6575C304.128 59.7127 304.075 59.7801 304.043 59.86C304.011 59.9398 303.995 60.0292 303.995 60.128V61.7418H303.162ZM306.152 60.4587C306.15 60.6089 306.174 60.7401 306.223 60.8522C306.273 60.9625 306.344 61.048 306.437 61.1088C306.532 61.1678 306.646 61.1972 306.779 61.1972C306.922 61.1972 307.046 61.1668 307.153 61.106C307.261 61.0452 307.336 60.9454 307.378 60.8066H308.128C308.095 61.0157 308.012 61.1944 307.877 61.3426C307.744 61.4909 307.582 61.604 307.392 61.6819C307.202 61.7599 307.004 61.7988 306.799 61.7988C306.508 61.7988 306.252 61.738 306.029 61.6164C305.809 61.4928 305.637 61.3189 305.513 61.0946C305.39 60.8703 305.328 60.6061 305.328 60.3019C305.328 60.0073 305.384 59.7421 305.496 59.5064C305.608 59.2688 305.771 59.0816 305.984 58.9447C306.198 58.8059 306.456 58.7366 306.756 58.7366C307.057 58.7366 307.308 58.8002 307.512 58.9276C307.717 59.0531 307.871 59.2289 307.974 59.4551C308.078 59.6794 308.131 59.9389 308.131 60.2335V60.4587H306.152ZM306.149 59.9626H307.352C307.352 59.8448 307.33 59.7364 307.287 59.6376C307.243 59.5387 307.176 59.4608 307.087 59.4038C307 59.3467 306.889 59.3182 306.756 59.3182C306.627 59.3182 306.517 59.3496 306.426 59.4123C306.336 59.4732 306.268 59.553 306.22 59.6518C306.173 59.7507 306.149 59.8543 306.149 59.9626ZM309.869 61.7988C309.664 61.7988 309.466 61.7656 309.276 61.6991C309.086 61.6306 308.925 61.5242 308.794 61.3797C308.663 61.2333 308.579 61.0442 308.543 60.8123H309.265C309.289 60.9168 309.334 60.9995 309.399 61.0604C309.465 61.1212 309.54 61.1649 309.624 61.1915C309.708 61.2162 309.787 61.2286 309.864 61.2286C310.023 61.2286 310.151 61.2039 310.248 61.1545C310.347 61.1031 310.397 61.0252 310.397 60.9207C310.397 60.8408 310.367 60.7771 310.308 60.7296C310.251 60.6821 310.156 60.646 310.023 60.6213L309.504 60.5129C309.244 60.4578 309.035 60.3647 308.877 60.2335C308.719 60.1004 308.638 59.9122 308.635 59.6689C308.635 59.4922 308.681 59.3334 308.774 59.1928C308.869 59.0521 309.009 58.9409 309.193 58.8592C309.378 58.7774 309.604 58.7366 309.872 58.7366C310.235 58.7366 310.525 58.8164 310.742 58.9761C310.96 59.1357 311.071 59.361 311.075 59.6518H310.38C310.359 59.5378 310.302 59.4503 310.209 59.3895C310.117 59.3268 310.002 59.2954 309.864 59.2954C309.719 59.2954 309.6 59.3211 309.507 59.3724C309.414 59.4237 309.367 59.5017 309.367 59.6062C309.367 59.6841 309.405 59.7459 309.481 59.7915C309.557 59.8353 309.675 59.8733 309.835 59.9056L310.314 60.0139C310.479 60.0539 310.613 60.109 310.716 60.1793C310.821 60.2477 310.901 60.3228 310.958 60.4046C311.015 60.4863 311.054 60.569 311.075 60.6526C311.098 60.7344 311.11 60.8085 311.11 60.875C311.11 61.0708 311.057 61.2381 310.953 61.3769C310.848 61.5137 310.703 61.6183 310.516 61.6905C310.33 61.7627 310.114 61.7988 309.869 61.7988Z" fill="#212B36"/>
<path d="M24.3271 78.4109V75.5605H23.6481V75.1262C23.8656 75.1262 24.0411 75.106 24.1744 75.0657C24.3096 75.0236 24.4104 74.9639 24.4771 74.8867C24.5438 74.8077 24.5833 74.7139 24.5956 74.6051H25.1062V78.4109H24.3271ZM27.3735 74.5524C27.8262 74.5524 28.1833 74.7218 28.4447 75.0604C28.7061 75.3973 28.8369 75.8825 28.8369 76.5159C28.8369 77.1458 28.7079 77.6292 28.45 77.9661C28.192 78.3012 27.8332 78.4688 27.3735 78.4688C26.912 78.4688 26.5515 78.3012 26.2918 77.9661C26.0338 77.631 25.9049 77.1484 25.9049 76.5185C25.9049 76.0974 25.9645 75.7403 26.0838 75.4473C26.2032 75.1543 26.3725 74.9323 26.5918 74.7814C26.8111 74.6288 27.0717 74.5524 27.3735 74.5524ZM27.3735 77.8398C27.5998 77.8398 27.7657 77.7389 27.8709 77.5371C27.9762 77.3335 28.0289 76.994 28.0289 76.5185C28.0289 76.0325 27.9753 75.6842 27.8683 75.4736C27.7613 75.2631 27.5955 75.1578 27.3709 75.1578C27.1463 75.1578 26.9787 75.2639 26.8682 75.4763C26.7594 75.6886 26.705 76.036 26.705 76.5185C26.705 76.9923 26.7594 77.3309 26.8682 77.5344C26.977 77.738 27.1454 77.8398 27.3735 77.8398ZM30.7508 74.5524C31.2035 74.5524 31.5606 74.7218 31.822 75.0604C32.0835 75.3973 32.2142 75.8825 32.2142 76.5159C32.2142 77.1458 32.0852 77.6292 31.8273 77.9661C31.5694 78.3012 31.2105 78.4688 30.7508 78.4688C30.2894 78.4688 29.9288 78.3012 29.6691 77.9661C29.4112 77.631 29.2822 77.1484 29.2822 76.5185C29.2822 76.0974 29.3419 75.7403 29.4612 75.4473C29.5805 75.1543 29.7498 74.9323 29.9691 74.7814C30.1885 74.6288 30.449 74.5524 30.7508 74.5524ZM30.7508 77.8398C30.9772 77.8398 31.143 77.7389 31.2483 77.5371C31.3535 77.3335 31.4062 76.994 31.4062 76.5185C31.4062 76.0325 31.3527 75.6842 31.2456 75.4736C31.1386 75.2631 30.9728 75.1578 30.7482 75.1578C30.5236 75.1578 30.356 75.2639 30.2455 75.4763C30.1367 75.6886 30.0823 76.036 30.0823 76.5185C30.0823 76.9923 30.1367 77.3309 30.2455 77.5344C30.3543 77.738 30.5227 77.8398 30.7508 77.8398Z" fill="#919EAB"/>
<path d="M27.2979 100.976C27.5593 100.976 27.7927 101.017 27.998 101.1C28.205 101.182 28.3682 101.303 28.4875 101.463C28.6068 101.621 28.6665 101.816 28.6665 102.047C28.6665 102.242 28.613 102.408 28.5059 102.545C28.3989 102.682 28.2673 102.787 28.1111 102.861C28.227 102.885 28.3401 102.943 28.4507 103.034C28.563 103.124 28.6551 103.234 28.727 103.366C28.799 103.496 28.8349 103.634 28.8349 103.779C28.8349 104.006 28.7709 104.202 28.6428 104.369C28.5165 104.535 28.3375 104.664 28.1059 104.756C27.876 104.845 27.6067 104.89 27.2979 104.89C26.9926 104.89 26.725 104.845 26.4951 104.756C26.2653 104.664 26.0863 104.535 25.9582 104.369C25.8301 104.202 25.7661 104.006 25.7661 103.779C25.7661 103.634 25.802 103.496 25.874 103.366C25.9459 103.234 26.0372 103.124 26.1477 103.034C26.2583 102.943 26.3723 102.885 26.4899 102.861C26.3337 102.787 26.2012 102.682 26.0924 102.545C25.9837 102.408 25.9293 102.242 25.9293 102.047C25.9293 101.816 25.9889 101.621 26.1082 101.463C26.2293 101.303 26.3934 101.182 26.6004 101.1C26.8075 101.017 27.0399 100.976 27.2979 100.976ZM27.2979 102.563C27.4733 102.563 27.6172 102.517 27.7295 102.424C27.8436 102.329 27.9006 102.198 27.9006 102.032C27.9006 101.867 27.8436 101.736 27.7295 101.639C27.6155 101.543 27.4716 101.495 27.2979 101.495C27.1259 101.495 26.9829 101.543 26.8689 101.639C26.7548 101.736 26.6978 101.867 26.6978 102.032C26.6978 102.198 26.7548 102.329 26.8689 102.424C26.9829 102.517 27.1259 102.563 27.2979 102.563ZM27.2979 104.311C27.5225 104.311 27.6979 104.261 27.8243 104.161C27.9524 104.059 28.0164 103.925 28.0164 103.758C28.0164 103.646 27.9874 103.548 27.9295 103.463C27.8716 103.377 27.7892 103.31 27.6821 103.261C27.5751 103.212 27.447 103.187 27.2979 103.187C27.1522 103.187 27.0259 103.212 26.9189 103.261C26.8118 103.31 26.7294 103.377 26.6715 103.463C26.6136 103.548 26.5846 103.646 26.5846 103.758C26.5846 103.925 26.6487 104.059 26.7767 104.161C26.9048 104.261 27.0785 104.311 27.2979 104.311ZM30.7508 100.976C31.2035 100.976 31.5606 101.145 31.822 101.484C32.0835 101.821 32.2142 102.306 32.2142 102.94C32.2142 103.57 32.0852 104.053 31.8273 104.39C31.5694 104.725 31.2105 104.892 30.7508 104.892C30.2894 104.892 29.9288 104.725 29.6691 104.39C29.4112 104.055 29.2822 103.572 29.2822 102.942C29.2822 102.521 29.3419 102.164 29.4612 101.871C29.5805 101.578 29.7498 101.356 29.9691 101.205C30.1885 101.052 30.449 100.976 30.7508 100.976ZM30.7508 104.263C30.9772 104.263 31.143 104.163 31.2483 103.961C31.3535 103.757 31.4062 103.418 31.4062 102.942C31.4062 102.456 31.3527 102.108 31.2456 101.897C31.1386 101.687 30.9728 101.581 30.7482 101.581C30.5236 101.581 30.356 101.688 30.2455 101.9C30.1367 102.112 30.0823 102.46 30.0823 102.942C30.0823 103.416 30.1367 103.755 30.2455 103.958C30.3543 104.162 30.5227 104.263 30.7508 104.263Z" fill="#919EAB"/>
<path d="M27.557 127.452H28.3123V129.771H28.8993V130.416H28.3123V131.258H27.5727L27.5754 130.416H25.8225V129.784L27.557 127.452ZM26.5331 129.771H27.5754V128.376L26.5331 129.771ZM30.7508 127.4C31.2035 127.4 31.5606 127.569 31.822 127.908C32.0835 128.245 32.2142 128.73 32.2142 129.363C32.2142 129.993 32.0852 130.477 31.8273 130.814C31.5694 131.149 31.2105 131.316 30.7508 131.316C30.2894 131.316 29.9288 131.149 29.6691 130.814C29.4112 130.478 29.2822 129.996 29.2822 129.366C29.2822 128.945 29.3419 128.588 29.4612 128.295C29.5805 128.002 29.7498 127.78 29.9691 127.629C30.1885 127.476 30.449 127.4 30.7508 127.4ZM30.7508 130.687C30.9772 130.687 31.143 130.586 31.2483 130.384C31.3535 130.181 31.4062 129.841 31.4062 129.366C31.4062 128.88 31.3527 128.532 31.2456 128.321C31.1386 128.11 30.9728 128.005 30.7482 128.005C30.5236 128.005 30.356 128.111 30.2455 128.324C30.1367 128.536 30.0823 128.883 30.0823 129.366C30.0823 129.84 30.1367 130.178 30.2455 130.382C30.3543 130.585 30.5227 130.687 30.7508 130.687Z" fill="#919EAB"/>
<path d="M26.0067 157.682V157.303V157.108C26.0067 156.915 26.0426 156.748 26.1146 156.608C26.1865 156.466 26.2813 156.343 26.3988 156.24C26.5181 156.134 26.648 156.042 26.7883 155.963C26.9305 155.884 27.0726 155.81 27.2147 155.74C27.3568 155.669 27.4867 155.599 27.6042 155.529C27.7236 155.457 27.8192 155.377 27.8911 155.289C27.9631 155.202 27.999 155.098 27.999 154.979C27.999 154.826 27.9455 154.702 27.8385 154.605C27.7332 154.509 27.5885 154.46 27.4042 154.46C27.213 154.46 27.0507 154.516 26.9173 154.626C26.784 154.737 26.7015 154.903 26.6699 155.126H25.9356C25.9391 154.884 25.9952 154.665 26.104 154.468C26.2146 154.27 26.3795 154.113 26.5988 153.997C26.8182 153.881 27.0937 153.823 27.4253 153.823C27.7095 153.823 27.9543 153.872 28.1596 153.968C28.3666 154.065 28.5263 154.199 28.6386 154.371C28.7509 154.543 28.8071 154.744 28.8071 154.974C28.8071 155.165 28.772 155.33 28.7018 155.468C28.6316 155.607 28.5386 155.725 28.4228 155.824C28.307 155.922 28.1798 156.008 28.0412 156.082C27.9025 156.155 27.7639 156.224 27.6253 156.287C27.4884 156.35 27.3621 156.415 27.2463 156.482C27.1305 156.547 27.0375 156.62 26.9673 156.703C26.8971 156.785 26.862 156.884 26.862 157V157.034H28.8018V157.682H26.0067ZM30.7508 153.823C31.2035 153.823 31.5606 153.993 31.822 154.331C32.0835 154.668 32.2142 155.153 32.2142 155.787C32.2142 156.417 32.0852 156.9 31.8273 157.237C31.5694 157.572 31.2105 157.74 30.7508 157.74C30.2894 157.74 29.9288 157.572 29.6691 157.237C29.4112 156.902 29.2822 156.419 29.2822 155.79C29.2822 155.368 29.3419 155.011 29.4612 154.718C29.5805 154.425 29.7498 154.203 29.9691 154.052C30.1885 153.9 30.449 153.823 30.7508 153.823ZM30.7508 157.111C30.9772 157.111 31.143 157.01 31.2483 156.808C31.3535 156.605 31.4062 156.265 31.4062 155.79C31.4062 155.303 31.3527 154.955 31.2456 154.745C31.1386 154.534 30.9728 154.429 30.7482 154.429C30.5236 154.429 30.356 154.535 30.2455 154.747C30.1367 154.96 30.0823 155.307 30.0823 155.79C30.0823 156.263 30.1367 156.602 30.2455 156.805C30.3543 157.009 30.5227 157.111 30.7508 157.111Z" fill="#919EAB"/>
<path d="M30.7508 180.247C31.2035 180.247 31.5606 180.416 31.822 180.755C32.0835 181.092 32.2142 181.577 32.2142 182.211C32.2142 182.84 32.0852 183.324 31.8273 183.661C31.5694 183.996 31.2105 184.163 30.7508 184.163C30.2894 184.163 29.9288 183.996 29.6691 183.661C29.4112 183.326 29.2822 182.843 29.2822 182.213C29.2822 181.792 29.3419 181.435 29.4612 181.142C29.5805 180.849 29.7498 180.627 29.9691 180.476C30.1885 180.323 30.449 180.247 30.7508 180.247ZM30.7508 183.534C30.9772 183.534 31.143 183.434 31.2483 183.232C31.3535 183.028 31.4062 182.689 31.4062 182.213C31.4062 181.727 31.3527 181.379 31.2456 181.168C31.1386 180.958 30.9728 180.852 30.7482 180.852C30.5236 180.852 30.356 180.959 30.2455 181.171C30.1367 181.383 30.0823 181.731 30.0823 182.213C30.0823 182.687 30.1367 183.026 30.2455 183.229C30.3543 183.433 30.5227 183.534 30.7508 183.534Z" fill="#919EAB"/>
<path d="M41.2166 76.1395H313.047" stroke="#919EAB" stroke-opacity="0.24" stroke-width="0.438659" stroke-linecap="square" stroke-dasharray="0.88 1.32"/>
<path d="M41.2166 102.459H313.047" stroke="#919EAB" stroke-opacity="0.24" stroke-width="0.438659" stroke-linecap="square" stroke-dasharray="0.88 1.32"/>
<path d="M41.2166 128.779H313.047" stroke="#919EAB" stroke-opacity="0.24" stroke-width="0.438659" stroke-linecap="square" stroke-dasharray="0.88 1.32"/>
<path d="M41.2166 155.098H313.047" stroke="#919EAB" stroke-opacity="0.24" stroke-width="0.438659" stroke-linecap="square" stroke-dasharray="0.88 1.32"/>
<path d="M41.2166 181.418H313.047" stroke="#919EAB" stroke-opacity="0.24" stroke-width="0.438659" stroke-linecap="square" stroke-dasharray="0.88 1.32"/>
<path d="M43.3626 195.791C43.3626 196.033 43.3363 196.237 43.2837 196.401C43.231 196.566 43.1345 196.691 42.9942 196.775C42.8538 196.859 42.652 196.902 42.3888 196.902C42.2677 196.902 42.1432 196.891 42.0151 196.87C41.887 196.851 41.7931 196.833 41.7335 196.817L41.7493 196.115C41.8001 196.125 41.858 196.139 41.923 196.157C41.9896 196.174 42.0633 196.183 42.144 196.183C42.3213 196.183 42.4406 196.136 42.502 196.043C42.5634 195.949 42.5941 195.796 42.5941 195.586V193.043H43.3626V195.791ZM44.8252 196.902C44.6515 196.902 44.4953 196.869 44.3567 196.804C44.2181 196.739 44.1084 196.645 44.0277 196.523C43.947 196.398 43.9066 196.247 43.9066 196.07C43.9066 195.772 44.0181 195.545 44.2409 195.391C44.4637 195.235 44.8155 195.154 45.2963 195.149L45.6358 195.143V194.98C45.6358 194.856 45.599 194.76 45.5253 194.693C45.4533 194.625 45.341 194.592 45.1884 194.593C45.0761 194.595 44.9691 194.621 44.8673 194.672C44.7673 194.723 44.6989 194.812 44.662 194.938H44.0224C44.033 194.742 44.09 194.58 44.1935 194.454C44.297 194.326 44.4374 194.231 44.6146 194.17C44.7936 194.106 44.9963 194.075 45.2226 194.075C45.5016 194.075 45.7253 194.11 45.8938 194.18C46.0622 194.249 46.1841 194.348 46.2596 194.477C46.335 194.606 46.3728 194.758 46.3728 194.935V196.849H45.7306L45.6674 196.38C45.5744 196.577 45.4577 196.713 45.3174 196.788C45.1787 196.864 45.0147 196.902 44.8252 196.902ZM45.0831 196.396C45.1533 196.396 45.2209 196.384 45.2858 196.359C45.3525 196.333 45.4112 196.299 45.4621 196.257C45.5148 196.213 45.5569 196.164 45.5885 196.109C45.62 196.055 45.6358 195.999 45.6358 195.941V195.538L45.3595 195.543C45.2314 195.545 45.1121 195.561 45.0015 195.591C44.891 195.619 44.8015 195.665 44.7331 195.73C44.6664 195.795 44.6331 195.883 44.6331 195.993C44.6331 196.12 44.6769 196.219 44.7646 196.291C44.8524 196.361 44.9585 196.396 45.0831 196.396ZM47.0531 196.849V194.127H47.8085V194.512C47.8506 194.445 47.905 194.381 47.9716 194.32C48.0401 194.256 48.1261 194.205 48.2296 194.164C48.3331 194.124 48.4559 194.104 48.598 194.104C48.7647 194.104 48.92 194.136 49.0639 194.201C49.2095 194.266 49.3271 194.369 49.4166 194.509C49.5061 194.648 49.5508 194.829 49.5508 195.054V196.849H48.7823V195.149C48.7823 195.001 48.7384 194.891 48.6507 194.817C48.563 194.743 48.4559 194.706 48.3296 194.706C48.2454 194.706 48.1638 194.721 48.0848 194.751C48.0076 194.781 47.9444 194.826 47.8953 194.885C47.8462 194.945 47.8216 195.019 47.8216 195.107V196.849H47.0531Z" fill="#919EAB"/>
<path d="M65.1723 193.043H67.7621L67.7595 193.685H65.9461V194.641H67.5173V195.27H65.9461V196.849H65.1723V193.043ZM68.8269 195.664C68.8251 195.803 68.847 195.924 68.8927 196.028C68.9383 196.129 69.0041 196.208 69.0901 196.265C69.1778 196.319 69.2831 196.346 69.4059 196.346C69.5375 196.346 69.6524 196.318 69.7507 196.262C69.8507 196.206 69.92 196.114 69.9586 195.986H70.6508C70.621 196.179 70.5438 196.344 70.4192 196.48C70.2964 196.617 70.1472 196.722 69.9718 196.794C69.7963 196.866 69.6138 196.902 69.4243 196.902C69.1559 196.902 68.919 196.845 68.7137 196.733C68.5102 196.619 68.3514 196.458 68.2373 196.251C68.1233 196.044 68.0662 195.8 68.0662 195.52C68.0662 195.248 68.118 195.003 68.2215 194.785C68.325 194.566 68.4751 194.393 68.6716 194.267C68.8699 194.139 69.1076 194.075 69.3848 194.075C69.6621 194.075 69.8946 194.134 70.0823 194.251C70.2718 194.367 70.4139 194.529 70.5087 194.738C70.6052 194.945 70.6534 195.185 70.6534 195.457V195.664H68.8269ZM68.8242 195.207H69.9349C69.9349 195.098 69.9147 194.998 69.8744 194.906C69.834 194.815 69.7726 194.743 69.6901 194.691C69.6094 194.638 69.5077 194.612 69.3848 194.612C69.2655 194.612 69.1638 194.641 69.0795 194.699C68.9971 194.755 68.9339 194.828 68.89 194.92C68.8462 195.011 68.8242 195.107 68.8242 195.207ZM72.703 196.902C72.5679 196.902 72.4512 196.884 72.3529 196.849C72.2547 196.814 72.1713 196.767 72.1029 196.709C72.0345 196.65 71.9783 196.584 71.9345 196.512C71.8906 196.44 71.8564 196.366 71.8318 196.291L71.745 196.849H71.187V192.938H71.9581V194.496C71.9915 194.438 72.0345 194.384 72.0871 194.333C72.1398 194.282 72.2012 194.237 72.2713 194.198C72.3415 194.16 72.4187 194.13 72.503 194.109C72.5889 194.086 72.6802 194.075 72.7767 194.075C73.1153 194.075 73.3803 194.197 73.5715 194.441C73.7645 194.685 73.861 195.028 73.861 195.472C73.861 195.76 73.8172 196.011 73.7295 196.225C73.6417 196.439 73.5119 196.606 73.3399 196.725C73.168 196.843 72.9557 196.902 72.703 196.902ZM72.5345 196.349C72.6995 196.349 72.8363 196.281 72.9451 196.146C73.0557 196.009 73.1109 195.781 73.1109 195.462C73.1109 195.179 73.0583 194.971 72.953 194.835C72.8495 194.7 72.7083 194.633 72.5293 194.633C72.4012 194.633 72.295 194.663 72.2108 194.725C72.1266 194.785 72.0634 194.876 72.0213 194.999C71.981 195.121 71.9599 195.276 71.9581 195.462C71.9581 195.783 72.0055 196.011 72.1003 196.146C72.1968 196.281 72.3415 196.349 72.5345 196.349Z" fill="#919EAB"/>
<path d="M89.0094 196.849V193.043H90.1253L90.9965 195.757L91.8756 193.043H92.9889V196.849H92.2125V193.938L91.2965 196.849H90.6938L89.7832 193.951V196.849H89.0094ZM94.5285 196.902C94.3548 196.902 94.1987 196.869 94.0601 196.804C93.9214 196.739 93.8118 196.645 93.7311 196.523C93.6504 196.398 93.61 196.247 93.61 196.07C93.61 195.772 93.7214 195.545 93.9443 195.391C94.1671 195.235 94.5189 195.154 94.9997 195.149L95.3392 195.143V194.98C95.3392 194.856 95.3023 194.76 95.2286 194.693C95.1567 194.625 95.0444 194.592 94.8918 194.593C94.7795 194.595 94.6724 194.621 94.5707 194.672C94.4706 194.723 94.4022 194.812 94.3654 194.938H93.7258C93.7363 194.742 93.7934 194.58 93.8969 194.454C94.0004 194.326 94.1408 194.231 94.318 194.17C94.497 194.106 94.6996 194.075 94.926 194.075C95.205 194.075 95.4287 194.11 95.5971 194.18C95.7656 194.249 95.8875 194.348 95.963 194.477C96.0384 194.606 96.0761 194.758 96.0761 194.935V196.849H95.4339L95.3708 196.38C95.2778 196.577 95.1611 196.713 95.0207 196.788C94.8821 196.864 94.718 196.902 94.5285 196.902ZM94.7865 196.396C94.8567 196.396 94.9242 196.384 94.9891 196.359C95.0558 196.333 95.1146 196.299 95.1655 196.257C95.2181 196.213 95.2602 196.164 95.2918 196.109C95.3234 196.055 95.3392 195.999 95.3392 195.941V195.538L95.0628 195.543C94.9347 195.545 94.8154 195.561 94.7049 195.591C94.5943 195.619 94.5049 195.665 94.4364 195.73C94.3698 195.795 94.3364 195.883 94.3364 195.993C94.3364 196.12 94.3803 196.219 94.468 196.291C94.5557 196.361 94.6619 196.396 94.7865 196.396ZM96.7565 196.849V194.127H97.496V194.772C97.5399 194.634 97.6013 194.513 97.6803 194.409C97.761 194.304 97.8584 194.222 97.9724 194.164C98.0865 194.105 98.2154 194.075 98.3593 194.075C98.3839 194.075 98.4067 194.077 98.4277 194.08C98.4506 194.082 98.4672 194.085 98.4778 194.091V194.822C98.462 194.815 98.4427 194.811 98.4198 194.809C98.3988 194.807 98.3795 194.806 98.3619 194.804C98.211 194.792 98.0821 194.796 97.975 194.817C97.868 194.838 97.7812 194.874 97.7145 194.925C97.6478 194.976 97.5996 195.038 97.5697 195.112C97.5399 195.185 97.525 195.268 97.525 195.359V196.849H96.7565Z" fill="#919EAB"/>
<path d="M113.328 196.849L114.692 193.043H115.502L116.863 196.849H116.097L115.786 195.967H114.418L114.099 196.849H113.328ZM114.589 195.296H115.602L115.1 193.785L114.589 195.296ZM117.337 197.696V194.127H118.108L118.111 194.52C118.151 194.455 118.2 194.396 118.258 194.343C118.318 194.289 118.384 194.241 118.456 194.201C118.528 194.161 118.606 194.13 118.69 194.109C118.774 194.086 118.863 194.075 118.956 194.075C119.157 194.075 119.337 194.125 119.495 194.225C119.653 194.323 119.777 194.476 119.866 194.683C119.958 194.888 120.003 195.15 120.003 195.467C120.003 195.797 119.954 196.068 119.856 196.28C119.759 196.491 119.626 196.647 119.456 196.749C119.286 196.851 119.093 196.902 118.879 196.902C118.792 196.902 118.709 196.889 118.632 196.865C118.555 196.842 118.483 196.809 118.416 196.767C118.351 196.725 118.292 196.677 118.24 196.623C118.189 196.566 118.144 196.506 118.106 196.441V197.696H117.337ZM118.695 196.338C118.862 196.338 119.001 196.269 119.114 196.13C119.228 195.992 119.285 195.772 119.285 195.472C119.285 195.209 119.23 195.004 119.121 194.856C119.014 194.707 118.872 194.633 118.695 194.633C118.497 194.633 118.349 194.713 118.25 194.875C118.154 195.035 118.106 195.234 118.106 195.472C118.106 195.625 118.127 195.767 118.169 195.899C118.213 196.03 118.278 196.136 118.363 196.217C118.451 196.298 118.562 196.338 118.695 196.338ZM120.514 196.849V194.127H121.253V194.772C121.297 194.634 121.359 194.513 121.438 194.409C121.518 194.304 121.616 194.222 121.73 194.164C121.844 194.105 121.973 194.075 122.117 194.075C122.141 194.075 122.164 194.077 122.185 194.08C122.208 194.082 122.225 194.085 122.235 194.091V194.822C122.219 194.815 122.2 194.811 122.177 194.809C122.156 194.807 122.137 194.806 122.119 194.804C121.968 194.792 121.84 194.796 121.732 194.817C121.625 194.838 121.539 194.874 121.472 194.925C121.405 194.976 121.357 195.038 121.327 195.112C121.297 195.185 121.282 195.268 121.282 195.359V196.849H120.514Z" fill="#919EAB"/>
<path d="M137.505 196.849V193.043H138.621L139.492 195.757L140.371 193.043H141.484V196.849H140.708V193.938L139.792 196.849H139.189L138.279 193.951V196.849H137.505ZM143.024 196.902C142.85 196.902 142.694 196.869 142.556 196.804C142.417 196.739 142.307 196.645 142.227 196.523C142.146 196.398 142.105 196.247 142.105 196.07C142.105 195.772 142.217 195.545 142.44 195.391C142.663 195.235 143.014 195.154 143.495 195.149L143.835 195.143V194.98C143.835 194.856 143.798 194.76 143.724 194.693C143.652 194.625 143.54 194.592 143.387 194.593C143.275 194.595 143.168 194.621 143.066 194.672C142.966 194.723 142.898 194.812 142.861 194.938H142.221C142.232 194.742 142.289 194.58 142.392 194.454C142.496 194.326 142.636 194.231 142.813 194.17C142.992 194.106 143.195 194.075 143.421 194.075C143.7 194.075 143.924 194.11 144.093 194.18C144.261 194.249 144.383 194.348 144.458 194.477C144.534 194.606 144.572 194.758 144.572 194.935V196.849H143.929L143.866 196.38C143.773 196.577 143.657 196.713 143.516 196.788C143.378 196.864 143.214 196.902 143.024 196.902ZM143.282 196.396C143.352 196.396 143.42 196.384 143.485 196.359C143.551 196.333 143.61 196.299 143.661 196.257C143.714 196.213 143.756 196.164 143.787 196.109C143.819 196.055 143.835 195.999 143.835 195.941V195.538L143.558 195.543C143.43 195.545 143.311 195.561 143.2 195.591C143.09 195.619 143 195.665 142.932 195.73C142.865 195.795 142.832 195.883 142.832 195.993C142.832 196.12 142.876 196.219 142.964 196.291C143.051 196.361 143.157 196.396 143.282 196.396ZM145.578 197.717C145.392 197.717 145.26 197.702 145.183 197.67C145.108 197.64 145.07 197.625 145.07 197.625V197.136L145.339 197.146C145.456 197.153 145.551 197.147 145.623 197.128C145.695 197.11 145.749 197.087 145.786 197.057C145.825 197.027 145.852 196.995 145.868 196.962C145.883 196.93 145.895 196.905 145.902 196.886L145.952 196.736L144.894 194.127H145.654L146.307 195.901L146.968 194.127H147.718L146.615 196.865C146.52 197.096 146.42 197.273 146.315 197.396C146.21 197.519 146.096 197.603 145.973 197.649C145.852 197.695 145.72 197.717 145.578 197.717Z" fill="#919EAB"/>
<path d="M164.209 195.791C164.209 196.033 164.182 196.237 164.13 196.401C164.077 196.566 163.98 196.691 163.84 196.775C163.7 196.859 163.498 196.902 163.235 196.902C163.114 196.902 162.989 196.891 162.861 196.87C162.733 196.851 162.639 196.833 162.579 196.817L162.595 196.115C162.646 196.125 162.704 196.139 162.769 196.157C162.836 196.174 162.909 196.183 162.99 196.183C163.167 196.183 163.287 196.136 163.348 196.043C163.409 195.949 163.44 195.796 163.44 195.586V193.043H164.209V195.791ZM165.884 196.902C165.758 196.902 165.633 196.882 165.511 196.844C165.39 196.805 165.279 196.748 165.179 196.673C165.079 196.597 164.998 196.504 164.937 196.394C164.877 196.283 164.847 196.155 164.847 196.009V194.127H165.616V195.912C165.616 196.038 165.657 196.142 165.74 196.222C165.822 196.303 165.943 196.344 166.103 196.344C166.254 196.344 166.373 196.305 166.461 196.228C166.55 196.149 166.595 196.039 166.595 195.899V194.127H167.356V196.849H166.777L166.687 196.309C166.655 196.469 166.596 196.592 166.508 196.678C166.422 196.762 166.323 196.82 166.211 196.852C166.1 196.885 165.991 196.902 165.884 196.902ZM167.997 196.849V194.127H168.752V194.512C168.794 194.445 168.849 194.381 168.915 194.32C168.984 194.256 169.07 194.205 169.173 194.164C169.277 194.124 169.4 194.104 169.542 194.104C169.708 194.104 169.864 194.136 170.008 194.201C170.153 194.266 170.271 194.369 170.36 194.509C170.45 194.648 170.494 194.829 170.494 195.054V196.849H169.726V195.149C169.726 195.001 169.682 194.891 169.594 194.817C169.507 194.743 169.4 194.706 169.273 194.706C169.189 194.706 169.107 194.721 169.028 194.751C168.951 194.781 168.888 194.826 168.839 194.885C168.79 194.945 168.765 195.019 168.765 195.107V196.849H167.997Z" fill="#919EAB"/>
<path d="M187.092 195.791C187.092 196.033 187.065 196.237 187.013 196.401C186.96 196.566 186.864 196.691 186.723 196.775C186.583 196.859 186.381 196.902 186.118 196.902C185.997 196.902 185.872 196.891 185.744 196.87C185.616 196.851 185.522 196.833 185.463 196.817L185.478 196.115C185.529 196.125 185.587 196.139 185.652 196.157C185.719 196.174 185.792 196.183 185.873 196.183C186.05 196.183 186.17 196.136 186.231 196.043C186.293 195.949 186.323 195.796 186.323 195.586V193.043H187.092V195.791ZM188.768 196.902C188.641 196.902 188.517 196.882 188.394 196.844C188.273 196.805 188.162 196.748 188.062 196.673C187.962 196.597 187.881 196.504 187.82 196.394C187.76 196.283 187.731 196.155 187.731 196.009V194.127H188.499V195.912C188.499 196.038 188.54 196.142 188.623 196.222C188.705 196.303 188.826 196.344 188.986 196.344C189.137 196.344 189.256 196.305 189.344 196.228C189.433 196.149 189.478 196.039 189.478 195.899V194.127H190.239V196.849H189.66L189.57 196.309C189.539 196.469 189.479 196.592 189.391 196.678C189.305 196.762 189.206 196.82 189.094 196.852C188.983 196.885 188.875 196.902 188.768 196.902ZM191.748 196.896C191.548 196.896 191.39 196.873 191.272 196.825C191.155 196.778 191.068 196.716 191.012 196.638C190.955 196.559 190.919 196.473 190.904 196.378C190.888 196.281 190.88 196.184 190.88 196.086V192.938H191.633V195.991C191.633 196.091 191.654 196.172 191.696 196.236C191.74 196.297 191.821 196.335 191.941 196.349L192.07 196.357V196.83C192.017 196.848 191.963 196.863 191.909 196.875C191.855 196.889 191.801 196.896 191.748 196.896Z" fill="#919EAB"/>
<path d="M207.04 196.849L208.404 193.043H209.214L210.575 196.849H209.809L209.499 195.967H208.13L207.811 196.849H207.04ZM208.301 195.296H209.314L208.812 193.785L208.301 195.296ZM211.99 196.902C211.864 196.902 211.739 196.882 211.616 196.844C211.495 196.805 211.385 196.748 211.285 196.673C211.185 196.597 211.104 196.504 211.043 196.394C210.983 196.283 210.953 196.155 210.953 196.009V194.127H211.722V195.912C211.722 196.038 211.763 196.142 211.845 196.222C211.928 196.303 212.049 196.344 212.209 196.344C212.36 196.344 212.479 196.305 212.567 196.228C212.656 196.149 212.701 196.039 212.701 195.899V194.127H213.461V196.849H212.882L212.793 196.309C212.761 196.469 212.702 196.592 212.614 196.678C212.528 196.762 212.429 196.82 212.317 196.852C212.206 196.885 212.097 196.902 211.99 196.902ZM215.327 197.749C214.843 197.749 214.475 197.688 214.222 197.565C213.971 197.442 213.845 197.281 213.845 197.08C213.845 196.987 213.87 196.909 213.919 196.846C213.968 196.783 214.025 196.733 214.09 196.696C214.157 196.658 214.217 196.629 214.272 196.609C214.328 196.588 214.362 196.574 214.375 196.567C214.346 196.551 214.306 196.529 214.253 196.499C214.201 196.467 214.152 196.425 214.106 196.372C214.062 196.318 214.04 196.248 214.04 196.162C214.04 196.065 214.086 195.976 214.177 195.893C214.27 195.811 214.41 195.754 214.598 195.722C214.419 195.638 214.283 195.524 214.19 195.38C214.097 195.236 214.051 195.089 214.051 194.938C214.051 194.759 214.107 194.606 214.219 194.477C214.332 194.349 214.484 194.252 214.677 194.185C214.872 194.119 215.092 194.085 215.338 194.085C215.526 194.085 215.679 194.106 215.798 194.146C215.918 194.184 216.028 194.235 216.13 194.299C216.17 194.283 216.224 194.263 216.291 194.238C216.357 194.212 216.429 194.184 216.506 194.154C216.584 194.122 216.659 194.091 216.733 194.062C216.806 194.03 216.872 194.002 216.93 193.977L216.928 194.572L216.456 194.649C216.476 194.696 216.491 194.747 216.501 194.801C216.512 194.856 216.517 194.9 216.517 194.935C216.517 195.093 216.47 195.241 216.377 195.378C216.286 195.514 216.148 195.625 215.964 195.709C215.782 195.793 215.555 195.836 215.285 195.836C215.252 195.836 215.207 195.835 215.151 195.833C215.097 195.831 215.052 195.829 215.017 195.825C214.913 195.83 214.842 195.843 214.804 195.865C214.765 195.886 214.746 195.91 214.746 195.938C214.746 195.98 214.785 196.008 214.864 196.022C214.943 196.035 215.062 196.046 215.222 196.057C215.278 196.06 215.356 196.065 215.456 196.07C215.556 196.075 215.667 196.082 215.788 196.091C216.121 196.114 216.37 196.196 216.533 196.338C216.698 196.479 216.78 196.656 216.78 196.87C216.78 197.124 216.659 197.334 216.417 197.499C216.177 197.666 215.813 197.749 215.327 197.749ZM215.451 197.32C215.665 197.32 215.818 197.294 215.909 197.241C216 197.188 216.046 197.113 216.046 197.015C216.046 196.932 216.011 196.866 215.941 196.815C215.87 196.762 215.768 196.731 215.633 196.723L215.009 196.68C214.928 196.677 214.856 196.689 214.793 196.717C214.732 196.745 214.683 196.784 214.648 196.833C214.615 196.882 214.598 196.935 214.598 196.991C214.598 197.105 214.668 197.188 214.806 197.241C214.945 197.294 215.16 197.32 215.451 197.32ZM215.306 195.407C215.452 195.407 215.569 195.367 215.656 195.288C215.746 195.207 215.791 195.099 215.791 194.962C215.791 194.82 215.746 194.706 215.656 194.62C215.569 194.534 215.452 194.491 215.306 194.491C215.162 194.491 215.045 194.534 214.954 194.62C214.864 194.706 214.819 194.82 214.819 194.962C214.819 195.097 214.862 195.205 214.948 195.285C215.036 195.366 215.155 195.407 215.306 195.407Z" fill="#919EAB"/>
<path d="M233.61 196.902C233.422 196.902 233.238 196.878 233.057 196.83C232.876 196.783 232.712 196.712 232.562 196.617C232.413 196.523 232.29 196.404 232.191 196.262C232.095 196.12 232.037 195.953 232.018 195.762H232.805C232.831 195.878 232.881 195.975 232.955 196.054C233.028 196.133 233.121 196.194 233.234 196.236C233.346 196.278 233.47 196.299 233.607 196.299C233.748 196.299 233.876 196.281 233.992 196.246C234.107 196.211 234.2 196.158 234.271 196.088C234.341 196.016 234.376 195.927 234.376 195.82C234.376 195.723 234.347 195.644 234.289 195.583C234.233 195.521 234.157 195.471 234.06 195.433C233.963 195.394 233.854 195.363 233.731 195.338L233.073 195.204C232.785 195.15 232.557 195.035 232.389 194.862C232.22 194.686 232.133 194.453 232.128 194.162C232.126 193.923 232.19 193.717 232.318 193.543C232.447 193.368 232.623 193.233 232.844 193.138C233.067 193.043 233.316 192.996 233.592 192.996C233.92 192.996 234.195 193.047 234.418 193.151C234.643 193.253 234.813 193.391 234.929 193.567C235.046 193.741 235.107 193.934 235.11 194.148H234.339C234.325 194.015 234.285 193.909 234.218 193.83C234.151 193.751 234.065 193.694 233.96 193.659C233.856 193.624 233.738 193.606 233.605 193.606C233.503 193.606 233.41 193.618 233.326 193.641C233.243 193.663 233.173 193.696 233.115 193.738C233.057 193.778 233.012 193.827 232.981 193.883C232.949 193.939 232.934 194.002 232.934 194.072C232.934 194.183 232.97 194.272 233.044 194.341C233.118 194.409 233.255 194.465 233.457 194.509L234.11 194.643C234.343 194.689 234.528 194.756 234.665 194.846C234.804 194.935 234.907 195.036 234.976 195.149C235.046 195.261 235.092 195.376 235.113 195.493C235.136 195.609 235.147 195.716 235.147 195.815C235.147 196.02 235.082 196.205 234.952 196.37C234.824 196.533 234.645 196.663 234.415 196.759C234.185 196.854 233.917 196.902 233.61 196.902ZM236.334 195.664C236.332 195.803 236.354 195.924 236.4 196.028C236.445 196.129 236.511 196.208 236.597 196.265C236.685 196.319 236.79 196.346 236.913 196.346C237.045 196.346 237.16 196.318 237.258 196.262C237.358 196.206 237.427 196.114 237.466 195.986H238.158C238.128 196.179 238.051 196.344 237.926 196.48C237.804 196.617 237.654 196.722 237.479 196.794C237.303 196.866 237.121 196.902 236.931 196.902C236.663 196.902 236.426 196.845 236.221 196.733C236.017 196.619 235.858 196.458 235.744 196.251C235.63 196.044 235.573 195.8 235.573 195.52C235.573 195.248 235.625 195.003 235.729 194.785C235.832 194.566 235.982 194.393 236.179 194.267C236.377 194.139 236.615 194.075 236.892 194.075C237.169 194.075 237.402 194.134 237.589 194.251C237.779 194.367 237.921 194.529 238.016 194.738C238.112 194.945 238.161 195.185 238.161 195.457V195.664H236.334ZM236.331 195.207H237.442C237.442 195.098 237.422 194.998 237.382 194.906C237.341 194.815 237.28 194.743 237.197 194.691C237.117 194.638 237.015 194.612 236.892 194.612C236.773 194.612 236.671 194.641 236.587 194.699C236.504 194.755 236.441 194.828 236.397 194.92C236.353 195.011 236.331 195.107 236.331 195.207ZM238.694 197.696V194.127H239.465L239.468 194.52C239.508 194.455 239.557 194.396 239.615 194.343C239.675 194.289 239.741 194.241 239.813 194.201C239.885 194.161 239.963 194.13 240.047 194.109C240.131 194.086 240.22 194.075 240.313 194.075C240.515 194.075 240.694 194.125 240.852 194.225C241.01 194.323 241.134 194.476 241.223 194.683C241.315 194.888 241.36 195.15 241.36 195.467C241.36 195.797 241.311 196.068 241.213 196.28C241.116 196.491 240.983 196.647 240.813 196.749C240.643 196.851 240.451 196.902 240.236 196.902C240.149 196.902 240.066 196.889 239.989 196.865C239.912 196.842 239.84 196.809 239.773 196.767C239.708 196.725 239.65 196.677 239.597 196.623C239.546 196.566 239.501 196.506 239.463 196.441V197.696H238.694ZM240.052 196.338C240.219 196.338 240.358 196.269 240.471 196.13C240.585 195.992 240.642 195.772 240.642 195.472C240.642 195.209 240.587 195.004 240.479 194.856C240.372 194.707 240.229 194.633 240.052 194.633C239.854 194.633 239.706 194.713 239.607 194.875C239.511 195.035 239.463 195.234 239.463 195.472C239.463 195.625 239.484 195.767 239.526 195.899C239.57 196.03 239.635 196.136 239.721 196.217C239.808 196.298 239.919 196.338 240.052 196.338Z" fill="#919EAB"/>
<path d="M257.878 196.902C257.519 196.902 257.207 196.823 256.944 196.667C256.683 196.509 256.48 196.286 256.336 195.996C256.194 195.705 256.123 195.357 256.123 194.954C256.123 194.549 256.195 194.199 256.339 193.906C256.484 193.613 256.689 193.388 256.952 193.23C257.215 193.07 257.524 192.99 257.878 192.99C258.231 192.99 258.538 193.069 258.8 193.227C259.061 193.385 259.263 193.611 259.405 193.904C259.549 194.197 259.621 194.547 259.621 194.954C259.621 195.356 259.55 195.702 259.408 195.993C259.267 196.285 259.066 196.509 258.805 196.667C258.543 196.823 258.235 196.902 257.878 196.902ZM257.878 196.27C258.064 196.27 258.225 196.226 258.36 196.138C258.497 196.049 258.602 195.908 258.676 195.717C258.75 195.524 258.787 195.273 258.787 194.964C258.787 194.647 258.749 194.39 258.673 194.193C258.6 193.997 258.494 193.853 258.358 193.762C258.222 193.669 258.063 193.622 257.878 193.622C257.694 193.622 257.534 193.669 257.397 193.762C257.26 193.853 257.154 193.998 257.078 194.196C257.003 194.392 256.965 194.649 256.965 194.964C256.965 195.275 257.003 195.526 257.078 195.717C257.154 195.908 257.26 196.049 257.397 196.138C257.534 196.226 257.694 196.27 257.878 196.27ZM261.298 194.075C261.526 194.075 261.722 194.121 261.887 194.214C262.054 194.307 262.185 194.433 262.279 194.591C262.376 194.749 262.431 194.925 262.445 195.12H261.806C261.793 195.048 261.768 194.977 261.729 194.906C261.691 194.835 261.636 194.776 261.566 194.73C261.496 194.683 261.408 194.659 261.303 194.659C261.124 194.659 260.978 194.728 260.866 194.867C260.756 195.004 260.7 195.213 260.7 195.493C260.7 195.758 260.755 195.969 260.863 196.125C260.972 196.279 261.124 196.357 261.319 196.357C261.422 196.357 261.508 196.331 261.577 196.28C261.647 196.229 261.701 196.169 261.74 196.099C261.779 196.027 261.803 195.96 261.814 195.899H262.437C262.425 196.086 262.371 196.257 262.274 196.409C262.178 196.56 262.046 196.68 261.879 196.77C261.714 196.858 261.521 196.902 261.298 196.902C261.045 196.902 260.82 196.845 260.621 196.733C260.423 196.621 260.267 196.46 260.153 196.251C260.041 196.041 259.984 195.79 259.984 195.499C259.984 195.218 260.039 194.971 260.148 194.756C260.256 194.542 260.409 194.376 260.606 194.256C260.804 194.135 261.035 194.075 261.298 194.075ZM264.545 194.662H263.94L263.945 196.112C263.945 196.179 263.953 196.229 263.969 196.262C263.986 196.294 264.013 196.315 264.048 196.325C264.085 196.334 264.131 196.338 264.187 196.338H264.553V196.812C264.518 196.828 264.463 196.843 264.387 196.857C264.314 196.871 264.21 196.878 264.077 196.878C263.838 196.878 263.653 196.847 263.521 196.786C263.392 196.724 263.301 196.638 263.25 196.528C263.199 196.417 263.174 196.289 263.174 196.144V194.662H262.732V194.127H263.2L263.392 193.306H263.94V194.125H264.545V194.662Z" fill="#919EAB"/>
<path d="M282.096 193.043H282.864V196.849H282.172L280.364 194.23V196.849H279.598V193.043H280.358L282.096 195.562V193.043ZM284.715 196.902C284.448 196.902 284.215 196.844 284.017 196.73C283.821 196.616 283.668 196.455 283.559 196.246C283.452 196.037 283.399 195.79 283.399 195.504C283.399 195.218 283.452 194.968 283.559 194.754C283.668 194.54 283.821 194.373 284.017 194.254C284.215 194.134 284.449 194.075 284.717 194.075C284.986 194.075 285.218 194.134 285.415 194.251C285.611 194.367 285.763 194.532 285.87 194.746C285.977 194.96 286.031 195.213 286.031 195.504C286.031 195.778 285.978 196.02 285.873 196.23C285.769 196.439 285.619 196.603 285.423 196.723C285.228 196.842 284.992 196.902 284.715 196.902ZM284.717 196.33C284.852 196.33 284.961 196.291 285.044 196.212C285.126 196.133 285.186 196.029 285.223 195.901C285.261 195.772 285.28 195.63 285.28 195.478C285.28 195.334 285.263 195.198 285.228 195.07C285.195 194.942 285.137 194.838 285.054 194.759C284.972 194.68 284.859 194.641 284.717 194.641C284.582 194.641 284.472 194.678 284.388 194.754C284.306 194.828 284.245 194.928 284.207 195.057C284.168 195.183 284.149 195.323 284.149 195.478C284.149 195.62 284.166 195.757 284.201 195.888C284.236 196.018 284.295 196.124 284.378 196.207C284.46 196.289 284.573 196.33 284.717 196.33ZM288.775 194.127L287.754 196.849H287.198L286.174 194.127H286.869L287.464 195.862H287.485L288.072 194.127H288.775Z" fill="#919EAB"/>
<path d="M303.8 193.043C303.819 193.043 303.873 193.043 303.96 193.043C304.05 193.043 304.154 193.043 304.274 193.043C304.395 193.043 304.515 193.044 304.634 193.046C304.755 193.046 304.856 193.047 304.937 193.048C305.398 193.059 305.775 193.141 306.066 193.296C306.357 193.45 306.57 193.666 306.706 193.943C306.842 194.22 306.911 194.549 306.911 194.928C306.911 195.322 306.839 195.664 306.695 195.951C306.551 196.237 306.331 196.458 306.034 196.615C305.74 196.771 305.365 196.849 304.911 196.849H303.8V193.043ZM304.574 193.664V196.228H304.926C305.144 196.228 305.341 196.186 305.519 196.101C305.698 196.017 305.841 195.879 305.948 195.688C306.055 195.497 306.108 195.242 306.108 194.922C306.108 194.626 306.061 194.385 305.966 194.201C305.871 194.015 305.736 193.879 305.561 193.793C305.385 193.707 305.177 193.664 304.937 193.664H304.574ZM308.123 195.664C308.121 195.803 308.143 195.924 308.189 196.028C308.234 196.129 308.3 196.208 308.386 196.265C308.474 196.319 308.579 196.346 308.702 196.346C308.833 196.346 308.948 196.318 309.047 196.262C309.147 196.206 309.216 196.114 309.254 195.986H309.947C309.917 196.179 309.84 196.344 309.715 196.48C309.592 196.617 309.443 196.722 309.268 196.794C309.092 196.866 308.91 196.902 308.72 196.902C308.452 196.902 308.215 196.845 308.01 196.733C307.806 196.619 307.647 196.458 307.533 196.251C307.419 196.044 307.362 195.8 307.362 195.52C307.362 195.248 307.414 195.003 307.517 194.785C307.621 194.566 307.771 194.393 307.967 194.267C308.166 194.139 308.403 194.075 308.681 194.075C308.958 194.075 309.19 194.134 309.378 194.251C309.568 194.367 309.71 194.529 309.805 194.738C309.901 194.945 309.949 195.185 309.949 195.457V195.664H308.123ZM308.12 195.207H309.231C309.231 195.098 309.211 194.998 309.17 194.906C309.13 194.815 309.069 194.743 308.986 194.691C308.905 194.638 308.804 194.612 308.681 194.612C308.561 194.612 308.46 194.641 308.375 194.699C308.293 194.755 308.23 194.828 308.186 194.92C308.142 195.011 308.12 195.107 308.12 195.207ZM311.649 194.075C311.877 194.075 312.073 194.121 312.238 194.214C312.405 194.307 312.536 194.433 312.631 194.591C312.727 194.749 312.782 194.925 312.796 195.12H312.157C312.145 195.048 312.119 194.977 312.08 194.906C312.042 194.835 311.987 194.776 311.917 194.73C311.847 194.683 311.759 194.659 311.654 194.659C311.475 194.659 311.329 194.728 311.217 194.867C311.107 195.004 311.051 195.213 311.051 195.493C311.051 195.758 311.106 195.969 311.215 196.125C311.323 196.279 311.475 196.357 311.67 196.357C311.773 196.357 311.859 196.331 311.928 196.28C311.998 196.229 312.052 196.169 312.091 196.099C312.13 196.027 312.154 195.96 312.165 195.899H312.788C312.776 196.086 312.722 196.257 312.625 196.409C312.529 196.56 312.397 196.68 312.23 196.77C312.066 196.858 311.872 196.902 311.649 196.902C311.396 196.902 311.171 196.845 310.972 196.733C310.774 196.621 310.618 196.46 310.504 196.251C310.392 196.041 310.335 195.79 310.335 195.499C310.335 195.218 310.39 194.971 310.499 194.756C310.607 194.542 310.76 194.376 310.957 194.256C311.155 194.135 311.386 194.075 311.649 194.075Z" fill="#919EAB"/>
<path d="M43.0266 153.483H51.8351C60.6435 153.483 78.2604 153.483 95.8773 143.934C113.494 134.528 131.111 115.215 148.728 109.6C166.345 103.77 183.962 111.638 201.579 107.704C219.195 103.77 236.812 88.7485 254.429 88.6412C272.046 88.7485 289.663 103.77 298.471 111.531L307.28 119.149" stroke="#00AB55" stroke-width="0.877318"/>
<path opacity="0.16" d="M43.0266 164.26H51.8497C60.6727 164.26 78.3188 164.26 95.9649 157.194C113.611 150.233 131.257 135.941 148.903 131.786C166.549 127.472 184.195 133.295 201.842 130.383C219.488 127.472 237.134 116.356 254.78 116.277C272.426 116.356 290.072 127.472 298.895 133.215L307.718 138.853V181.198H298.895C290.072 181.198 272.426 181.198 254.78 181.198C237.134 181.198 219.488 181.198 201.842 181.198C184.195 181.198 166.549 181.198 148.903 181.198C131.257 181.198 113.611 181.198 95.9649 181.198C78.3188 181.198 60.6727 181.198 51.8497 181.198H43.0266" fill="url(#paint0_linear_887_2738)"/>
<path d="M43.0266 164.585H51.8497C60.6727 164.585 78.3188 164.585 95.9649 157.518C113.611 150.558 131.257 136.266 148.903 132.111C166.549 127.797 184.195 133.619 201.842 130.708C219.488 127.797 237.134 116.681 254.78 116.601C272.426 116.681 290.072 127.797 298.895 133.54L307.718 139.177" stroke="#FFE700" stroke-width="0.877318"/>
<path d="M44.5723 100.924C44.5723 99.9546 45.3578 99.1691 46.3269 99.1691V99.1691C47.296 99.1691 48.0815 99.9546 48.0815 100.924V181.637H44.5723V100.924Z" fill="#2D99FF"/>
<path d="M88.1458 139.526C88.1458 138.557 88.9313 137.771 89.9004 137.771V137.771C90.8694 137.771 91.655 138.557 91.655 139.526V181.637H88.1458V139.526Z" fill="#2D99FF"/>
<path d="M131.719 130.753C131.719 129.784 132.505 128.998 133.474 128.998V128.998C134.443 128.998 135.229 129.784 135.229 130.753V181.637H131.719V130.753Z" fill="#2D99FF"/>
<path d="M175.293 100.924C175.293 99.9546 176.078 99.1691 177.047 99.1691V99.1691C178.016 99.1691 178.802 99.9546 178.802 100.924V181.637H175.293V100.924Z" fill="#2D99FF"/>
<path d="M218.866 113.206C218.866 112.237 219.652 111.452 220.621 111.452V111.452C221.59 111.452 222.375 112.237 222.375 113.206V181.637H218.866V113.206Z" fill="#2D99FF"/>
<path d="M262.439 95.6598C262.439 94.6907 263.225 93.9052 264.194 93.9052V93.9052C265.163 93.9052 265.949 94.6907 265.949 95.6598V181.637H262.439V95.6598Z" fill="#2D99FF"/>
<path d="M306.013 121.979C306.013 121.01 306.799 120.225 307.768 120.225V120.225C308.737 120.225 309.522 121.01 309.522 121.979V181.637H306.013V121.979Z" fill="#2D99FF"/>
</g>
<defs>
<filter id="filter0_b_887_2738" x="1.03469" y="-3.16208" width="331.993" height="230.507" filterUnits="userSpaceOnUse" color-interpolation-filters="sRGB">
<feFlood flood-opacity="0" result="BackgroundImageFix"/>
<feGaussianBlur in="BackgroundImageFix" stdDeviation="1.96678"/>
<feComposite in2="SourceAlpha" operator="in" result="effect1_backgroundBlur_887_2738"/>
<feBlend mode="normal" in="SourceGraphic" in2="effect1_backgroundBlur_887_2738" result="shape"/>
</filter>
<filter id="filter1_d_887_2738" x="0.914808" y="7.48939" width="329.872" height="221.084" filterUnits="userSpaceOnUse" color-interpolation-filters="sRGB">
<feFlood flood-opacity="0" result="BackgroundImageFix"/>
<feColorMatrix in="SourceAlpha" type="matrix" values="0 0 0 0 0 0 0 0 0 0 0 0 0 0 0 0 0 0 127 0" result="hardAlpha"/>
<feMorphology radius="1.75464" operator="erode" in="SourceAlpha" result="effect1_dropShadow_887_2738"/>
<feOffset dy="5.26391"/>
<feGaussianBlur stdDeviation="5.26391"/>
<feColorMatrix type="matrix" values="0 0 0 0 0.568627 0 0 0 0 0.619608 0 0 0 0 0.670588 0 0 0 0.12 0"/>
<feBlend mode="normal" in2="BackgroundImageFix" result="effect1_dropShadow_887_2738"/>
<feBlend mode="normal" in="SourceGraphic" in2="effect1_dropShadow_887_2738" result="shape"/>
</filter>
<linearGradient id="paint0_linear_887_2738" x1="43.0266" y1="116.277" x2="43.0266" y2="181.198" gradientUnits="userSpaceOnUse">
<stop stop-color="#FFE700"/>
<stop offset="1" stop-color="#FFE700" stop-opacity="0.16"/>
</linearGradient>
</defs>
</svg>
