<svg width="197" height="53" viewBox="0 0 197 53" fill="none" xmlns="http://www.w3.org/2000/svg">
<g filter="url(#filter0_b_887_2753)">
<rect x="1.75488" y="1.14575" width="194.318" height="50.7813" rx="4.72028" fill="white" fill-opacity="0.8"/>
<g clip-path="url(#clip0_887_2753)">
<path d="M40.7356 12.9464H13.5557V40.1263H40.7356V12.9464Z" fill="#1877F2"/>
<path d="M33.9405 26.5364C33.9405 22.7992 30.8828 19.7415 27.1456 19.7415C23.4083 19.7415 20.3506 22.7992 20.3506 26.5364C20.3506 29.9339 22.8138 32.7368 26.0414 33.2465V28.49H24.3426V26.5364H26.0414V25.0076C26.0414 23.3088 27.0606 22.3745 28.5895 22.3745C29.3539 22.3745 30.1184 22.5444 30.1184 22.5444V24.2431H29.269C28.4196 24.2431 28.1648 24.7527 28.1648 25.2624V26.5364H30.0334L29.6937 28.49H28.0799V33.3314C31.4774 32.8218 33.9405 29.9339 33.9405 26.5364Z" fill="white"/>
</g>
<rect x="13.9804" y="13.3711" width="26.3305" height="26.3305" rx="13.1653" stroke="white" stroke-width="0.849372"/>
<g clip-path="url(#clip1_887_2753)">
<path d="M63.6687 12.9464H36.4888V40.1263H63.6687V12.9464Z" fill="#1DA1F2"/>
<path d="M56.8736 22.2894C56.364 22.5443 55.8544 22.6292 55.2598 22.7141C55.8544 22.3744 56.2791 21.8648 56.449 21.1853C55.9393 21.525 55.3448 21.6949 54.6653 21.8648C54.1557 21.3551 53.3912 21.0154 52.6268 21.0154C50.8431 21.0154 49.4841 22.7141 49.9088 24.4129C47.6155 24.3279 45.577 23.2237 44.1331 21.525C43.3686 22.7991 43.7933 24.4129 44.9824 25.2622C44.5577 25.2622 44.1331 25.0924 43.7084 24.9225C43.7084 26.1966 44.6427 27.3857 45.9167 27.7254C45.4921 27.8104 45.0674 27.8953 44.6427 27.8104C44.9824 28.9145 46.0017 29.7639 47.2757 29.7639C46.2565 30.5283 44.7276 30.953 43.2837 30.7832C44.5577 31.5476 46.0017 32.0572 47.5306 32.0572C52.7117 32.0572 55.5996 27.7254 55.4297 23.7334C56.0243 23.3936 56.5339 22.884 56.8736 22.2894Z" fill="white"/>
</g>
<rect x="36.9135" y="13.3711" width="26.3305" height="26.3305" rx="13.1653" stroke="white" stroke-width="0.849372"/>
<g clip-path="url(#clip2_887_2753)">
<path d="M86.6015 12.9464H59.4216V40.1263H86.6015V12.9464Z" fill="#FF0000"/>
<path d="M79.4668 23.2237C79.2969 22.6292 78.8722 22.2045 78.2776 22.0346C77.2584 21.7798 72.9266 21.7798 72.9266 21.7798C72.9266 21.7798 68.6797 21.7798 67.5756 22.0346C66.981 22.2045 66.5563 22.6292 66.3864 23.2237C66.2166 24.3279 66.2166 26.5363 66.2166 26.5363C66.2166 26.5363 66.2166 28.7446 66.4714 29.8488C66.6412 30.4434 67.0659 30.8681 67.6605 31.0379C68.6797 31.2928 73.0115 31.2928 73.0115 31.2928C73.0115 31.2928 77.2584 31.2928 78.3626 31.0379C78.9571 30.8681 79.3818 30.4434 79.5517 29.8488C79.8065 28.7446 79.8065 26.5363 79.8065 26.5363C79.8065 26.5363 79.8065 24.3279 79.4668 23.2237ZM71.6525 28.5748V24.4978L75.2199 26.5363L71.6525 28.5748Z" fill="white"/>
</g>
<rect x="59.8463" y="13.3711" width="26.3305" height="26.3305" rx="13.1653" stroke="white" stroke-width="0.849372"/>
<g clip-path="url(#clip3_887_2753)">
<path d="M109.535 12.9464H82.3547V40.1263H109.535V12.9464Z" fill="#F00073"/>
<path d="M95.9451 20.7606C97.8137 20.7606 98.0685 20.7606 98.8329 20.7606C99.5124 20.7606 99.8522 20.9305 100.107 21.0154C100.447 21.1853 100.702 21.2703 100.956 21.5251C101.211 21.7799 101.381 22.0347 101.466 22.3744C101.551 22.6292 101.636 22.969 101.721 23.6485C101.721 24.4129 101.721 24.5828 101.721 26.5364C101.721 28.4899 101.721 28.6598 101.721 29.4242C101.721 30.1037 101.551 30.4435 101.466 30.6983C101.296 31.038 101.211 31.2928 100.956 31.5477C100.702 31.8025 100.447 31.9723 100.107 32.0573C99.8522 32.1422 99.5124 32.2272 98.8329 32.3121C98.0685 32.3121 97.8986 32.3121 95.9451 32.3121C93.9915 32.3121 93.8216 32.3121 93.0572 32.3121C92.3777 32.3121 92.0379 32.1422 91.7831 32.0573C91.4434 31.8874 91.1886 31.8025 90.9338 31.5477C90.6789 31.2928 90.5091 31.038 90.4241 30.6983C90.3392 30.4435 90.2543 30.1037 90.1693 29.4242C90.1693 28.6598 90.1693 28.4899 90.1693 26.5364C90.1693 24.5828 90.1693 24.4129 90.1693 23.6485C90.1693 22.969 90.3392 22.6292 90.4241 22.3744C90.594 22.0347 90.6789 21.7799 90.9338 21.5251C91.1886 21.2703 91.4434 21.1004 91.7831 21.0154C92.0379 20.9305 92.3777 20.8456 93.0572 20.7606C93.8216 20.7606 94.0764 20.7606 95.9451 20.7606ZM95.9451 19.4866C93.9915 19.4866 93.8216 19.4866 93.0572 19.4866C92.2928 19.4866 91.7831 19.6564 91.3584 19.8263C90.9338 19.9962 90.5091 20.251 90.0844 20.6757C89.6597 21.1004 89.4898 21.4401 89.235 21.9498C89.0651 22.3744 88.9802 22.8841 88.8953 23.6485C88.8953 24.4129 88.8953 24.6677 88.8953 26.5364C88.8953 28.4899 88.8953 28.6598 88.8953 29.4242C88.8953 30.1887 89.0651 30.6983 89.235 31.123C89.4049 31.5477 89.6597 31.9723 90.0844 32.397C90.5091 32.8217 90.8488 32.9916 91.3584 33.2464C91.7831 33.4163 92.2928 33.5012 93.0572 33.5861C93.8216 33.5861 94.0764 33.5861 95.9451 33.5861C97.8137 33.5861 98.0685 33.5861 98.8329 33.5861C99.5974 33.5861 100.107 33.4163 100.532 33.2464C100.956 33.0765 101.381 32.8217 101.806 32.397C102.23 31.9723 102.4 31.6326 102.655 31.123C102.825 30.6983 102.91 30.1887 102.995 29.4242C102.995 28.6598 102.995 28.405 102.995 26.5364C102.995 24.6677 102.995 24.4129 102.995 23.6485C102.995 22.8841 102.825 22.3744 102.655 21.9498C102.485 21.5251 102.23 21.1004 101.806 20.6757C101.381 20.251 101.041 20.0811 100.532 19.8263C100.107 19.6564 99.5974 19.5715 98.8329 19.4866C98.0685 19.4866 97.8986 19.4866 95.9451 19.4866Z" fill="white"/>
<path d="M95.9451 22.8841C93.9066 22.8841 92.2928 24.4979 92.2928 26.5364C92.2928 28.5749 93.9066 30.1887 95.9451 30.1887C97.9835 30.1887 99.5974 28.5749 99.5974 26.5364C99.5974 24.4979 97.9835 22.8841 95.9451 22.8841ZM95.9451 28.9146C94.671 28.9146 93.5668 27.8954 93.5668 26.5364C93.5668 25.2623 94.5861 24.1581 95.9451 24.1581C97.2191 24.1581 98.3233 25.1774 98.3233 26.5364C98.3233 27.8104 97.2191 28.9146 95.9451 28.9146Z" fill="white"/>
<path d="M99.6823 23.6485C100.151 23.6485 100.532 23.2682 100.532 22.7991C100.532 22.33 100.151 21.9498 99.6823 21.9498C99.2132 21.9498 98.8329 22.33 98.8329 22.7991C98.8329 23.2682 99.2132 23.6485 99.6823 23.6485Z" fill="white"/>
</g>
<rect x="82.7794" y="13.3711" width="26.3305" height="26.3305" rx="13.1653" stroke="white" stroke-width="0.849372"/>
<rect x="117.008" y="12.5531" width="67.6573" height="23.6014" rx="5.11364" fill="white"/>
<path d="M135.21 26.6002L136.852 22.0499H137.595L139.235 26.6002H138.555L138.127 25.4076H136.33L135.893 26.6002H135.21ZM136.491 24.7971H137.954L137.227 22.7107L136.491 24.7971ZM141.029 26.6632C140.601 26.6632 140.265 26.5174 140.019 26.2257C139.774 25.932 139.651 25.5093 139.651 24.9576C139.651 24.6198 139.7 24.3261 139.799 24.0764C139.898 23.8247 140.044 23.6296 140.24 23.4911C140.437 23.3527 140.68 23.2834 140.97 23.2834C141.116 23.2834 141.247 23.3013 141.36 23.3369C141.475 23.3726 141.576 23.4188 141.662 23.4754C141.75 23.532 141.822 23.5929 141.879 23.6579C141.938 23.7229 141.983 23.7838 142.014 23.8404V21.924H142.691V26.6002H142.187L142.112 25.9331C142.089 26.0044 142.053 26.082 142.005 26.166C141.957 26.2499 141.891 26.3296 141.807 26.4051C141.725 26.4806 141.62 26.5425 141.492 26.5908C141.364 26.639 141.21 26.6632 141.029 26.6632ZM141.158 26.1565C141.461 26.1565 141.679 26.0621 141.813 25.8733C141.947 25.6824 142.014 25.3698 142.014 24.9355C142.012 24.6901 141.982 24.4824 141.923 24.3125C141.864 24.1425 141.773 24.0146 141.649 23.9285C141.528 23.8404 141.367 23.7964 141.168 23.7964C140.918 23.7964 140.715 23.8866 140.557 24.067C140.4 24.2453 140.321 24.5348 140.321 24.9355C140.321 25.3299 140.393 25.632 140.535 25.8418C140.68 26.0516 140.888 26.1565 141.158 26.1565ZM144.791 26.6632C144.363 26.6632 144.026 26.5174 143.781 26.2257C143.535 25.932 143.413 25.5093 143.413 24.9576C143.413 24.6198 143.462 24.3261 143.56 24.0764C143.659 23.8247 143.806 23.6296 144.001 23.4911C144.198 23.3527 144.442 23.2834 144.731 23.2834C144.878 23.2834 145.008 23.3013 145.121 23.3369C145.237 23.3726 145.337 23.4188 145.423 23.4754C145.512 23.532 145.584 23.5929 145.641 23.6579C145.699 23.7229 145.744 23.7838 145.776 23.8404V21.924H146.452V26.6002H145.949L145.873 25.9331C145.85 26.0044 145.815 26.082 145.766 26.166C145.718 26.2499 145.652 26.3296 145.568 26.4051C145.486 26.4806 145.381 26.5425 145.253 26.5908C145.126 26.639 144.971 26.6632 144.791 26.6632ZM144.92 26.1565C145.222 26.1565 145.44 26.0621 145.574 25.8733C145.709 25.6824 145.776 25.3698 145.776 24.9355C145.774 24.6901 145.743 24.4824 145.685 24.3125C145.626 24.1425 145.535 24.0146 145.411 23.9285C145.289 23.8404 145.129 23.7964 144.929 23.7964C144.68 23.7964 144.476 23.8866 144.319 24.067C144.162 24.2453 144.083 24.5348 144.083 24.9355C144.083 25.3299 144.154 25.632 144.297 25.8418C144.442 26.0516 144.649 26.1565 144.92 26.1565ZM150.495 26.6632C150.278 26.6632 150.068 26.6359 149.862 26.5813C149.656 26.5268 149.47 26.446 149.302 26.339C149.134 26.2299 148.995 26.0946 148.883 25.9331C148.774 25.7715 148.706 25.5827 148.679 25.3667H149.381C149.416 25.5303 149.486 25.6677 149.591 25.7789C149.698 25.8901 149.829 25.974 149.985 26.0306C150.14 26.0873 150.309 26.1156 150.491 26.1156C150.693 26.1156 150.873 26.0883 151.033 26.0338C151.194 25.9771 151.322 25.8974 151.417 25.7946C151.511 25.6897 151.558 25.5639 151.558 25.417C151.558 25.2848 151.526 25.1726 151.461 25.0803C151.398 24.988 151.307 24.9114 151.19 24.8506C151.075 24.7876 150.935 24.7383 150.771 24.7027L149.909 24.5076C149.571 24.4362 149.305 24.3041 149.11 24.1111C148.917 23.916 148.819 23.6579 148.817 23.3369C148.815 23.0684 148.885 22.8334 149.028 22.632C149.173 22.4306 149.37 22.2743 149.62 22.1632C149.869 22.0499 150.154 21.9932 150.472 21.9932C150.844 21.9932 151.155 22.0551 151.407 22.1789C151.661 22.3027 151.853 22.4663 151.983 22.6698C152.113 22.8712 152.179 23.0904 152.181 23.3275H151.492C151.475 23.1345 151.419 22.9813 151.322 22.8681C151.226 22.7548 151.104 22.674 150.957 22.6257C150.812 22.5754 150.653 22.5502 150.479 22.5502C150.353 22.5502 150.232 22.566 150.117 22.5974C150.002 22.6289 149.9 22.675 149.812 22.7359C149.724 22.7967 149.653 22.8722 149.601 22.9625C149.55 23.0506 149.525 23.1523 149.525 23.2677C149.525 23.4229 149.578 23.5488 149.683 23.6453C149.788 23.7418 149.981 23.8247 150.262 23.8939L151.105 24.0859C151.346 24.1362 151.541 24.2107 151.69 24.3093C151.839 24.4058 151.954 24.516 152.033 24.6397C152.113 24.7635 152.168 24.8925 152.197 25.0268C152.226 25.159 152.241 25.2859 152.241 25.4076C152.241 25.6425 152.171 25.8555 152.03 26.0464C151.89 26.2352 151.689 26.3852 151.429 26.4964C151.169 26.6076 150.857 26.6632 150.495 26.6632ZM154.367 26.6632C154.063 26.6632 153.796 26.5981 153.567 26.4681C153.341 26.3359 153.165 26.145 153.039 25.8953C152.915 25.6457 152.853 25.3436 152.853 24.989C152.853 24.6471 152.912 24.3481 153.029 24.0922C153.149 23.8362 153.322 23.638 153.549 23.4974C153.775 23.3548 154.049 23.2834 154.37 23.2834C154.676 23.2834 154.942 23.3506 155.166 23.4848C155.391 23.617 155.565 23.8111 155.688 24.067C155.812 24.3208 155.874 24.6282 155.874 24.989C155.874 25.3184 155.815 25.609 155.698 25.8607C155.583 26.1125 155.413 26.3097 155.188 26.4523C154.966 26.5929 154.692 26.6632 154.367 26.6632ZM154.37 26.1439C154.555 26.1439 154.709 26.0957 154.833 25.9992C154.958 25.9006 155.053 25.7632 155.116 25.5869C155.179 25.4086 155.21 25.203 155.21 24.9701C155.21 24.7541 155.182 24.5579 155.125 24.3817C155.071 24.2034 154.981 24.0618 154.858 23.9569C154.734 23.852 154.571 23.7995 154.37 23.7995C154.181 23.7995 154.024 23.8478 153.898 23.9443C153.772 24.0387 153.677 24.174 153.612 24.3502C153.549 24.5243 153.517 24.731 153.517 24.9701C153.517 25.182 153.545 25.3771 153.602 25.5555C153.659 25.7338 153.75 25.8764 153.876 25.9834C154.002 26.0904 154.166 26.1439 154.37 26.1439ZM157.922 23.2834C158.166 23.2834 158.382 23.3317 158.571 23.4282C158.762 23.5226 158.916 23.6548 159.033 23.8247C159.151 23.9946 159.222 24.1929 159.247 24.4195H158.665C158.646 24.3125 158.605 24.2128 158.542 24.1205C158.482 24.0282 158.399 23.9548 158.294 23.9002C158.191 23.8436 158.068 23.8153 157.926 23.8153C157.665 23.8153 157.454 23.9107 157.29 24.1016C157.126 24.2925 157.044 24.5852 157.044 24.9796C157.044 25.3404 157.12 25.6278 157.271 25.8418C157.424 26.0558 157.647 26.1628 157.938 26.1628C158.079 26.1628 158.2 26.1334 158.303 26.0747C158.408 26.016 158.491 25.9404 158.552 25.8481C158.613 25.7558 158.651 25.6604 158.668 25.5618H159.241C159.218 25.7799 159.147 25.9719 159.027 26.1376C158.909 26.3034 158.755 26.4324 158.564 26.5247C158.376 26.617 158.162 26.6632 157.922 26.6632C157.627 26.6632 157.364 26.5992 157.136 26.4712C156.907 26.3411 156.728 26.1513 156.598 25.9016C156.47 25.6499 156.406 25.3446 156.406 24.9859C156.406 24.6481 156.465 24.3513 156.585 24.0953C156.705 23.8394 156.878 23.6401 157.104 23.4974C157.333 23.3548 157.606 23.2834 157.922 23.2834ZM160.701 23.3464V26.6002H160.053V23.3464H160.701ZM160.714 22.053V22.717H160.038V22.053H160.714ZM162.581 26.6632C162.371 26.6632 162.184 26.6254 162.021 26.5499C161.859 26.4743 161.732 26.3653 161.64 26.2226C161.548 26.0799 161.501 25.9079 161.501 25.7065C161.501 25.3457 161.629 25.0761 161.885 24.8978C162.141 24.7195 162.549 24.625 163.109 24.6146L163.644 24.5988V24.3628C163.644 24.1761 163.589 24.0292 163.478 23.9222C163.366 23.8153 163.195 23.7628 162.965 23.7649C162.791 23.7649 162.635 23.8048 162.499 23.8845C162.365 23.9642 162.277 24.0953 162.235 24.2778H161.649C161.662 24.0618 161.724 23.8803 161.835 23.7334C161.948 23.5845 162.104 23.4722 162.301 23.3967C162.498 23.3212 162.73 23.2834 162.996 23.2834C163.292 23.2834 163.535 23.3243 163.726 23.4062C163.917 23.4859 164.059 23.6034 164.151 23.7586C164.245 23.9139 164.293 24.1027 164.293 24.325V26.6002H163.723L163.67 26.0023C163.548 26.252 163.394 26.425 163.207 26.5215C163.022 26.616 162.814 26.6632 162.581 26.6632ZM162.792 26.1943C162.894 26.1943 162.996 26.1764 163.097 26.1408C163.198 26.103 163.289 26.0527 163.371 25.9897C163.452 25.9247 163.518 25.8523 163.566 25.7726C163.616 25.6929 163.642 25.6111 163.644 25.5271V24.989L163.204 24.9985C162.979 25.0006 162.788 25.0236 162.631 25.0677C162.476 25.1118 162.356 25.1799 162.272 25.2722C162.191 25.3646 162.15 25.4873 162.15 25.6404C162.15 25.8146 162.211 25.9509 162.332 26.0495C162.454 26.146 162.607 26.1943 162.792 26.1943ZM166.12 26.6443C165.927 26.6443 165.772 26.6191 165.655 26.5688C165.539 26.5184 165.451 26.4513 165.39 26.3674C165.329 26.2813 165.288 26.1848 165.267 26.0778C165.249 25.9688 165.239 25.8565 165.239 25.7411V21.924H165.903V25.6719C165.903 25.8229 165.933 25.9383 165.991 26.0181C166.052 26.0978 166.144 26.1429 166.268 26.1534L166.438 26.1597V26.5876C166.386 26.6044 166.331 26.6181 166.274 26.6285C166.22 26.639 166.169 26.6443 166.12 26.6443Z" fill="#919EAB"/>
<rect x="117.008" y="12.5531" width="67.6573" height="23.6014" rx="5.11364" stroke="#ECEDF1" stroke-width="0.786713"/>
<rect x="1.36153" y="0.752395" width="195.105" height="51.568" rx="5.11364" stroke="#ECEDF1" stroke-width="0.786713"/>
</g>
<defs>
<filter id="filter0_b_887_2753" x="-2.17859" y="-2.78784" width="202.185" height="58.6484" filterUnits="userSpaceOnUse" color-interpolation-filters="sRGB">
<feFlood flood-opacity="0" result="BackgroundImageFix"/>
<feGaussianBlur in="BackgroundImageFix" stdDeviation="1.57343"/>
<feComposite in2="SourceAlpha" operator="in" result="effect1_backgroundBlur_887_2753"/>
<feBlend mode="normal" in="SourceGraphic" in2="effect1_backgroundBlur_887_2753" result="shape"/>
</filter>
<clipPath id="clip0_887_2753">
<rect x="13.5557" y="12.9464" width="27.1799" height="27.1799" rx="13.59" fill="white"/>
</clipPath>
<clipPath id="clip1_887_2753">
<rect x="36.4888" y="12.9464" width="27.1799" height="27.1799" rx="13.59" fill="white"/>
</clipPath>
<clipPath id="clip2_887_2753">
<rect x="59.4216" y="12.9464" width="27.1799" height="27.1799" rx="13.59" fill="white"/>
</clipPath>
<clipPath id="clip3_887_2753">
<rect x="82.3547" y="12.9464" width="27.1799" height="27.1799" rx="13.59" fill="white"/>
</clipPath>
</defs>
</svg>
