<svg width="26" height="26" viewBox="0 0 26 26" fill="none" xmlns="http://www.w3.org/2000/svg">
<path d="M13.0798 2.60577C16.4163 2.60577 16.8712 2.60577 18.2361 2.60577C19.4494 2.60577 20.056 2.90908 20.511 3.06073C21.1176 3.36405 21.5726 3.5157 22.0275 3.97067C22.4825 4.42563 22.7858 4.8806 22.9375 5.48722C23.0891 5.94219 23.2408 6.54881 23.3924 7.76206C23.3924 9.12696 23.3924 9.43027 23.3924 12.9183C23.3924 16.4064 23.3924 16.7097 23.3924 18.0746C23.3924 19.2879 23.0891 19.8945 22.9375 20.3495C22.6341 20.9561 22.4825 21.4111 22.0275 21.866C21.5726 22.321 21.1176 22.6243 20.511 22.776C20.056 22.9276 19.4494 23.0793 18.2361 23.2309C16.8712 23.2309 16.5679 23.2309 13.0798 23.2309C9.59177 23.2309 9.28846 23.2309 7.92356 23.2309C6.71031 23.2309 6.10369 22.9276 5.64872 22.776C5.0421 22.4727 4.58713 22.321 4.13217 21.866C3.6772 21.4111 3.37389 20.9561 3.22223 20.3495C3.07058 19.8945 2.91892 19.2879 2.76727 18.0746C2.76727 16.7097 2.76727 16.4064 2.76727 12.9183C2.76727 9.43027 2.76727 9.12696 2.76727 7.76206C2.76727 6.54881 3.07058 5.94219 3.22223 5.48722C3.52554 4.8806 3.6772 4.42563 4.13217 3.97067C4.58713 3.5157 5.0421 3.21239 5.64872 3.06073C6.10369 2.90908 6.71031 2.75742 7.92356 2.60577C9.28846 2.60577 9.74342 2.60577 13.0798 2.60577ZM13.0798 0.330933C9.59177 0.330933 9.28846 0.330933 7.92356 0.330933C6.55866 0.330933 5.64872 0.634245 4.89044 0.937556C4.13217 1.24087 3.37389 1.69583 2.61561 2.45411C1.85733 3.21239 1.55402 3.81901 1.09905 4.72895C0.795744 5.48722 0.644087 6.39716 0.492432 7.76206C0.492432 9.12696 0.492432 9.58193 0.492432 12.9183C0.492432 16.4064 0.492432 16.7097 0.492432 18.0746C0.492432 19.4395 0.795744 20.3495 1.09905 21.1077C1.40237 21.866 1.85733 22.6243 2.61561 23.3826C3.37389 24.1409 3.98051 24.4442 4.89044 24.8991C5.64872 25.2025 6.55866 25.3541 7.92356 25.5058C9.28846 25.5058 9.74342 25.5058 13.0798 25.5058C16.4163 25.5058 16.8712 25.5058 18.2361 25.5058C19.601 25.5058 20.511 25.2025 21.2692 24.8991C22.0275 24.5958 22.7858 24.1409 23.5441 23.3826C24.3024 22.6243 24.6057 22.0177 25.0606 21.1077C25.364 20.3495 25.5156 19.4395 25.6673 18.0746C25.6673 16.7097 25.6673 16.2548 25.6673 12.9183C25.6673 9.58193 25.6673 9.12696 25.6673 7.76206C25.6673 6.39716 25.364 5.48722 25.0606 4.72895C24.7573 3.97067 24.3024 3.21239 23.5441 2.45411C22.7858 1.69583 22.1792 1.39252 21.2692 0.937556C20.511 0.634245 19.601 0.482588 18.2361 0.330933C16.8712 0.330933 16.5679 0.330933 13.0798 0.330933Z" fill="url(#paint0_linear_887_2837)"/>
<path d="M13.0798 6.39716C9.44011 6.39716 6.55866 9.27861 6.55866 12.9183C6.55866 16.5581 9.44011 19.4395 13.0798 19.4395C16.7196 19.4395 19.601 16.5581 19.601 12.9183C19.601 9.27861 16.7196 6.39716 13.0798 6.39716ZM13.0798 17.1647C10.805 17.1647 8.83349 15.3448 8.83349 12.9183C8.83349 10.6435 10.6534 8.67199 13.0798 8.67199C15.3547 8.67199 17.3262 10.4919 17.3262 12.9183C17.3262 15.1932 15.3547 17.1647 13.0798 17.1647Z" fill="url(#paint1_linear_887_2837)"/>
<path d="M19.7527 7.76206C20.5903 7.76206 21.2692 7.08307 21.2692 6.2455C21.2692 5.40793 20.5903 4.72895 19.7527 4.72895C18.9151 4.72895 18.2361 5.40793 18.2361 6.2455C18.2361 7.08307 18.9151 7.76206 19.7527 7.76206Z" fill="url(#paint2_linear_887_2837)"/>
<defs>
<linearGradient id="paint0_linear_887_2837" x1="25.2739" y1="-0.0624255" x2="3.63929" y2="24.719" gradientUnits="userSpaceOnUse">
<stop stop-color="#6F307C"/>
<stop offset="1" stop-color="#DB8B39"/>
</linearGradient>
<linearGradient id="paint1_linear_887_2837" x1="25.2739" y1="-0.0624255" x2="3.63929" y2="24.719" gradientUnits="userSpaceOnUse">
<stop stop-color="#6F307C"/>
<stop offset="1" stop-color="#DB8B39"/>
</linearGradient>
<linearGradient id="paint2_linear_887_2837" x1="25.2739" y1="-0.0624255" x2="3.63929" y2="24.719" gradientUnits="userSpaceOnUse">
<stop stop-color="#6F307C"/>
<stop offset="1" stop-color="#DB8B39"/>
</linearGradient>
</defs>
</svg>
