<svg width="23" height="26" viewBox="0 0 23 26" fill="none" xmlns="http://www.w3.org/2000/svg">
<path d="M9.03499 10.1011V9.10577C8.69399 9.06022 8.34731 9.03175 7.98925 9.03175C3.72106 9.02614 0.248535 12.5015 0.248535 16.779C0.248535 19.4012 1.55571 21.722 3.55625 23.127C2.26612 21.7448 1.47614 19.8847 1.47614 17.8484C1.47614 13.6335 4.85205 10.1978 9.03499 10.1011Z" fill="#25F4EE"/>
<path d="M9.22255 21.3863C11.1265 21.3863 12.6837 19.8676 12.7519 17.9792L12.7576 1.10245H15.838C15.7754 0.755474 15.7414 0.397125 15.7414 0.0330811H11.5357L11.53 16.9098C11.4618 18.7983 9.90453 20.317 8.00064 20.317C7.40957 20.317 6.85261 20.1691 6.35815 19.9074C6.99469 20.8004 8.04043 21.3863 9.22255 21.3863Z" fill="#25F4EE"/>
<path d="M21.5953 6.83036V5.89186C20.4189 5.89186 19.3277 5.54487 18.407 4.94189C19.2254 5.88048 20.3336 6.56308 21.5953 6.83036Z" fill="#25F4EE"/>
<path d="M18.4069 4.94188C17.5089 3.91236 16.969 2.56995 16.969 1.10242H15.8438C16.1335 2.70647 17.0884 4.08302 18.4069 4.94188Z" fill="#FE2C55"/>
<path d="M7.995 13.2352C6.04561 13.2352 4.45996 14.8222 4.45996 16.7732C4.45996 18.1328 5.23289 19.3158 6.35819 19.9074C5.93763 19.3272 5.68756 18.6162 5.68756 17.8426C5.68756 15.8916 7.27321 14.3046 9.22264 14.3046C9.58636 14.3046 9.93869 14.3671 10.2683 14.4695V10.1694C9.92731 10.1238 9.58067 10.0953 9.22264 10.0953C9.16009 10.0953 9.10325 10.101 9.04073 10.101V13.4002C8.70542 13.2978 8.35873 13.2352 7.995 13.2352Z" fill="#FE2C55"/>
<path d="M21.5951 6.83044V10.1011C19.4127 10.1011 17.3894 9.40151 15.7412 8.21834V16.779C15.7412 21.0508 12.2688 24.532 7.99484 24.532C6.34667 24.532 4.81217 24.0086 3.55615 23.127C4.9713 24.6457 6.98889 25.6013 9.22249 25.6013C13.4906 25.6013 16.9689 22.1259 16.9689 17.8484V9.28771C18.617 10.4709 20.6403 11.1705 22.8227 11.1705V6.96132C22.3964 6.96132 21.9872 6.91577 21.5951 6.83044Z" fill="#FE2C55"/>
<path d="M15.7412 16.7789V8.21824C17.3895 9.4014 19.4127 10.101 21.5952 10.101V6.83034C20.3334 6.56306 19.2252 5.88046 18.4068 4.94188C17.0882 4.08302 16.1391 2.70647 15.8379 1.10242H12.7575L12.7518 17.9791C12.6837 19.8675 11.1264 21.3863 9.22251 21.3863C8.04034 21.3863 7.00028 20.8004 6.35239 19.9131C5.22708 19.3158 4.45415 18.1384 4.45415 16.7789C4.45415 14.8279 6.0398 13.2409 7.98919 13.2409C8.35292 13.2409 8.70529 13.3034 9.03493 13.4058V10.1067C4.85198 10.1977 1.47607 13.6333 1.47607 17.8483C1.47607 19.8846 2.26606 21.739 3.55618 23.1269C4.8122 24.0085 6.3467 24.5319 7.99487 24.5319C12.2631 24.5319 15.7412 21.0507 15.7412 16.7789Z" fill="black"/>
</svg>
