<svg width="27" height="22" viewBox="0 0 27 22" fill="none" xmlns="http://www.w3.org/2000/svg">
<path d="M26.847 3.38115C25.8735 3.86055 24.8999 4.02035 23.7641 4.18015C24.8999 3.54095 25.7112 2.58214 26.0357 1.30373C25.0622 1.94294 23.9264 2.26254 22.6283 2.58214C21.6547 1.62334 20.1944 0.984131 18.7341 0.984131C15.3266 0.984131 12.7305 4.18015 13.5417 7.37618C9.16074 7.21638 5.26651 5.13896 2.50809 1.94294C1.04776 4.33996 1.85906 7.37618 4.13069 8.97419C3.31939 8.97419 2.50809 8.65459 1.6968 8.33498C1.6968 10.732 3.48165 12.9692 5.91555 13.6084C5.10425 13.7682 4.29295 13.928 3.48165 13.7682C4.13069 15.8456 6.07781 17.4436 8.5117 17.4436C6.56458 18.8819 3.64391 19.6809 0.885498 19.3613C3.31939 20.7995 6.07781 21.7583 8.99848 21.7583C18.8963 21.7583 24.4131 13.6084 24.0886 6.09777C25.2244 5.45856 26.198 4.49976 26.847 3.38115Z" fill="#1DA1F2"/>
</svg>
