<svg width="313" height="401" viewBox="0 0 313 401" fill="none" xmlns="http://www.w3.org/2000/svg">
<rect x="12.3171" y="14.229" width="299.738" height="369.755" rx="18.8811" fill="#EFF1F3"/>
<path d="M243.144 349.816L228.098 353.609L233.924 359.588M243.144 349.816L233.924 359.588M243.144 349.816L260.448 345.454M233.924 359.588L240.624 366.465M260.448 345.454L240.624 366.465M260.448 345.454L279.256 340.713M240.624 366.465L247.907 373.94M279.256 340.713L288.284 338.437L284.471 352.012M279.256 340.713L247.907 373.94M247.907 373.94L255.972 382.218M284.471 352.012L255.972 382.218M284.471 352.012L277.99 375.088M255.972 382.218L263.74 390.191M277.99 375.088L271.508 398.164L263.74 390.191M277.99 375.088L263.74 390.191" stroke="#CCD9F5" stroke-width="2.6169"/>
<path d="M12.0968 37.8726L7.13886 49.1053L13.7052 48.3815M12.0968 37.8726L13.7052 48.3815M12.0968 37.8726L17.7985 24.955M13.7052 48.3815L21.2565 47.5491M17.7985 24.955L21.2565 47.5491M17.7985 24.955L23.9959 10.9141M21.2565 47.5491L29.4644 46.6443M23.9959 10.9141L26.9707 4.17443L33.5829 13.1603M23.9959 10.9141L29.4644 46.6443M29.4644 46.6443L38.5543 45.6423M33.5829 13.1603L38.5543 45.6423M33.5829 13.1603L44.8237 28.4362M38.5543 45.6423L47.3094 44.6772M44.8237 28.4362L56.0645 43.7121L47.3094 44.6772M44.8237 28.4362L47.3094 44.6772" stroke="#CCD9F5" stroke-width="2.07067"/>
</svg>
