<svg xmlns="http://www.w3.org/2000/svg" xmlns:xlink="http://www.w3.org/1999/xlink" viewBox="0 0 1563.84 415.98">
    <defs>
        <style>.cls-1{fill:url(#Gradiente_sem_nome_25);}.cls-2{fill:url(#Gradiente_sem_nome_25-2);}.cls-3{fill:url(#Gradiente_sem_nome_25-3);}.cls-4{fill:url(#Gradiente_sem_nome_25-4);}.cls-5{fill:url(#Gradiente_sem_nome_25-5);}.cls-6{fill:url(#Gradiente_sem_nome_25-6);}</style>
        <linearGradient id="Gradiente_sem_nome_25" x1="352.67" y1="302.54" x2="581.24" y2="302.54" gradientUnits="userSpaceOnUse">
            <stop offset="0" stop-color="#1890ff"></stop>
            <stop offset="1" stop-color="#0065e7"></stop>
        </linearGradient>
        <linearGradient id="Gradiente_sem_nome_25-2" x1="550.57" y1="302.54" x2="875.62" y2="302.54" xlink:href="#Gradiente_sem_nome_25">

        </linearGradient>
        <linearGradient id="Gradiente_sem_nome_25-3" x1="841.34" y1="207.44" x2="1080.67" y2="207.44" xlink:href="#Gradiente_sem_nome_25">

        </linearGradient>
        <linearGradient id="Gradiente_sem_nome_25-4" x1="1040.9" y1="302.54" x2="1269.47" y2="302.54" xlink:href="#Gradiente_sem_nome_25">

        </linearGradient>
        <linearGradient id="Gradiente_sem_nome_25-5" x1="1238.8" y1="302.54" x2="1563.84" y2="302.54" xlink:href="#Gradiente_sem_nome_25">

        </linearGradient>
        <linearGradient id="Gradiente_sem_nome_25-6" x1="0" y1="207.99" x2="374.84" y2="207.99" xlink:href="#Gradiente_sem_nome_25">

        </linearGradient>
    </defs><g id="Camada_2"><g id="Camada_1-2">
    <g id="title">
        <path id="path43901" class="cls-1" d="M578.34,277.2q-2.9-5.22-8.28-5.23a24.85,24.85,0,0,0-5.8.81q-6.79,1.73-13.11,3.09a225.24,225.24,0,0,1-33.26,4.95q-3.32-31-22.78-51.87-19-21.31-50.51-21.31a84.25,84.25,0,0,0-46.79,13.67q-21.12,13.27-33.13,37.39-12,23.73-12,54.29a96.79,96.79,0,0,0,9.11,41.82,75.26,75.26,0,0,0,26.5,31q17.81,11.66,42.65,11.66,29.4,0,52.59-20.1,23.19-20.52,31.05-54.29a205.67,205.67,0,0,0,38.89-5.13q8.12-1.92,15.77-4.52,12-3.61,12-22.92Q581.24,282.43,578.34,277.2ZM457,344.35q-9.52,10.45-22.77,10.46-12,0-21.12-11.66-8.7-11.67-8.7-33.78,0-28.15,10.77-43.43,11.18-15.67,27.74-15.68H445a67.6,67.6,0,0,0-1.24,12.87,65.67,65.67,0,0,0,6.62,28.95,57.61,57.61,0,0,0,19.88,22.11Q467,333.9,457,344.35Z">
        </path>
        <path class="cls-2" d="M872.3,276.8q-3.3-4-9.52-4a14.9,14.9,0,0,0-4.14.4l-11.18,2-4.61.9q-22.89,4.41-37.21,5.13,9.93-23.33,9.94-41.41,0-15.69-7.46-23.73-7.46-8.45-19.46-8.44a39.79,39.79,0,0,0-24.43,8,56,56,0,0,0-17,20.91A60.39,60.39,0,0,0,741,263.13q0,16.08,6.21,27.74Q734.83,312.18,710,348q-5.81-74-5.8-120.23,0-11.25-4.55-15.68-4.14-4.42-15.32-4.42a27.67,27.67,0,0,0-15.74,4.42q-6.21,4-10.76,16.08Q634.21,290.48,606.06,348q-5.8-74-5.8-120.23,0-10.86-5.38-15.28-5-4.82-15.74-4.82-14.07,0-21.11,5.22t-7.46,18.5v14.08q0,14.4.58,30.43.71,19.77,2.31,42,.9,12.61,2.08,26,2.49,27.75,12,40.61,9.93,12.87,26.91,12.87,13.66,0,23.61-6.84,10.35-6.82,20.29-24.52,10.35-17.7,23.18-51.47L663.61,344q2.07,28.55,10.35,41,8.7,12.46,25.26,12.46a43.85,43.85,0,0,0,26.5-8.44q12-8.44,28.57-31.37,14.51-20.1,26.5-39a119.76,119.76,0,0,0,34.37,4.82,138.46,138.46,0,0,0,26.8-2.53,123.51,123.51,0,0,0,13.78-3.5q9.94-3.21,14.91-10.05,5-7.25,5-19.7Q875.62,280.82,872.3,276.8Zm-92.83-17.47a9.07,9.07,0,1,1,9.06-9.07A9.07,9.07,0,0,1,779.47,259.33Z">

    </path>
        <path id="path43905" class="cls-3" d="M1077.36,310.58a9.14,9.14,0,0,0-8.28-4.83q-6.21,0-11.18,5.63-8.67,10-15.78,17.62-8.53,9.08-14.86,14.55-11.19,9.65-19.46,9.65-12,0-12-16.09,0-11.25,7.86-46.24,9.12-41,9.11-56.69,0-26.15-26.91-26.14-13.67,0-30.23,9.25-16.14,9.24-33.12,31-16.57,21.31-30.23,55.49,0-22.11,1.24-43Q948.59,202.41,973,159q24.43-43.83,24.43-84.44,0-25.34-12-41-11.6-16.09-30.65-16.09-35.61,0-61.28,45.84Q868.25,108.71,855,175.87a712,712,0,0,0-12.15,100.22q-.68,14.57-.68,28.86l-.21,16-.21,16.2q-.4,7.65-.41,20.51,0,22.51,3.73,31.37,4.14,8.44,16.56,8.44,31.05,0,38.92-32.17a282.49,282.49,0,0,1,16.15-46.64q9.93-22.12,19.88-35.39,9.93-13.67,15.32-13.67,4.54,0,4.55,6.44,0,9.64-5.38,35-5.8,28.95-5.8,40.21,0,22.51,10.77,34.58,10.76,11.66,31.88,11.66,25.67,0,45.55-13.67a192.84,192.84,0,0,0,22.74-18.09q8.41-7.74,16.59-16.89,7.88-8.85,7.87-24.93Q1080.67,315.41,1077.36,310.58ZM911.73,134.05q8.7-35.39,17.81-55.89,9.11-20.91,16.56-20.91,5.39,0,8.28,6.84t2.9,19.7q0,28.14-17,62.73a281.53,281.53,0,0,1-42.23,63.93A755.71,755.71,0,0,1,911.73,134.05Z">

        </path>
        <path id="path43907" class="cls-4" d="M1266.57,277.2q-2.89-5.22-8.28-5.23a24.85,24.85,0,0,0-5.8.81q-6.79,1.73-13.12,3.1a226.25,226.25,0,0,1-33.26,4.94q-3.3-31-22.77-51.87-19-21.31-50.52-21.31A84.27,84.27,0,0,0,1086,221.31q-21.1,13.27-33.12,37.39-12,23.73-12,54.29a103.72,103.72,0,0,0,1.22,16,94,94,0,0,0,7.89,25.81,78.82,78.82,0,0,0,6.2,10.86,74.41,74.41,0,0,0,20.3,20.1q17.81,11.66,42.65,11.66,29.4,0,52.59-20.1,23.19-20.52,31-54.29a205.67,205.67,0,0,0,38.88-5.13q8.13-1.92,15.78-4.52,12-3.61,12-22.92Q1269.47,282.43,1266.57,277.2Zm-121.32,67.15q-9.52,10.45-22.78,10.46-12,0-21.11-11.66-8.7-11.67-8.7-33.78,0-28.15,10.77-43.43,11.17-15.67,27.74-15.68h2.07a67.6,67.6,0,0,0-1.24,12.87,65.53,65.53,0,0,0,6.62,28.95,57.53,57.53,0,0,0,19.88,22.11Q1155.19,333.9,1145.25,344.35Z">

        </path>
        <path class="cls-5" d="M1560.53,276.8q-3.32-4-9.52-4a14.8,14.8,0,0,0-4.14.4l-11.18,2q-26.09,5.24-41.82,6,9.93-23.33,9.93-41.41,0-15.69-7.45-23.73-7.45-8.45-19.46-8.44a39.79,39.79,0,0,0-24.43,8,55.9,55.9,0,0,0-17,20.91,60.39,60.39,0,0,0-6.21,26.54q0,16.08,6.21,27.74-12.42,21.31-37.26,57.1-5.81-74-5.8-120.23,0-11.25-4.56-15.68-4.14-4.42-15.32-4.42a27.66,27.66,0,0,0-15.73,4.42q-6.21,4-10.77,16.08-23.6,62.34-51.76,119.83-5.79-74-5.79-120.23,0-10.86-5.38-15.28-5-4.82-15.74-4.82-14.07,0-21.12,5.22t-7.45,18.5v14.08q0,14.4.57,30.44.74,19.77,2.31,42,.9,12.61,2.09,26,2.48,27.75,12,40.61,9.93,12.87,26.91,12.87,13.66,0,23.6-6.84,10.35-6.82,20.29-24.52,10.35-17.7,23.19-51.47l2.07,29.35q2.07,28.55,10.35,41,8.7,12.46,25.26,12.46A43.85,43.85,0,0,0,1414,389q12-8.44,28.57-31.37,14.49-20.1,26.5-39a119.71,119.71,0,0,0,34.37,4.82,133.73,133.73,0,0,0,40.58-6q9.93-3.21,14.9-10.05,5-7.25,5-19.7Q1563.84,280.82,1560.53,276.8Zm-91.69-13.34a9.07,9.07,0,1,1,9.07-9.07A9.07,9.07,0,0,1,1468.84,263.46Z">

        </path
        ></g>
    <path class="cls-6" d="M211.77,0C218,0,224.31,0,230.58.06c4.34.07,8.11,1.48,10,5.85,2,4.62-.55,7.9-3.42,11.06-24.54,27-49.12,54-71.4,83-27.34,35.6-51.51,73.14-67.94,115.27-6.22,16-12.23,32.09-14.92,49.22-1,6.22-.68,12.36,1.77,18,4.21,9.77,16.14,12.84,27.38,7.61,8-3.74,14.42-9.47,20.23-16,18-20.34,35.41-41.22,54.05-61s39.69-37,64.21-49.13c15.31-7.58,31.35-10.09,47.49-3.18,20.29,8.69,28.27,26.77,23.48,51.62-4.09,21.25-11.44,41.49-18.62,61.79-8.55,24.17-18.53,47.84-25.5,72.57-3.18,11.28.87,15.55,12.24,13,13.85-3.06,25.68-11,38.14-17.34,11.12-5.67,21.85-12.23,34.08-15.4,9.92-2.56,14.36,1.46,12.62,11.78s-7.38,18.52-13.37,26.48c-15,20-33.05,36.5-56.59,45.33-18.53,7-37.57,7.47-56.1-.75-14.8-6.56-22.14-19.1-24.74-34.49-3.45-20.4-.39-40.51,4.25-60.4,4.35-18.66,9.06-37.24,13.18-55.95,1.06-4.83.52-10,.61-15,0-2.36-.76-4.44-3.32-4.95-2.39-.48-3.28,1.42-4.33,3.16-12.12,20.08-24.15,40.23-36.5,60.17-13.39,21.64-27.44,42.74-45.67,60.76C130.52,384.31,105,389.63,76.6,385c-26.35-4.32-48.15-16-61.92-40.18C5.55,328.76,1.44,311.21.39,293c-2.27-39.39,5.54-77.29,17.33-114.56A540.41,540.41,0,0,1,89.65,32.23c8.78-12.63,21.82-18,35.54-22.06C153.44,1.72,182.65,1,211.77,0Z">

    </path>
</g>
</g>
</svg>