<svg width="57" height="43" viewBox="0 0 57 43" fill="none" xmlns="http://www.w3.org/2000/svg">
<path d="M46.575 35.5628L54.4422 40.5781L54.6533 35.5628M46.575 35.5628H54.6533M46.575 35.5628L37.5278 29.7952M54.6533 35.5628L54.8962 29.7952M37.5278 29.7952H54.8962M37.5278 29.7952L27.6939 23.5261M54.8962 29.7952L55.1601 23.5261M27.6939 23.5261L22.9736 20.5169L30.4832 16.5834M27.6939 23.5261H55.1601M55.1601 23.5261L55.4525 16.5834M30.4832 16.5834H55.4525M30.4832 16.5834L43.2494 9.8963M55.4525 16.5834L55.734 9.8963M43.2494 9.8963L56.0156 3.20924L55.734 9.8963M43.2494 9.8963H55.734" stroke="#CCD9F5" stroke-width="1.57343"/>
<rect x="0.355713" y="0.652466" width="40.9091" height="41.6958" rx="20.4545" fill="#2A62FE"/>
<g clip-path="url(#clip0_887_2681)">
<path d="M24.2 22.2857C23.175 22.2857 22.6821 22.8571 21 22.8571C19.3179 22.8571 18.8286 22.2857 17.8 22.2857C15.15 22.2857 13 24.4357 13 27.0857V28.5714C13 29.5178 13.7679 30.2857 14.7143 30.2857H27.2857C28.2321 30.2857 29 29.5178 29 28.5714V27.0857C29 24.4357 26.85 22.2857 24.2 22.2857ZM27.8571 28.5714C27.8571 28.8857 27.6 29.1428 27.2857 29.1428H14.7143C14.4 29.1428 14.1429 28.8857 14.1429 28.5714V27.0857C14.1429 25.0678 15.7821 23.4285 17.8 23.4285C18.5 23.4285 19.1964 23.9999 21 23.9999C22.8 23.9999 23.5 23.4285 24.2 23.4285C26.2179 23.4285 27.8571 25.0678 27.8571 27.0857V28.5714ZM21 21.1428C23.525 21.1428 25.5714 19.0964 25.5714 16.5714C25.5714 14.0464 23.525 11.9999 21 11.9999C18.475 11.9999 16.4286 14.0464 16.4286 16.5714C16.4286 19.0964 18.475 21.1428 21 21.1428ZM21 13.1428C22.8893 13.1428 24.4286 14.6821 24.4286 16.5714C24.4286 18.4607 22.8893 19.9999 21 19.9999C19.1107 19.9999 17.5714 18.4607 17.5714 16.5714C17.5714 14.6821 19.1107 13.1428 21 13.1428Z" fill="white"/>
</g>
<defs>
<clipPath id="clip0_887_2681">
<rect width="16" height="18.2857" fill="white" transform="translate(13 11.9999)"/>
</clipPath>
</defs>
</svg>
