<svg width="58" height="43" viewBox="0 0 58 43" fill="none" xmlns="http://www.w3.org/2000/svg">
<path d="M46.953 35.5628L54.8201 40.5781L55.0313 35.5628M46.953 35.5628H55.0313M46.953 35.5628L37.9058 29.7952M55.0313 35.5628L55.2741 29.7952M37.9058 29.7952H55.2741M37.9058 29.7952L28.0718 23.5261M55.2741 29.7952L55.5381 23.5261M28.0718 23.5261L23.3516 20.5169L30.8611 16.5834M28.0718 23.5261H55.5381M55.5381 23.5261L55.8304 16.5834M30.8611 16.5834H55.8304M30.8611 16.5834L43.6273 9.8963M55.8304 16.5834L56.112 9.8963M43.6273 9.8963L56.3935 3.20924L56.112 9.8963M43.6273 9.8963H56.112" stroke="#CCD9F5" stroke-width="1.57343"/>
<rect x="0.733643" y="0.652466" width="40.9091" height="41.6958" rx="20.4545" fill="#2A62FE"/>
<path d="M11.6684 17.9744C11.3319 17.9744 11.0591 18.2472 11.0591 18.5838V23.3399C11.0591 23.6764 11.3319 23.9492 11.6684 23.9492C12.0049 23.9492 12.2778 23.6764 12.2778 23.3399V18.5838C12.2778 18.2472 12.0049 17.9744 11.6684 17.9744Z" fill="white"/>
<path d="M24.5807 14.4199H22.0454C21.7089 14.4199 21.4362 14.6927 21.4362 15.0292V15.5796L13.2762 17.9994C13.0175 18.0761 12.8401 18.3138 12.8401 18.5835V23.3374C12.8399 23.3678 12.8429 23.3985 12.8474 23.4293C12.8482 23.4351 12.849 23.4408 12.85 23.4463C12.8546 23.4716 12.8601 23.4967 12.868 23.5217L14.5953 29.0384C14.6769 29.2989 14.9173 29.4658 15.1766 29.4658C15.2368 29.4658 15.2981 29.4567 15.3586 29.4378L17.8741 28.6512C18.0284 28.603 18.1571 28.4955 18.232 28.3523C18.307 28.2092 18.322 28.042 18.2737 27.8877L17.4177 25.1523L21.4361 26.3442V26.8945C21.4361 27.231 21.7089 27.5039 22.0454 27.5039H24.5806C24.9171 27.5039 25.1899 27.231 25.1899 26.8945V15.0292C25.19 14.6927 24.9172 14.4199 24.5807 14.4199ZM16.9287 27.67L15.5763 28.0929L14.3727 24.2491L16.0101 24.7346L16.9287 27.67ZM16.6714 23.6598C16.6697 23.6593 16.6679 23.6587 16.6662 23.6582L14.0589 22.8849V19.0384L21.4363 16.8508V25.0731L16.6714 23.6598ZM23.9713 26.2852H22.6548V25.8893V16.0345V15.6386H23.9713V26.2852Z" fill="white"/>
<path d="M29.3363 24.3732L26.6997 23.0547C26.3986 22.9043 26.0327 23.0261 25.8821 23.3272C25.7316 23.6282 25.8536 23.9942 26.1546 24.1448L28.7912 25.4633C28.8787 25.5071 28.9717 25.5278 29.0633 25.5278C29.2868 25.5278 29.5021 25.4043 29.6088 25.1908C29.7593 24.8898 29.6372 24.5238 29.3363 24.3732Z" fill="white"/>
<path d="M26.4276 18.9332C26.5192 18.9332 26.6122 18.9125 26.6996 18.8687L29.3363 17.5504C29.6373 17.3998 29.7593 17.0339 29.6088 16.7329C29.4583 16.4318 29.0922 16.3098 28.7913 16.4604L26.1546 17.7787C25.8536 17.9293 25.7316 18.2952 25.8821 18.5962C25.9888 18.8098 26.2041 18.9332 26.4276 18.9332Z" fill="white"/>
<path d="M29.6325 20.3525H27.4308C27.0943 20.3525 26.8215 20.6253 26.8215 20.9618C26.8215 21.2984 27.0943 21.5712 27.4308 21.5712H29.6325C29.969 21.5712 30.2418 21.2984 30.2418 20.9618C30.2418 20.6252 29.969 20.3525 29.6325 20.3525Z" fill="white"/>
</svg>
