<svg width="72" height="48" viewBox="0 0 72 48" fill="none" xmlns="http://www.w3.org/2000/svg">
<path d="M33.2048 23.5384L38.625 15.9445L33.6276 15.4712M33.2048 23.5384L33.6276 15.4712M33.2048 23.5384L26.9716 32.2714M33.6276 15.4712L27.8806 14.9268M26.9716 32.2714L27.8806 14.9268M26.9716 32.2714L20.1964 41.7637M27.8806 14.9268L21.6339 14.3351M20.1964 41.7637L16.9443 46.32L13.4092 38.6149M20.1964 41.7637L21.6339 14.3351M21.6339 14.3351L14.716 13.6798M13.4092 38.6149L14.716 13.6798M13.4092 38.6149L7.39941 25.5162M14.716 13.6798L8.0528 13.0487M7.39941 25.5162L1.38964 12.4175L8.0528 13.0487M7.39941 25.5162L8.0528 13.0487" stroke="#CCD9F5" stroke-width="1.57343"/>
<rect x="16.0449" y="0.652466" width="40.9091" height="41.6958" rx="20.4545" fill="#2A62FE"/>
<g clip-path="url(#clip0_887_2667)">
<path d="M42.3641 21.2928L39.535 24.1209C37.9735 25.6834 35.4403 25.6834 33.8788 24.1209C33.6327 23.8758 33.4403 23.5994 33.2713 23.3143L34.5858 21.9998C34.6483 21.9368 34.7254 21.9007 34.7992 21.8582C34.89 22.1688 35.0487 22.4627 35.2928 22.7069C36.0726 23.4871 37.3417 23.4862 38.1209 22.7069L40.9491 19.8787C41.7293 19.0984 41.7293 17.8299 40.9491 17.0501C40.1698 16.2703 38.9012 16.2703 38.1209 17.0501L37.1151 18.0569C36.2992 17.7391 35.4198 17.6536 34.5638 17.7791L36.7068 15.636C38.2693 14.074 40.8016 14.074 42.3641 15.636C43.9256 17.1981 43.9256 19.7308 42.3641 21.2928ZM34.8851 25.9432L33.8788 26.9501C33.099 27.7294 31.8299 27.7294 31.0501 26.9501C30.2703 26.1698 30.2703 24.9012 31.0501 24.121L33.8788 21.2929C34.659 20.5126 35.9271 20.5126 36.7069 21.2929C36.9505 21.5365 37.1092 21.8304 37.201 22.1405C37.2753 22.0975 37.3514 22.0624 37.4139 21.9999L38.7284 20.6859C38.5604 20.3998 38.3671 20.1244 38.121 19.8788C36.5594 18.3168 34.0263 18.3168 32.4642 19.8788L29.6361 22.7069C28.0741 24.2694 28.0741 26.8016 29.6361 28.3641C31.1981 29.9257 33.7308 29.9257 35.2928 28.3641L37.4364 26.2206C36.5799 26.3465 35.7005 26.2606 34.8851 25.9432Z" fill="white"/>
</g>
<defs>
<clipPath id="clip0_887_2667">
<rect width="16" height="16" fill="white" transform="translate(28 13.9999)"/>
</clipPath>
</defs>
</svg>
